<mxfile host="app.diagrams.net" agent="Mozilla/5.0 (Windows NT 10.0; Win64; x64) AppleWebKit/537.36 (KHTML, like Gecko) Chrome/138.0.0.0 Safari/537.36" version="24.8.3">
  <diagram name="Page-1" id="w0M9Tv7UXLX945aC6RI9">
    <mxGraphModel dx="1648" dy="359" grid="1" gridSize="10" guides="1" tooltips="1" connect="1" arrows="1" fold="1" page="1" pageScale="1" pageWidth="827" pageHeight="1169" math="0" shadow="0">
      <root>
        <mxCell id="0" />
        <mxCell id="1" parent="0" />
        <mxCell id="DjLHUHuEkZMfq8ZDPpnp-5" value="" style="rounded=0;whiteSpace=wrap;html=1;" parent="1" vertex="1">
          <mxGeometry x="-60" y="110" width="690" height="720" as="geometry" />
        </mxCell>
        <mxCell id="13cGQfRiNaTf8cITRQYB-22" value="" style="sketch=0;outlineConnect=0;fontColor=#232F3E;gradientColor=none;fillColor=#7AA116;strokeColor=none;dashed=0;verticalLabelPosition=bottom;verticalAlign=top;align=center;html=1;fontSize=12;fontStyle=0;aspect=fixed;pointerEvents=1;shape=mxgraph.aws4.bucket_with_objects;" parent="1" vertex="1">
          <mxGeometry x="336.5" y="242.97" width="57.96" height="60.28" as="geometry" />
        </mxCell>
        <mxCell id="13cGQfRiNaTf8cITRQYB-16" value="" style="endArrow=classic;html=1;rounded=0;exitX=1;exitY=0.5;exitDx=0;exitDy=0;" parent="1" source="ZIW-Bqu-6-VOcXZnvLO4-17" target="13cGQfRiNaTf8cITRQYB-22" edge="1">
          <mxGeometry relative="1" as="geometry">
            <mxPoint x="165.62959999999998" y="274.09483870967733" as="sourcePoint" />
            <mxPoint x="352.3287560847766" y="279.35799999999995" as="targetPoint" />
          </mxGeometry>
        </mxCell>
        <mxCell id="13cGQfRiNaTf8cITRQYB-17" value="&lt;font style=&quot;font-size: 10px;&quot;&gt;Push consolidated&amp;nbsp; JSON Files&lt;/font&gt;" style="edgeLabel;resizable=0;html=1;;align=center;verticalAlign=middle;" parent="13cGQfRiNaTf8cITRQYB-16" connectable="0" vertex="1">
          <mxGeometry relative="1" as="geometry" />
        </mxCell>
        <mxCell id="13cGQfRiNaTf8cITRQYB-54" value="" style="endArrow=classic;html=1;rounded=0;entryX=0.5;entryY=1;entryDx=0;entryDy=0;" parent="1" target="ikbKVhi1X6ugl7hC7fln-1" edge="1">
          <mxGeometry width="50" height="50" relative="1" as="geometry">
            <mxPoint x="550" y="490" as="sourcePoint" />
            <mxPoint x="549.529" y="446.999" as="targetPoint" />
          </mxGeometry>
        </mxCell>
        <mxCell id="13cGQfRiNaTf8cITRQYB-69" value="AWS Cloud" style="points=[[0,0],[0.25,0],[0.5,0],[0.75,0],[1,0],[1,0.25],[1,0.5],[1,0.75],[1,1],[0.75,1],[0.5,1],[0.25,1],[0,1],[0,0.75],[0,0.5],[0,0.25]];outlineConnect=0;gradientColor=none;html=1;whiteSpace=wrap;fontSize=12;fontStyle=0;container=1;pointerEvents=0;collapsible=0;recursiveResize=0;shape=mxgraph.aws4.group;grIcon=mxgraph.aws4.group_aws_cloud;strokeColor=#232F3E;fillColor=none;verticalAlign=top;align=left;spacingLeft=30;fontColor=#232F3E;dashed=0;" parent="1" vertex="1">
          <mxGeometry x="280" y="180" width="330" height="430" as="geometry" />
        </mxCell>
        <mxCell id="ZIW-Bqu-6-VOcXZnvLO4-5" value="" style="outlineConnect=0;dashed=0;verticalLabelPosition=bottom;verticalAlign=top;align=center;html=1;shape=mxgraph.aws3.dynamo_db;fillColor=#2E73B8;gradientColor=none;" parent="13cGQfRiNaTf8cITRQYB-69" vertex="1">
          <mxGeometry x="57" y="323.5" width="53" height="66.5" as="geometry" />
        </mxCell>
        <UserObject label="&lt;div&gt;&lt;div&gt;Dynamo DB&lt;/div&gt;&lt;/div&gt;" placeholders="1" name="Variable" id="13cGQfRiNaTf8cITRQYB-45">
          <mxCell style="text;html=1;strokeColor=none;fillColor=none;align=center;verticalAlign=middle;whiteSpace=wrap;overflow=hidden;" parent="13cGQfRiNaTf8cITRQYB-69" vertex="1">
            <mxGeometry x="47.75" y="390" width="75.5" height="20" as="geometry" />
          </mxCell>
        </UserObject>
        <UserObject label="&lt;span style=&quot;font-weight: normal;&quot;&gt;Redirect Rules&amp;nbsp;&lt;/span&gt;&lt;div&gt;&lt;span style=&quot;font-weight: normal;&quot;&gt;Importer&lt;/span&gt;&lt;/div&gt;" placeholders="1" name="Variable" id="13cGQfRiNaTf8cITRQYB-41">
          <mxCell style="text;html=1;strokeColor=none;fillColor=none;align=center;verticalAlign=middle;whiteSpace=wrap;overflow=hidden;fontStyle=1" parent="13cGQfRiNaTf8cITRQYB-69" vertex="1">
            <mxGeometry x="170" y="110" width="100" height="40" as="geometry" />
          </mxCell>
        </UserObject>
        <mxCell id="ZIW-Bqu-6-VOcXZnvLO4-12" value="" style="outlineConnect=0;dashed=0;verticalLabelPosition=bottom;verticalAlign=top;align=center;html=1;shape=mxgraph.aws3.iam;fillColor=#759C3E;gradientColor=none;" parent="13cGQfRiNaTf8cITRQYB-69" vertex="1">
          <mxGeometry x="74" y="180" width="25" height="51" as="geometry" />
        </mxCell>
        <UserObject label="IAM" placeholders="1" name="Variable" id="ZIW-Bqu-6-VOcXZnvLO4-15">
          <mxCell style="text;html=1;strokeColor=none;fillColor=none;align=center;verticalAlign=middle;whiteSpace=wrap;overflow=hidden;" parent="13cGQfRiNaTf8cITRQYB-69" vertex="1">
            <mxGeometry x="63" y="231" width="47" height="29" as="geometry" />
          </mxCell>
        </UserObject>
        <UserObject label="&lt;font style=&quot;font-size: 10px;&quot;&gt;S3&amp;nbsp;&lt;span style=&quot;background-color: initial;&quot;&gt;Bucket&lt;/span&gt;&lt;/font&gt;&lt;div&gt;&lt;div&gt;&lt;br&gt;&lt;/div&gt;&lt;/div&gt;" placeholders="1" name="Variable" id="ZIW-Bqu-6-VOcXZnvLO4-27">
          <mxCell style="text;html=1;strokeColor=none;fillColor=none;align=center;verticalAlign=middle;whiteSpace=wrap;overflow=hidden;" parent="13cGQfRiNaTf8cITRQYB-69" vertex="1">
            <mxGeometry x="45.5" y="130" width="80" height="20" as="geometry" />
          </mxCell>
        </UserObject>
        <mxCell id="ZIW-Bqu-6-VOcXZnvLO4-6" value="" style="sketch=0;points=[[0,0,0],[0.25,0,0],[0.5,0,0],[0.75,0,0],[1,0,0],[0,1,0],[0.25,1,0],[0.5,1,0],[0.75,1,0],[1,1,0],[0,0.25,0],[0,0.5,0],[0,0.75,0],[1,0.25,0],[1,0.5,0],[1,0.75,0]];outlineConnect=0;fontColor=#232F3E;fillColor=#8C4FFF;strokeColor=#ffffff;dashed=0;verticalLabelPosition=bottom;verticalAlign=top;align=center;html=1;fontSize=12;fontStyle=0;aspect=fixed;shape=mxgraph.aws4.resourceIcon;resIcon=mxgraph.aws4.cloudfront;" parent="13cGQfRiNaTf8cITRQYB-69" vertex="1">
          <mxGeometry x="230" y="312" width="78" height="78" as="geometry" />
        </mxCell>
        <mxCell id="ikbKVhi1X6ugl7hC7fln-1" value="" style="shape=image;verticalLabelPosition=bottom;labelBackgroundColor=default;verticalAlign=top;aspect=fixed;imageAspect=0;image=data:image/png,iVBORw0KGgoAAAANSUhEUgAAAIYAAACRCAYAAAAGqsCyAAAAAXNSR0IArs4c6QAAAARnQU1BAACxjwv8YQUAAAAJcEhZcwAAGdYAABnWARjRyu0AACpQSURBVHhe7V0JfBTV/f/NzG42JIFw34RwhjPcp9woKB4Vz1rxlnrUo63Wqq31wCqelWqrVqt4VC3egIjIrdw3COEMCRBICCEJ5Nydmf1/f7+ZDSFuyC5sEsp/vnyGebNvMjvz3vf9ft/fe2/eKn6AHDioANXeO3BwEhxiOAgKhxgOgsIhhoOgcIjhICgcYjgICocYDoLCIYaDoHCI4SAoHGI4CAqHGA6CwiGGg6BwiOEgKBxiOAgKhxgOgqLG52MUf/gy6SvngZJ+UrCRakoad3LiMzttbTiUY5zHewUXCZxT7lhxuynqoimkdR4r3+PgzFDzFsPnJX9J0c+3UnsrSxeW2wfS5Y69hUTlNn9RLuk7v5e9gzNHzVuMd6eSb9kcUjxu0tolkRIdXc4C4ASxDuWO2RqUtw7l9oHP/YXZZB7ZSeSpQ54r/0FawiCc4OBMUGvEUBs3pZj7XiC1ZTs75zSB2zf2LifvnEdBkCzSki4gzy9ewZNp9gkOTgf/++JTUUht2glWYqAcGqlLyczcJmkHp49zIipRYhuT1mEkKXFNifQS8q35t53j4HRxboSrikpq+2GkNusmh8bOebAaWyTt4PRwbhADUOrUh74Yh30D6A6D9NVvEZm6nesgXJwzxGBobYeQEt9a0mbGOmzrJe0gfJxTxFDqtSCt+y/EtfhLjpGx+3v4Fa+d6yAcnFPEYLi6XUJKo/YgRCmZ+1aQmbXVznEQDs45YrDGcPe9UdLm0b0IXxdKpOIgPJxzxGC4el6FEBahq+Ejc+9SMrN32DkOQkXtEcNvWmMfxQUntpIgW2mh/QdhQNXINejXojXMnF1kHoY7MX12poNQUHtjJXU85OrShyg2FneBDB734HERsvZl4yFR0eS55AGiqDry96HCfzyTvF9MJvPIdlLbDKCo8c8hYmlj5zqoCrVGDCEBEyAw7G5v1hB74HP8AdLR10whV5+LrQuECr2U9I3/Id8Pz+MaCrnHPkmu7lfjiZlxDqpCjRPDu+Bz0lPWSYWXjZoyEcqPmOLYb+pkHkwhf9ERUhu3pjp3fwgrU8+6SIgwMzeT97tHyH90B6lNu5Lnui9xbZed6+BUqHFi+IuOQzfYUcJJjde6jbIGjdvyLnybfOtnkWKWUhTciXvoJDszNPCcDX3lP0jf8A6OTFzjH6R1uMDKdHBK1Lj4VGLqktqgibXVL781lU2Jt7f6zciVPA7RRX35O331p2FPwlGiYkltN4KUBu3AEhNuZaqd46AqnNXhqtZxAGkJPZGCJC3MJWP7UqTDM3Bay76ysQvx56eRse0LO8fBqXDW92O4h9+AiCQaoetx0rfOQ7SRY+eECC0KVmOUNbgG6Js+gCs7JmkHleOsJ4aWkExa5/NEc5iHtpOxe5m4hXCgJZxHavNeSMHyHNtHZtpiK8NBpTjricFwj7yFyBVF/oIcMvaswP6InRMi3DHk6n0TnlaDID2Oa3xH/uKjdqaDYPifIIbWIom0rqPFahhpa8k8vMfOCR1qq/6kJo5CcGIgjN1I5oEVdo6DYDjriMH+30hbYh/ZQEt3nzeJFLcHGiObjB2LoDnC1Amqm9y9YDUAf2EmvgPXKA5Tr/w/wllHDDNjNenLnoeeWIejExGI2iiBtO7jxGroW+aQP/eAnRM61IShpLYZKtcwszaS/+hufFqj3Tj/Mzi7iGHqZGz6D5m5qWTs+vak6EHxxIkIVTyxaOn5pK//DHUanghluPvehigH18jdQ0Y6LBO/sFTD8PuKQPxNeL7j9idnH84qYhgZa8g4sEpmXbGpl1FRtG4B3InWOhmhp/WagJ4yn/z5hyQdDpRmiHJaD5G0sXs2mflpkq4pyBtzmz6n0lkPkr7idURJGXbO2YWzhhh+HvRaMU1IIcfH0hFWLkTrKpBjhhLfnFxJw0mJbYACPkq+Ve/bOaFD8dQjrcN4RDl18B37YZlm4cvCtzynA7F0Gz4lffmb5M/bR75175FvyXPkz2GXdnbhrCGGuWcBzOtG+wgwTTK2f07+Iyn2BwBbjY7DSG2eJIf6xi/JzA4zQlFd+Ps+iHT6yaGx8+uaMem+EpDiM9JXTYf4tUWv6UPovID0dW+DNGfXO7dnBTH8ejEKDa0fGkOJrk9al18QeeqiwvJI3/zuSS1aiW9GWps+EAt1RB/4ViI/TCj128EljRWrQYWHydjynp1TfTDS15Jv0atiNZQ68eQe9ZDVG2v4SN8+G4RBXmm+fXbt46wgBr8g5D+aKmmlUSdyD7qPtMTROFJhSb6FVSj/8pBCWs+LSa3fUo7MtFXQGmH6aQXXSBhOalMeh0GUswGmHQSpLpgHt1HpjN+D3yA+k2LYfRDBk8hz3Ucys50nLhs7ZorgPltmtdc6MXho3NwDLVGC1gIz7+p7C1p0IlzGRaTURaEBvoUPwTqciFDURm3J1Q06ARXMWkPf+LlYm3CgNOhAaov+sBrR+IJCMjZXz2uN/twMKv3sETxnMaxhPXINvJm0ZFhElwfP0YHcYx4nJa45LAms47o3QaK1+KPaD6FrnRjm/jVkZnL0YUrvpJY4Uj5XWw/G8WAk3DLRxtgNkVgOrj5XQIQ2Et9t7PmRzCPh94YK+eIsy2Okfkf+goOSjhT8RfnkXfAGmTnp+DI3wu3R5Eq+TKYDBKC1PY9cAybDktSH5UsHORCpFGbZubWHWiUGtxIjdQmiA1SI5iHXkPtlz1A88aR1urhsVNTY9okMgAWg1EOEwi0PMHP2gDiLwjbDaqOupCZCa/ALSkXQGju/snMiAEOHPpoLF7HUIn2zznAhIADu+yTAcmidJ+BZJ8izGxmrSF/7mp1Ze6hVYpjZO1Ghi8UNaB3GIFLobedY0FoNgUgch5RCZi7O3T7DyrDhGgK3EwPi+IphedahxYXZ4nk2ec8bhRhyjfRF0vEVCRgHt5O+/huQ33KBUWPuBRETJV0RSkwj6KbroHl6SFnoiMaMtAV2bu2g1ojhLy1AC51P/uNWJ5XW/QrcjVvSZYD/d/W906o4vQSVvxQx/4m1L5gUrgHXS5qJYRzaLK0zHCj1WqHFXoaUH+5oK6KHhVbGGYBfedA3f0/mAX4Lzk/u86ArOlidasGhkNq4C7l6/BIWEu4Rz6qvepn8IGttofaIAfdhbJ3J5SbT79Sm1hIGFaHUbQ2XcQsSsBqsNfbMQcGdKDB2J6zsuRCNbWihBdl2TqhQyDUY4lZEaBHE38qTXFbY4HGY/Smkb5qPNFxIy24UNfYefE0VRY3nU+E61WbJfED+vFRLEIdJ9Eih1ojBkYTE9J5Y0rpeKua0MmgDf09KfHtpSUb6fGnZwiiAwz9XN/hnFLyRvsJeFyM8Va/EQq90tyyPP2sDmYc3IWHIcbjwe4tI3wKXlJcJ/xFD7hG34gEqWMJKoLCFHHivpatAfjMNFvUYhGstoFaI4T+WCb3wvaTV1ohEWvVBovI1sxSeaJOMAuZ5m9Aa5gEIOrRuAfLU9ueBOK1EfOqbT29wTetyNcjZBGQ9SmbqXNmfDsysNNyDpQ+0pGGIOqCbyqa+Vw21WW80lKskbeZBVO+dh0TNv0VXK8TgMQ4mh/Ryth8JV2CFjKeC2naM1e9gGlD6n0OM7rIy2AQ36wIfPhxpTayGcYCH7MODUrcVIhTr1QKDtUw29EqYlofhW/alzEvlme6uXhwON7RzQoer9+0okwSi0uNk7lssk5hrGjVODDM7lfQN1kxttUkn0jqOQqLql4CUmGZoSdfBQsRCR+wnI+XjMsugRCO07TCClPqtxd34lr4kn4cFXFdDBCQvQ3uPQct8g5sNz/KY2QfgIqEtAK1tL9LaQDdVpS2CgC2X1vUaSZtZ62XuSE1rjRonhr7qA2kJ7H/VdnAB3CUcCuBq1Ob9SG01VA6NnTPQMu3JOmw1WvVGOAgdAvBcB3N3mNEFKlBp2pPUBKuDzdj1Fa6/X9KhwrfoY0QkxdAI9WAJ++HZmtg54UNLuhzXgbXhaGzfAri2MOe5niFqlBjmwa2k8yxvQIlDq+gynlNyHAqUum3QEs8n8sTjYgb5Vjxl5yCPrUbSeEu4ITLg91bD7iZHqKgmjBIxKut4rXxW9qHAX5BHvg0gIx5HbZpIWidehBYHhk7+wjy4gywI0kPYYzsW2A6CfPZWgGOufLuTToluQGpHDqPxGBnLJb8mUXPE4I6bzXPKhpy1rheR2jB4h0+lYBGmQ3TaYwlqYx4EOwFXp7FwT50lbR5OQdi4StLhQG2STEqjLkgpEH5zYcY3WBlVQP8JlVcES4gIRG0Ly9MkQY71DfOp5N0/UNELE6noxQup6JVxVPzq+VT8z9FU8q9RVPLWCOQPp5L3R5J35g2kb/0QJMjAw8CiJoyAZeVR5nw8i9URWFOoMWKY2WkQdQgD9VKY2Obk7nu1nRM6ZGINd0BBAyj12pLW/QY7x4anLrn6IOyECPWX5JG+babltsKAUo+t0liZ0MPQt7xbdYUYsC4/We+7KNGx5EoajO8vghCdRSWfvgyCbSS/r9Q+uRLgO/w5KaSveJb05U8j7M0jtX57COu+km2kzsH1zzViGD5ogh/Riq2ZSq5BN4auLQKAtTAPrRIxxtC634TKs8ZRykOiHNYaKGheuc/AFi7U9ogm6neQtD9rHe673ASiIDAP78d34dlgyVREI2piMp53I3mXQKfAaigx8RQ19jbyTHySPJc9RVGXTKGoCX+lqPHPUNS4qRR1/lRyD/mDZalQ+UwCY+cX4tI4fBWiIwozj9fcNMAaIYZ5JB0PuhSttwjmv72MjIYLf0kurvElFF4hRGZ30hLGoMCC6BN3NLkH3ylJnk9pHlgtAi4cSFTQ5VqrQoqOIDz+FA9R+QCdsW87zrOmIGqdEVLDDem7tsACZMpnnmseI/eom8nV73I8+0SEsVeQK/lK0npeRVoPbN2uRoh6K8jx6InR3h0zpDdWadBZtI8QPc2KeGoC1U8MiC8jfSMZaZavluFyT5ykw4GZsQIWY42k1c5XSld5ZXB1gX5pxgNSBpnpy+DGwl+DS20/wRa5sFSZPDWgcstj7NkKYliDZa7k0SCvTywFh7tqq064n8GkIAo7JTQPqW2GkdKQNRIIDyHqP7qT1AYdRHQzjD1fy74mUO3EMI9nk76OJ9z6YZ5bInJAS+cHDwfco7nhDVwDBd20F6ktBqMgo+zMIEBLdw2cjL0KM78Nwm1F+FYDGsPVl8c4FJjx3eSddS2VvJkgGw/mBWDm58AyIGKAzuDXKLV2PNYBBPrGVBRxqH0ZHDLHwsWWWUJolnoJIAZbEdzHkZ8gRGtmbmi1E8NIhZ/fvxnfhMrqfRkesrGdEzrYhcioKkyrmjAa0UwnO6dyqC37wG1ZEYq+fSYqMLw+CQZ3qMkYzSngzz0M8udJ2tU1yO+k6OyCQuxB5dC4bKYayKGC/O5YNCjcAw/yAX4ex6kBVC8xUCj6ys8kqTZJRDgJU1mVSa0AfxEsznpYC0CFIFQRMQQm85wK3J+h9YCW4Zehc3ZaViPM3kMZoxn8R2iCX5+0lXdj5tFs8h+3WrGlL4CoKFLjENXAWvhzs0jfsdL6vAqY2bBuPL+V7xNuTIltJp+LzkDYyjAz18q+ulGtxNC3/UDGgRSUmJs0JkWzjnZO6DC2fwERmW5Zi9bDYS24jyEE8JzKtkPgerrLobH1U3kDLFxoiePJNeTPIMiJTVqwDX8etIBtMbREa+oArzSoteuKCm0qYWvp138j77zXSU9ZjOdZBAu4kIxdC8jYjW3PfOy/I33TuxKqBjqy1LYXiLVgcGjO/RoMM69m3kGpNmL4vSXknYuWDvHJk3e1pBHhWwt5IQiCS/oHGsoI6Cm1RQWoDdrJzDDSohEZ7SAjBVFNJMG/7waNwXuG2vzErzVpnXuRq/tAVKgbFusAeX/4ADrlGfLO+SvK5WkQZQr55j9BvoWPk2/JE6SvfkXmgvCMcbXNSFgmaCQbQgxYLwYL0ppAtRFDXz9XOrVIc4H9vdCa+tg5oYPfEuMJsgytwyUyszss8Go60BpK/QQhl75qmsxKjxR4kTmzwHoXRG0Dcw+3FYASW488V9xNngtvRqYG7VAKomdBj2TBwvCWCetgpwsP41qIYnCPWtLVFDXudTSEE/NTWAhbHW7QHd7j+Jvw9VK4qJZV+/yF+VT8xj0IL1NQKQ3JcyVMcNcRdm5o4BlM3oUPk//QamktnklLpH8hbCCi8S1+mnS4ErCC3KOeQGus0GN6mjCzD1LJx9PgppaT1r0vxfzmJWkIFWHmZ5Oxdz1RYTZIEljf1N4Ue4MmUlv0JbUe9Auiqorw/fAoLN5HQhj3hPchrC0XWV2oFovh2zAfJs+amKu16QHRifAyHHBPadoSMf8MV587To8UDFgNLelSCEZrdrax7XPpLIsI4CbL3EjjVqjQ4GG4Gt+E3L3Hyxof7iE3SM+va8BN5Op3s7xH4+pzK7m6TMR5cBlBSMFQohHNcdjL3fNF1f96QcSJ4S/IBbNXEK8Nzv7VPexX2IeuCxiiLdLsMREUltbzzFq42rI3NkQM3CeRlwbx942dc2bwe6Exii3XxMtUVif4pST8T36EtDWxuFzEiWHs5H4LtHR4KFe3EdAWJ78SUCX4FwMyViMss8YntJ43Bh0TCQuqm1w9rkG5avL2vJHKq/9FYNwBAttfaFWSigikMovxv4iIEsN/LAe+fDn2RxDLR1PU+DuD+txTgc28vv0rFHqh+FGtbSVjImFCbQGrwWtwgbD8Bn3E1+AK8znDRmxLqxxMHwR59U/1iygxjAO7Sd+yHDfvJ3e/C2XCSrgw96+03t8EtKSJ0Abw3ZEArEbU8EckyRN9DRDjjNfg4o6oqobkIwSZzcVRyUm9o9WHiBGDTaq+doFlWqEttD7WS8dhgSOIdf+SVs3rcqqtBol4jBTkZekul8v1zf3Lyczi1wQQEZwG5IWp9FUSflofnN51QoZpzyRjYZ6xicxcthrV950RI4Z5cC+iEWu1PS2xByluN6KK/daWs+/EdnQfIpZ0a8s9eTO2fkb+7O0gFvdajiK1UdVjIuFCfpqC1+AqzLSWWDiyTUxzZRt3OP0MsBKyCMryN9GGrW52k7vFq5Ebfu7xZAuF7zCzdqARvgOhX31LN0SsH6N4+rPkW/kN9B2/wNuC1CZQ0Roshh2vK/z7I2xAsJc4nmN3ycNndizP74zwm978ExLusc/gOidP3YsEWMP4Fv6JDJCClyVQGyUJEeXeysD3Y6Xcw56EpTm5Y03fOJu8C55HxRwF2eOISiFu+4+kOrc+UW1aQ1/9Ar73n2CFiTKyBtdc/RD29p8McR75iCgixDAz91Hhc7+Bz84VYhC2wJ40XJ6PhQR2nk0WyQMhhDSBz9zR5Op9A+L93yE/cm6kDPxeSup35Fv8GEhy1PZ2fB+Sa0GIaiWjrvgaRD0RWRk7l1Pp10/iWTOIfxnBX9gcURTI3LI1xf7pfXGj1QHvNzdCMMMiKygTtR2ZCLvVeg3IPeJhaDHrJ0UjiYgQQ9+0nHybfkQhc+ValRy0d0+sQ8BicDqQb6exMfs5tFQahtn9HQa4C9rY8bW86VUmg8qIgftg2MeuPvfIPFAGv2VW+vkTslaYEuMi9+BfwdfXIe93H4FBKsVNnQmyxMu5kQSPMHtnXw+Lup2U+Ha4p4fJu/gZmOlDOG5CUZe9A8vX1T47MoiMK2FhVP7lnLJCPg3w38oLSGdykaqAR+Z7Lv/olX2dgnsBe3honUdJ9a1z8VEpROwg8lz5Enz9UpDlNYjRfIq5fxpa7wD7DyMHHmr3Lfwt7mEfae0vJveYadA475Nv1TRkFpAS14g81y+GMQl/ZlxliIz94UEiNqGBjV/iPd1NlkKoTlIwcH0mX8XvDbYxKbwlop9kJjgIpTZsTZ5f/BUapS4pDRojpLZ+bMe3LbR5F+HCnwNBbvd2qi2H4n6jSOt+JWkdx+EDPEfxEfIt+C1Md+SWTYisYzoXAavCczq9P8wiKkHrjG9GnmtekBemGGrjFvjMGgk1UqqBGDwJ+Oh26bFlqK2sdTZ4IpK7/52yNCUT3cxYRvqWd4JHUacBhxhVQfeRsY9/uzWDyBNLUWNvR6s9MVlIqQ+LwcSAZTEPpVq9vhEE6wseO5KOtOiG+L4Tk514hUNXv7tguXhVoSIy0+dDFEfm+x1iVAGRYIa1DIFStyFp7fohcaLYFE8Maa07Ym/9Lqyeslz2kQIv4uIvtFcdajNK9uXBy1KWzSiLYE+sQ4wwoLCWKgtjTkBNSCKyR1f17eG/Fnkq+BE5BV7eVvm93YpgjeEOb2ZcKHCIEQFobTrBnFvzM830rTL1IBLwewsQUqfCTRRK5WsJP7cY1QWHGBGAUrcBaYldxZr4SwohVq3XKM8U/oIDZbPC1Wb98V81dPhVAocYEYKr71iUJv/mWhEZu1GZPLvrTAC9wKKTF79l8IpC0i1QQ3CIESGoLRNIcSOh88vU28nMPcNVhnlxtgMQsvzKg+kmpcHprc5zunCIEQHIC9dbp5MSa03zM3MyyEgNbV2NyiD6InWelS6OIn31t+KmagoOMc4QvDi+vuZ1Mn76mLT6Vu+kvygPInQT9qf/MxPmviUIU2F1/NAtBRr51s8j71dPgjA1syhstbw+cC7B7y0l7/wZVDrzTXIltKLoyS/IajlWXgFa8r9I3/gODgpJ0fxk+oaSuX8X8WsTrh78u/LNZYkpv1FsDx5iKze4KNGvPSWBVwGQ36F3RZGZ8rEVpsYmknkoGq4pG/kmad2Hk+eK5+C2rH4ThneWNfKqNu9N7rF/t15QOkM4xKgClRGDZ3Dp6z4kfdVrKMUSUmJiyT16Csx+PSr5zyP8h/bUAyaBNeLMG5MnMP1AiME2u4wwFkEswuBY00jrcQOprS6l0tkvk59/Iy4akWvyOBDgj/hOa7qfQ4xawM+IMekxMnYuJt/qf6P0iuV9EveQO+TdFfnVJZ7vkbaZvAvfJTNtHY6LEM7Gk2vQ1aiwxlaF25UvG4P3PHt973xr9R6/LpOXeb1PXvYp8Ka7eTAF9/KcvMqoxESTq/tluO7d5Fv0kEOMmkZ5YmjNGpDWvhMq/keUXBGpjZqSe/hd5OoyQaYLyvklReT9/l24mK9gVXJJia9Pngm/JVfyhbAAPJ2gEiA8NTM3kG/ZM+Tn5aR43mzSRHL1uwfEsuaDMMxDW8m39G+ySK1SxyPfbebthDVZ7xCjJlGeGGoMisrjk/kYSr1Yihr/ILm6XmRZChulX75KvpVfwQIcR+VCE/QYTq6kIUhrP7cWkua/stNkSr+FsfUDfGTgutGkdb4c5LiflDh7zTImUBbI8cNLCItBUI8L7gl/bICoDjFqDicRI9qHitBJidLJc+0z5OoGK1Cu06n0k5fJu/xLlCrrCxQriEFuReb6iKaAhpDPRV9gQ7psphsTxd4r0CdlBML1tW7XkWvAg9YoKgNVxmtp+BY9Adez1romzo0kMZxwNUwo0XHkuXoqIo6LpdIEpkmls6aTb818kKYOTDyiC95wrhyj5ZdtLg+2QBraIbDh2ErD+kTVAwHrYsPeHUvG7q8RDvOykvZi8whleN0P96i/YM8TpsXcRBSOxagCJ2mM5g0p6pLJ5O4HUpTrheT3V40dG3Eud0BZLf8kt8Gn8l5chn0ccB/yOe/tDZ/Lzk5bews8uhpYWScAfjdGX/pnMo9sdlxJTSJADN/yWeS5eBL8/ThUDlr2WQQz+yfSl09BosQhRk2BiaGvX0K8npir/xi4h9DnPvCUQPPgBvxNIWndL0eIaa2pVRG8XJO+dSk0Rw5pHYciBOYlm8qZihDAa3eZafMQyVzlEKNGgOKRpQ4Qaiqe8CxF6Xf/JWPtO6TUzyLPNe+R2qQX+QuPE6+sQyoim4ZtoTXiyNibQqWfPo30Doq68CHSulyFmglT/vFobGk+rgHihrB4XVVwxGdVgNBTYiAiwySFQPehsoqIvAVo0ohC+KNta6n4nd9T6cfXyc9sCfjtstJi6U0NTCMMGyCSRC0RIAXDIUZNgwmil2IrkVZ+tsIhhoOgcIjhICgcYjgICocYDoLCIUY1wtWxB7lH3ECugXeVrQseDPz+q/u8K8k15A5SmvTgT6yMWoTTj1HD8K1aQN65z5Mau5c8174ly0OfjXAshoOgcIjhICgcYjgICocYDoLCIYaDoHCiEgdB4VgMB0HhEMNBUDjEcBAUDjEcBIVDDAdB4RDDQVA4xHAQFP8z/Rjffr9Y9i2bN6UunTuSxxPaQmU5R3Np2/ZdVFBYRO3atpa/Pduxc3cq7dm7j2LqRFO3pE7UpMmJ32CtKYREDC7Y7CPWz0T17tmN4uP5x2FrFsMuuEL2F4wZQffeeTM1bGCt310VNv+UQi+9+hbtSU2jW264lm678Vo7p/qRiso9cDCT/EEm/TKxB/brTar6c6P9wSdf0Jv//pDatG5JD9z7a+rfN9nOqTmE5Er++/ksemzKS7Lxg9YGDmfnyHbseAGZ5X/poAoYhkl5ecfkb71e6zdSTxf5x47TzG++pylTp9FVk+6k62+7j/705PP06Rez5b4qYvmqdfTMi6+WlV357d/v/Zd0w/45qwrw+Xxyv7l5+bj/4OdUN0IiBt9gZtZh2by46f9v0HWdFixZRpNuv58efeI5+ujTr8QSrVm3iT7/+lt64tlX6Mrr75DPyqO4uJgOHz4i5cYWom2bVmVb65bNSZF1ls5OREx8skcqLCoWEuXk5MrGxwFwKy8uLqGCgkIqLfVKS+AWyOcdx2cm/p4/z+O/hy4oLCqy1vGuCP4e6AU+52huHqzAz4laXFIi1+V7KS3l1fh/fh0D91OEiuNr8LlHj+bJ/VX8ziI8w4effEmPPfUi7T9wkM4bMoCmPvUofTz9Nfrg7Wn0xKO/o+TuXejQoSy65c4HaMeuPfZfnoxb4cI+ePuVsu1x/J3bZS2kwvfCFofv41QWkT8/zufh2bnMuLy4LLhMy6P8ebwFe66qcIolXsLDVuiQL2fOpd179lJevrV6Xf8+yfDr11DrVi3EnH/29RxKTdtHPbomUVxcLH2/cCkdyDhEXSGwrp54Ma3ZsJlWrV5Px0CYAfC/N11/FbWA2CyPjEOZNO31dyh9XwZ5otw0YfxYumzC+VSvnvUWePaRo6jIL2jxDyuoblwcNW/WhPLzj0teAGyqN2zeSgsWL6ON2JeUlFIUrjV08ACaeMl4SoRIDYDdwdvvfSzpu26bRNdedZlUiqoq1KB+PMRsBxoysC+9+sZ0mj13Pr047V/09xeepDoQjqGAGwjfy39APi6bdokJ5K+EGGvWb6YZX8yivWn7qWP7ROrYIZEOgpAlIP/UJx+Wc4pAgvUbt9CXs+ZCV6WTC+QbOqgfTbx0vFw7VESMGN/MXUDfzV+MimgKs+mh7Tt3U8qO3eJ6pjz2IBWidS5dtopWr91Iy1euRaVGkaqptG//QTlva8pOfhtQ2M86Zm/6fin0S1DpLu3E4iS7du+VlsLWgAtlJ465Uq+54hIx+e9/9Bm99e5H5HK7pPDWbcykzMPZ9l9b4IqdNWc+LflhJbVo0ZTiYmNp05ZtuOdUmYZ71+03iOnnFvzqG+8KcW4ESS+56HyQ+Qeav+hHcuP6XTp1oAJYNiY2W4QfV67Bc+zAdfZQn14n/yg/k53vl+FyaSKeudKYyNP+8Q6tWrtBGgFbpV1oXBWRvu8AtM0ryEujRg0bCKEWLV2OZ2EL4xdisKXg8n32xdekDJkQh7OP0LsfzhDreO+dt1C83YCqQsRcydhR59HTf/mDmFbe2FowmL0VTV1mVjb9+Y/3028m30SJCVbrbNy4IT3+yO/o/rtvk4rm8HIfCqmiq0ju0ZUevP8O+tND94qiLygsFOvABc8hHlccu6W+vXrgPn5Pk2++TkLc8oiO9sDKXEBT/vKgfOdfHvktDT9voLid3Sj4nFxrkXi2AFzJ3bt2pisuvVDIw0ThCmEXM/Pb78U6pezYJRFE9y6dhUR8XBEzv5kH0fmibK++Pp2OgHSMVWs2gLybxfrc+KsrpewuGjda8sqDrVsqLEWd6Gi69spL5dl6woUxKQJg18z3lr4/g0YOG0SP/uEe+t1vbpeGtGlLipAuVESMGH1QEaOGD6Ee3ZKoW5dOZS6gqKiEssDaiuAb79E9iZo1bSzHndC6+/buQf37JVMrCDOGqPYKvrEhWktSp/Y0ZuR5QhIuGHZT+fCphzKzhCiM0SOGUu/kbtKa69Y9uZVw4fYDcUcOGyz3ytdr19ZaAO0YWiDfM+OTz2aJSxg6uL9YiDnzFkm0cN3VvwCx76PBA/oKcflZo2EluQz4ngOVXh7c0n9Yvlq2dZu2iA5i7NmbDktnUNuEVnBJ/aSy+X4qgs9ji8D3M3L4YLFIgbILgBsTNzo+b/jQQSJyO3e2rsVaiokTKiJGDC9YyQr9/j88Tr/745NlCp1FDz94MCj8r0IcryoqRbmr7rzS8HdxsdZaFfnHj1MW3MXOXallgjcm5sSCaRXB0UAhCPTRjK/o3gceozvuewRaY5vk+UE0vmf292yxuMK7JnWEC0sTN8aFfie0RuNGDcvCXzbPTBzRFeAxn1MRk355Bb3x92dle/zh31KzJlalrtuwRfZut1tcS2XgTi++Lt87u+FgyM3Np7R9+yX91xdepb7DJtBFE2+UY3Y9JkL3UBExYvwdJvaRx6fSkh9XwjRukUKtKQjB8E9sSwjim/XJ3157m/76/KvQBWslkqho/g9kWB1TXGGtWjQXdX8MBKwfXw8+vj7pPl1aJwvrpnYlbwK5uHIrtmRGp47taAysGG+DBvQpI26o0UIooS2fwuXA4EbD98ouqmWLZkLupk1D70GNGDG+mPmtFOI18H+zP5tO548eZudUH1iNM7iQGzSIl0Lglstgv1oZMiDMmLw+iNXfTL6RFn7zCV0ODVEe2Tk54sWiIUI7tG8rAjYHIS2bZwVWjf+WP+MK4K5r1hybt24XfZRou6VQ0NQmkQGreqrOrAR8L2sqE2Tl8DMYYurUgau1eoQffuBuea7F386Q7fVXnoGLCv23bMMmBodA7CYCW8AysBnjQmzdsoUo+srcx5mCO43Yl+6A22Bzzy2pIUjRpHEj6tShXVlL3LDpJ1Hkefn5VOo9+ZcFWRcEXA63ZL5Gie3zA4gCyRmBPgZ2E/xcPDTAIpX7WbIOH5EwORbkWLD4R3xftohp7teoiAMop/LlxpFYQCQzDmUdFuHLoT5HQxXB12RiFEP/zFuwRCI8tmrlUbduHIS29SrkjyvW0P6MQ2KRWJhz9MfkDRVhh6v/fu+Tk2L0CeNH0+03XSfmk0MvVt8/bdtR5jsjDVbXz770D8pHATIZY0EEFoF142Kpc6d2Mkh2KPOwiLzCp4qlUjMzTw5X6yAqiUchMv751vsS1SxbYf2SUABMNCYM6whW89wf0qhBAzoIgfsy3BAXMncucd47H8ygLahsJtOkX04UolTEbITzK1af+OUjFrtTn3qYBg/sI+KVe0jfmv4xzUXIz5FQRZw/ejh99OnX0ofBWm7Jj6tEV5UHW8wBfZPl2RctWSEE43rhRsAhLvcLBUR2VQjfYkAdc8UHtsPZR+Xzybf8SgqGP1u5Zj0NG9JfCjaSYJHXq2dX6WVkscitgfsvJl5muYHYmBh64L7Jcg4TYsXqdWLaA+Y6ADbLY+HquJNtw6atNPvbBTR65FA71wJ3HlmWpFQqql/vZAlpWfhxJ9PhI0ckbGRycGM4CpJy6MsVGAxM1vLlxiEl339iQhu6765bRKdw3w83qGFDfv5rz6wTnpvyqHQEtm+XQMOGDqCuiKjKg93o+WOGi9DlDrhl0E9fzJxLi5eukIiEBXuoCGl0lf11Zf6PO5KYENyRlbbvgPRkdu7YHqq7Efkg0Lhw2QTzvhStL6CM2eSzKfXhMx7oClyHb4e/jxU4PyjrFga3UL6GpmmSx30KXMHc/xHoWmbw03jhOrZs3SGmlU07X9O6nrtMg3BnGJvz7JyjIswaN2woPaLc6cb3wTriL1NepBlfzhax+MLTfxKXxURSUOjJ3buKad+HCj4M98IhJou98qOl/Pw+3RdUEPN53J/C4OfnUJvFLFc699jyvfD3RIGIgQrl5+D75mdRUQ6PPfWCVDxj58YlsmfwObmwqNxpyN/N1q59Yht5/lAbq/NeySnAvaq/uuUe6TW8ePxYuuO266VlqyhcFp8c2sbGxVQaPkYS3PB4HIm/ixvHHugr7uFcv/En6tu7J30y/TX7zMjAIUYVmDnne3rtjenSxdwUVrB3cndp6ZlwDVxwHNUM7N/bOrkasfmn7XT/Q4+LwObIgy0zi1i2PE/9+QHpyY0kHGJUAW6pPLzO4yMcBbHo5UiFhR5PWroKPj+hdUv77OoDa5QnnnlZJv+w69JUTXpLWY/cf/etp+wcCx9E/we8n7Yu2NttrwAAAABJRU5ErkJggg==;" parent="13cGQfRiNaTf8cITRQYB-69" vertex="1">
          <mxGeometry x="234.35000000000002" y="170" width="69.31" height="75" as="geometry" />
        </mxCell>
        <mxCell id="13cGQfRiNaTf8cITRQYB-57" value="" style="endArrow=classic;html=1;rounded=0;entryX=0.5;entryY=1;entryDx=0;entryDy=0;entryPerimeter=0;" parent="1" source="13cGQfRiNaTf8cITRQYB-71" target="ZIW-Bqu-6-VOcXZnvLO4-6" edge="1">
          <mxGeometry width="50" height="50" relative="1" as="geometry">
            <mxPoint x="591" y="770" as="sourcePoint" />
            <mxPoint x="890" y="827.0689655172414" as="targetPoint" />
            <Array as="points" />
          </mxGeometry>
        </mxCell>
        <UserObject label="&lt;span style=&quot;font-weight: normal;&quot;&gt;Viewer Request&lt;/span&gt;" placeholders="1" name="Variable" id="13cGQfRiNaTf8cITRQYB-58">
          <mxCell style="text;html=1;strokeColor=none;fillColor=none;align=center;verticalAlign=middle;whiteSpace=wrap;overflow=hidden;fontStyle=1" parent="1" vertex="1">
            <mxGeometry x="431" y="690" width="96" height="20" as="geometry" />
          </mxCell>
        </UserObject>
        <UserObject label="&lt;font style=&quot;font-size: 12px;&quot;&gt;User Traffic&lt;/font&gt;" placeholders="1" name="Variable" id="13cGQfRiNaTf8cITRQYB-64">
          <mxCell style="text;html=1;strokeColor=none;fillColor=none;align=center;verticalAlign=middle;whiteSpace=wrap;overflow=hidden;" parent="1" vertex="1">
            <mxGeometry x="414" y="710" width="130" height="20" as="geometry" />
          </mxCell>
        </UserObject>
        <UserObject label="&lt;b&gt;Users&lt;/b&gt;" placeholders="1" name="Variable" id="13cGQfRiNaTf8cITRQYB-63">
          <mxCell style="text;html=1;strokeColor=none;fillColor=none;align=center;verticalAlign=middle;whiteSpace=wrap;overflow=hidden;" parent="1" vertex="1">
            <mxGeometry x="344.71" y="760" width="49.75" height="30" as="geometry" />
          </mxCell>
        </UserObject>
        <mxCell id="13cGQfRiNaTf8cITRQYB-53" value="" style="sketch=0;outlineConnect=0;fontColor=#232F3E;gradientColor=none;fillColor=#232F3D;strokeColor=none;dashed=0;verticalLabelPosition=bottom;verticalAlign=top;align=center;html=1;fontSize=12;fontStyle=0;aspect=fixed;pointerEvents=1;shape=mxgraph.aws4.users;" parent="1" vertex="1">
          <mxGeometry x="332" y="670" width="78" height="78" as="geometry" />
        </mxCell>
        <mxCell id="ZIW-Bqu-6-VOcXZnvLO4-14" value="" style="endArrow=classic;startArrow=classic;html=1;rounded=0;exitX=1;exitY=0.75;exitDx=0;exitDy=0;entryX=0.017;entryY=0.401;entryDx=0;entryDy=0;entryPerimeter=0;" parent="1" source="ZIW-Bqu-6-VOcXZnvLO4-17" target="ZIW-Bqu-6-VOcXZnvLO4-12" edge="1">
          <mxGeometry width="50" height="50" relative="1" as="geometry">
            <mxPoint x="250" y="280" as="sourcePoint" />
            <mxPoint x="345" y="380" as="targetPoint" />
            <Array as="points">
              <mxPoint x="250" y="290" />
              <mxPoint x="250" y="380" />
            </Array>
          </mxGeometry>
        </mxCell>
        <mxCell id="ZIW-Bqu-6-VOcXZnvLO4-17" value="Publishing&lt;div&gt;Interface&lt;/div&gt;" style="rounded=1;whiteSpace=wrap;html=1;" parent="1" vertex="1">
          <mxGeometry x="-30" y="243.11" width="120" height="60" as="geometry" />
        </mxCell>
        <mxCell id="ZIW-Bqu-6-VOcXZnvLO4-19" value="" style="rounded=1;whiteSpace=wrap;html=1;" parent="1" vertex="1">
          <mxGeometry x="-40" y="400" width="280" height="170" as="geometry" />
        </mxCell>
        <mxCell id="ZIW-Bqu-6-VOcXZnvLO4-21" value="" style="verticalLabelPosition=bottom;html=1;verticalAlign=top;align=center;strokeColor=none;fillColor=#00BEF2;shape=mxgraph.azure.github_code;pointerEvents=1;" parent="1" vertex="1">
          <mxGeometry x="20.57" y="510" width="36" height="35" as="geometry" />
        </mxCell>
        <mxCell id="ZIW-Bqu-6-VOcXZnvLO4-22" value="GitHub Code" style="edgeLabel;resizable=0;html=1;;align=center;verticalAlign=middle;" parent="1" connectable="0" vertex="1">
          <mxGeometry x="39.99990869936323" y="558.9968297319431" as="geometry" />
        </mxCell>
        <mxCell id="ZIW-Bqu-6-VOcXZnvLO4-24" value="" style="points=[[0,0.5,0],[0.24,0,0],[0.5,0.28,0],[0.995,0.475,0],[0.5,0.72,0],[0.24,1,0]];verticalLabelPosition=bottom;sketch=0;html=1;verticalAlign=top;aspect=fixed;align=center;pointerEvents=1;shape=mxgraph.cisco19.key;fillColor=#005073;strokeColor=none;" parent="1" vertex="1">
          <mxGeometry x="170" y="443" width="50" height="22.5" as="geometry" />
        </mxCell>
        <mxCell id="ZIW-Bqu-6-VOcXZnvLO4-26" value="" style="endArrow=classic;startArrow=classic;html=1;rounded=0;exitX=0.24;exitY=0;exitDx=0;exitDy=0;exitPerimeter=0;entryX=0.208;entryY=0.626;entryDx=0;entryDy=0;entryPerimeter=0;" parent="1" source="ZIW-Bqu-6-VOcXZnvLO4-24" target="ZIW-Bqu-6-VOcXZnvLO4-12" edge="1">
          <mxGeometry width="50" height="50" relative="1" as="geometry">
            <mxPoint x="230" y="420" as="sourcePoint" />
            <mxPoint x="341" y="390" as="targetPoint" />
            <Array as="points">
              <mxPoint x="182" y="390" />
            </Array>
          </mxGeometry>
        </mxCell>
        <UserObject label="&lt;div&gt;&lt;div&gt;&lt;span style=&quot;font-size: 10px;&quot;&gt;OpenID&amp;nbsp;&lt;/span&gt;&lt;/div&gt;&lt;div&gt;&lt;span style=&quot;font-size: 10px;&quot;&gt;Connect&lt;/span&gt;&lt;/div&gt;&lt;/div&gt;" placeholders="1" name="Variable" id="13cGQfRiNaTf8cITRQYB-24">
          <mxCell style="text;html=1;strokeColor=none;fillColor=none;align=center;verticalAlign=middle;whiteSpace=wrap;overflow=hidden;" parent="1" vertex="1">
            <mxGeometry x="150" y="470" width="80" height="30" as="geometry" />
          </mxCell>
        </UserObject>
        <mxCell id="ZIW-Bqu-6-VOcXZnvLO4-28" value="" style="endArrow=classic;startArrow=classic;html=1;rounded=0;entryX=0;entryY=0.5;entryDx=0;entryDy=0;entryPerimeter=0;" parent="1" source="ikbKVhi1X6ugl7hC7fln-4" target="ZIW-Bqu-6-VOcXZnvLO4-24" edge="1">
          <mxGeometry width="50" height="50" relative="1" as="geometry">
            <mxPoint x="100" y="454" as="sourcePoint" />
            <mxPoint x="170" y="400" as="targetPoint" />
          </mxGeometry>
        </mxCell>
        <UserObject label="&lt;div&gt;&lt;div&gt;&lt;b&gt;&lt;font style=&quot;font-size: 14px;&quot;&gt;On-Premesis&lt;/font&gt;&lt;/b&gt;&lt;/div&gt;&lt;/div&gt;" placeholders="1" name="Variable" id="ZIW-Bqu-6-VOcXZnvLO4-29">
          <mxCell style="text;html=1;strokeColor=none;fillColor=none;align=center;verticalAlign=middle;whiteSpace=wrap;overflow=hidden;" parent="1" vertex="1">
            <mxGeometry x="-15.629999999999999" y="303.25" width="90" height="20" as="geometry" />
          </mxCell>
        </UserObject>
        <UserObject label="&lt;div&gt;&lt;div&gt;&lt;b&gt;&lt;font style=&quot;font-size: 14px;&quot;&gt;GitHub&lt;/font&gt;&lt;/b&gt;&lt;/div&gt;&lt;/div&gt;" placeholders="1" name="Variable" id="ZIW-Bqu-6-VOcXZnvLO4-30">
          <mxCell style="text;html=1;strokeColor=none;fillColor=none;align=center;verticalAlign=middle;whiteSpace=wrap;overflow=hidden;" parent="1" vertex="1">
            <mxGeometry x="64" y="570" width="75.5" height="20" as="geometry" />
          </mxCell>
        </UserObject>
        <mxCell id="ZIW-Bqu-6-VOcXZnvLO4-31" value="" style="endArrow=classic;startArrow=classic;html=1;rounded=0;exitX=0.394;exitY=0.012;exitDx=0;exitDy=0;exitPerimeter=0;entryX=0.967;entryY=0.583;entryDx=0;entryDy=0;entryPerimeter=0;" parent="1" target="13cGQfRiNaTf8cITRQYB-22" edge="1">
          <mxGeometry width="50" height="50" relative="1" as="geometry">
            <mxPoint x="550.1410000000001" y="351.116" as="sourcePoint" />
            <mxPoint x="430" y="410" as="targetPoint" />
            <Array as="points">
              <mxPoint x="550" y="276" />
            </Array>
          </mxGeometry>
        </mxCell>
        <mxCell id="ZIW-Bqu-6-VOcXZnvLO4-32" value="&lt;div&gt;&lt;br&gt;&lt;/div&gt;&lt;div&gt;&lt;br&gt;&lt;/div&gt;&lt;div&gt;&lt;br&gt;&lt;/div&gt;&lt;div&gt;&lt;br&gt;&lt;/div&gt;Existing CDN&amp;nbsp;&lt;div&gt;Resources&lt;/div&gt;" style="rounded=1;whiteSpace=wrap;html=1;" parent="1" vertex="1">
          <mxGeometry x="-30" y="629" width="157.75" height="161" as="geometry" />
        </mxCell>
        <mxCell id="ZIW-Bqu-6-VOcXZnvLO4-33" value="" style="shape=flexArrow;endArrow=classic;startArrow=classic;html=1;rounded=0;exitX=1;exitY=0.5;exitDx=0;exitDy=0;" parent="1" source="ZIW-Bqu-6-VOcXZnvLO4-32" target="13cGQfRiNaTf8cITRQYB-53" edge="1">
          <mxGeometry width="100" height="100" relative="1" as="geometry">
            <mxPoint x="310" y="660" as="sourcePoint" />
            <mxPoint x="410" y="560" as="targetPoint" />
          </mxGeometry>
        </mxCell>
        <mxCell id="ZIW-Bqu-6-VOcXZnvLO4-34" value="" style="shape=image;verticalLabelPosition=bottom;labelBackgroundColor=default;verticalAlign=top;aspect=fixed;imageAspect=0;image=data:image/png,iVBORw0KGgoAAAANSUhEUgAAAIEAAAA1CAYAAABm+4gzAAAAAXNSR0IArs4c6QAAAARnQU1BAACxjwv8YQUAAAAJcEhZcwAAFxEAABcRAcom8z8AABaWSURBVHhe7V0JlBzVdf2YxWAbY0ywwcE2OMZgBaTpqh4tBBtj1mMcxxiUgA8GbMAESEKMWQwYDwIkkLEgysx0Ld0zo2UkoYEQCNsxYISItl5nJLSwCSSBZJBAICG0zHRX5d5Xv6qXGcmAhiWi7zn/VHf995d67/23/F/TowYV7oLDVCJ3ikoWfqPs3N3Kzj6N8rbqWOyr1EJfudkrNGUduxTs7N8oN3+FcrJ/wvU1NWmJr6Y+56vpL/pq8jIf9S9AKSao1uzxysntp1vVsUsgkRupnLyL8oasdAq8/WlflIDXZPdcKMCFKrFof92ijl0Gicw3VFu3pZI9G1UnVnwbzXyeQocFeBYrP7ccK/9C1TLrc7pFNZoW76XaCgeqVP7rgRWBC+lYfNB26ev4mMHJ/EKlelaKsCl8J4eS9QOf38PPrmqBcCsxumt3ZS88GgL/N9C3Q2Eew3UhlGWFsjNrcP9lfF+Kz3OU232XsnI3K7fnFDVxwed1D3V8LDDxqQMhrA7VDmFT4CJ8XSYvhQJ0v6YS2fM0dYA7sgfDVVys7PyTEO4GcRGdz/tqCtwG+2hfBEVC4VXcCfqhZZnyDCxLoRd9PwtrcxssT0z3WMdHBjf9LQhzjqx+mvwqBYBA27qfUXZ6lKZWasK8fVSqcDkEv0wEOwlFXEahuu32Cl0LrUoHlIZjpnrWo22zaplbbWHq+JAwccEQCH6RmgJhUDiVwuKKdvKLlQWaEK2ZYyD82WoygkMGiLVttlt2QEdrMRXWIdXzgrKyZ+qR6vhQYBUOhxCXiALUCoYrPJmHuc5/W1MjVcxcBoXZqM15/zYslaucdHQP01C44ukKpr2gXQbqqERUAFof9keLklrYB7dzg1L+bnrUOj4wMHp3c3NFGLWCpABT3etUYsHIgBgCsbPjxOTXxgthYZ2kkBCqndsM+kW436XczHi4kmuwwn8F4f4aQeG1UKbxqJuMIPMp0L2C4gUxA9pTEfjZytwajF3HBwOfQs1MltVZa85TWJWphUXUn1OmTY+XVcsdwUpaFgpfLEN+E74/pNzsv+J65LvaO3Byn1Et6YMQWI6C0H+H8gTubRFrwT6ZbdTxAYEbPFxtFHilQKkQYhkylqYEbfoKifolPaykhfkWQeU2oV2iKnDcGTi5YzG/JMbbJm7Cyv6drqlj0CCbN4XVA5p13rOzz6vE3C8JrZM5Eav/HVGCSjpJ+3DPzT0su4rbA7eQ3Z7DEFgOg2sx8f1I1bL4INXl764pto+W9HcRj+SQPqZVas6++m4dgwI7kxI3UClUFq5sCtbKnS90k5cegPsL1eSamKEDbsHJb4bpvlJ1Ld5LaEPcOesLqnXB8VCOW+DvH4dCLUJZifI6vq/HdQ1W9rO4LkCZgjHPVcl539St+4ObSU52LNp8T9+pY6dhZ0eA8ZvLO4EVJTgImo/PnxFaK3Oz3KtM7fg92bNSteRPFZoQqWVfgaCuV05hqbiIGS/5aubK4Er/zuyA1+nLy9lBGETyXCKZR5BYOFH31h9Ns/bWn+rYSSDAy7XJ6V+l8FnECkAgVvZcoZTUMfdalRtg1O4UVlT5/tSyfVGHaD/7hrYQa+FC0vj+APqaBqvSjvp2tJkBC/QQ7i/Ad/SR7RUloEXilcqR7N6qkoW2+obRBwlr/uFg/oYBrQCFbcNMU6iEnb2pSlkYK8i28YLvSD2Rysch6PthrueB/rcQ9Kmg/Zqu3T547mCnT4BS/BKKNgVtV0hASgtBy+F2P6+a5/5QU9cxqHCyV0uaN9DOHVck9wGEDsGcnX0uChyZFaR6+rDCz5J6wsntqZz0aCjBSapjJ0315DRij/wZYjncwjo1cxWsQqGEVPMCTVHHoEBy/eyTgY+vUQAK2S1sxSr/vtC2Zk+T1Cw8Q2CbROY/pe6DRiJzFIR/q0oV3pAdS55o1jFIsLoPxUp7IwjEapSA1sHOLEHqFpz127nmSFnEcuSWqkRPkDJ+WJADrQLiicx6zPsH+m4dOwUb0TwFOtBhjyhBdobQdXXtDrcxO9gB1Cmjnf+51H0UcNOnQymRbuqMpY6dQDJ/fbATWKMAVAqeE9i5q4TOXXAIFGK5xAPMBqxs/iMXQMdLe/fbj6jjfcDN3VOV7lUqQZAaBiY3kTfhGjZJBiEpYe5yuV/HLgAnu7DfOQFLEPyVVEu6QeiYuvEec347s26Hu3l1/D+DnXkdaVd/JWBmYGfflD0EghaBMQIDQyv7iNwbZPgtQz7nTzt2f79j2Bdqi5cc+UXfMXfofvyO4/YWOrZJHL2/n0Bfjrmnrq4DII89O3ZO0Y5dgWs8uGtlegfcH+BBEPfz+TYwwT8qoduQ9KzwG7k3iOCEvKSZ9VxzSckxn64tXnvjkpJrtvpdowc8YPJHj97dsw3ba49Ley9lLvZsc/7mllh9l1Fj/W3mfiXbvNefNNz3O4f7Xiq+3rMbT6U78PopAEuQMq6KtmqdwnFBsAhrkMqfIPcGESXLmOrPGOn7kxoHLtNH+CXH6PFuH/pZ3aQKuP8lzzHX+tNGBPS4gv6VDc1HHqBJPvEotsZ+LrxJxX1YSOETFs4zzP23DJgeBlvIf5a/MyB45Gtn+XLIVmUVyu8VDgJgBUZ5rrE5mtxApR0TtoxlNPe6WRXEktjG1qiPyY1+yY7d6zepT2mSTzw8NzbGnwwr4Jb5Cp553CdYs4OYYINKzDlCekjO/zLuv4QYYi2uf/kc4D2glIjN9KdgcqHAOclkjUK0xSFUc/Um2zhYN6sClOgiUYDwAdEfLMPVuroOwE+a34OrLAmvsahoLeF+ZzDgyw54cETF4KZQ69zGoAduL+fmQDFeGcxdwl5n6LHw9VuiFQwhQnh9NOXQ0mKkBKiHj9/oWyMO1U2rULLjqUiRqAig70vEztDVdWh4CeMSxALLSsn4OvD9nneskX/N7KBzwDeJZJ8AgWAy8xPdHrTZiaB/QV5EHSSUrIb/EhMVCht+qmQbaShAE5ShFFkEXHGvz08apm4agcEilObxSAkC17EO9Edrku3C5zH6Jwzg0X5b7hxWsZjszL8P/DYRg0C+UpZr0pRUgpNRlqnWzFf1nZ1CX6txPDKCsh/nCmawAtMOjT0lFH7l1UvEfqSbR/BSsa/DSqzwO2DiSAulggIs8CZ+89OaBO5iKPozboP5GwPaMbje7rvG+X5TUxQzoM3BRds4D+NDAY0JUMIW3LNRmtHmds+J/66YiP0MY/yVbiLwEvEYXNU4KO9NoL3Jc+O3+In4NyRlRTqGoHcC2kxCn6mSExvbZw2L3obC/f0wl3Nx/06hsYwExr+OfWqSKpC+aBn/iDa/xVh/kLklMEcLc8U4mMcY3zZ+6dVkRd7EhgOLreY1Jcyt6MSvZXs864VBrZM5TtwBTX+tInBn0M7eHxACwVHyDNWS/lt9532DARsCt/uqYgEIEfde8FLH7CvBom30VilI4BL+WXcRwUs2nAQT5/muphVrEpuuq9W21thQMGetPwOZA8djFoKxwLizNYnyrIazYR6fF19JGqRQkml06jIV33mfc3SM9Da3MeKBZ8eb/bvQp7QDLeYBBl+C+T/kt2NOYVteUe8l4+/g+U7wrWGHQhizRXkraabSV4slO00PIehLGN/HoskIT4QWYw00Rz4/ngXKEZz+AvwsFpd0pLl7FNyu8XhQy78ItrOr5e8Ma5VAdgezL6q2p8rmnynjIPzOAJlQSpow71oBKEBMvphokD0IP2GYmOSmKiUAs8DcsmXSQJtL2FZoWCDIom1ewzrZHKl0FbQoVADHuFIaA1CAk8DcTULD9ppGxuZnKgbbhu2D9DN66xoWYJaMH9Y75lsIwF6S/tgP+wzbs+A+rQKU8BGmvtJ/JQ0/Qwkxxmx/1nF7cAyvrWEI+nxFBM0xSFM7x7APXqePpDV8CN9ls6xoxy+LeKDb0rKxLoCdfXDAQyRuJye7i8rJ9zPBOwPfb/oUTOSDVbEAJoV7K/yWxoOExjGPBKPeZFYQTZwa7ph3SicVgJanKoUAM+7hAY9hXSlhjosUhPVgBMZpl4aAmGzLeEJWMhkZMtaNdYGJ56Gfn5XshvtFWSv7sI2H2Z4pK9o/L+1Yp+egBb0ZdBu1YpQL+kHfGwNBGFvkc6jsYWGdbT6Dz7LgQNPmz9Rz1POk8onrdOJnoT4lrjW0hqy3Yss2/iFwXdI+4hEKxoM7rrA0Vvoi8f8D7RcEbxYlNOWgABM/Bea7bOpZkNdDeNdrEviw4Ydg4usiJWAR5psdmkTwHPw+HnZRJARJJY1X8Xm/vkT8RJjeXr9N1zFWsMx5XnJItNcAK3A4xnkayrUC7ZZj9a3yHLipip1JxBzcgyhnMIGA72Md0y7MuxzXQODop8+zYmPFpTnxRqTAnfIcoRJRUKDHvB0qa681bDgUqb1qNUNgGKPgNx23h5c6Yl8o7h9hOV+O5mgb/4sSpcveeLpQ48WID9Le7MHnQIkcIxvVYWwo2EbGLdJY0DznKwgQ4RIGOE0Mto9XK3v2gPn5e8WsJrUHAptHyEiZEEug1as8axjSlQCcPO6trlICmEKs7Hs1iWCLO/QwMGitMJA0AfMe3WY1DMN1SaT9uKK/NWBUVcbgdw3Zi+cM3Imk63hrwpAv0jroagGU9odYZeVMBcqEvtqkzjYukzFC4bHOMqZKQ42i23i+KEnYnnO0jT/ic3SuwYUhQqpQAii8PCvipz3kPKQJro3z5LlIzTnKVrGc5msRH7hgHPDZV7uRr1CydZU8wvzT3pSTanZf7dz47WYJ8nJJ+teacqeAlfgDBENexBCaxo7GEu71+1ErPEQh0l79YFg5s6pWqR37ezw8YgvdH0wdhPAqHnJ5pEDUfDe+CZ9/rJtVQQJR1/wHRuiwAp2wCl1UNox/G9p8DQKrjjlgWTDmr9gW40wUPx2O4xhFzLHKfZYsc2wkYBZYvaJlXqyrBWh3aRUNPiPgDN7lAND/nuDdSZgnspBYJ8afibH/G8/VDKt6VB+yJtSVFRVz8uyGZrbFM/2I86qsQ9uUdFyF9sLhEPrrA1qD4CWSZTv7+0PQ5L3A0EerrACFZptbMSmkVg0XFJ3YxZj8hZ7TcCmE8JysoJB2EpXAXOg1N0bnAb4Vu7GqPxa2CbWeha4G6ZNuUgUo0XdhZrsliqegWRirsAgjjQWY231Rf2AkTOk2mnlaNdTPlQMZ1oEG47zq/4dZtaOK5yvviGJu6G9Lb8Iov50NoM+yz6a7AF8wN/kbDrgsBIUIEqnUHKtyjgxSbWMx5jElUnq2x2dY3IvYHsH0deSB1LFgLuCzKHF/2JlbggCxJjYQa0BFyFyrKd8XEMDBrMbL2qoLBIv0Dp/5EJWF9yrohMm28bKXjEXvMmCVTY1WIguDHlm1FWOAWWDoZJpG3UyAFXQEVs8KaV+xAqV9eEXB/EpRX5gXmL5GXAh8Mvotxy2yeo18pTth/IF7C6WvkMYyluFztNegA+V5EU0wxnrZ/5gy9LNon5ZUMOQbFbLfHI1SxC9aJNvc1Gs3ylExPndKahjWOVBi2zhZBu8H/nmZnVk64JvHwaniWtU6v/ybBO8BTHXw8E9Eq6a28AH4kJWllkYewNgAxsvDyXsGZHo1817xLfNGrL43xSKU222BdQm2wDXAjN8Lc0nD8QPmPVC0Y+dg9Z2Jcc5Bu8fFSoQMxlgQ2GzuNPa6xneE+eFcqWyW6ejuBRIY2hWHY6KQiAcqdir9jhGHgmZ1ZG3II9d8kkrLjR95Pio36/CMGHMe+v2FzNFqOBvP0Sn9h3NEP5KiMvOhEjlmIeIRFxJSzcr4qz/s7Gkq1dM74HmCWIns/+Dze35RA/7tJ6VkvBwLsPAztXl7JVxhYREhGX19lik7bhL8uRUnh4GAHtPjPRg9OAuYD0bbrCO4kvF9iYzDeggaJnc5PlfvBkIRpP9w3oxLXGM862Bur40UhEXcVaza11vmmSLciEYsQZVrQr8/hmCK0XMEbkjmijneF1k6UQDzdd9tDN720vASQ4+C8pZ5i2cC3QOs25qAtbONt6t45JjzpOEO4eRulj82rT1d5K4iU8n36BZWTThkHwQzT1XHAiJQ7pxlUOB3Y+maQl+8KloBLDq1QjvJb8HM00VRwhVABiNQkzrXPFcEHNZBWFhBfw5dCa5D0X857QMtvvdUHj3PYnqGICxSJvYFuqLVIH/8gv7uEr/MOj4P3FqfPazKzGKOt0b+mEKir8cK1tWCYsK4SvoJFYVCtIxLmQlAMV+KLARXsW2s9BKjqg7wMMcxVdYqiIFkI4hBYaSErKMSWGaLNNwh+BavnZ8ZvV5eqQhMGVMLNysn865P6LByzxRhVQoUCgGm36HN4m68Vha2Q/DyL1WKwyLmNPZPrC/Z8VtE0LwfMk/Xee7Rh6D/8nkCC1ex3iXD92PB0HLEjCvoe6F8iLxjVyN+uQHfueOGvjVNoIBbMMYov0vtDiVIR0ogYyNPRzbB/gmeS6C/P0VKFCj+FijBME0iQN2k6DkxBsbd0tva0Mi+8Lliw0wUjdbuQe6Ioq/r8P0uKMq26DmED3G/r9k4nX1jjjfXKrFvGcFfl/9FNKcPQEbwWPCjVTWKIBtLhddVYt72/1pYg4c40Lz5tZpecs21ntv4LU02ILBCfirMofKEbQNTKb9SIgzmKuN9mkpE7b2p8L05Bo1GMgj6wCDSwFzj3ovexOGf59ho3xutspBJHI9B1N2jIAxzG+hXirVgHVeYYy71JozcZ2tr7Nswq29FK1AULPZoqMDEBmQxohhkvIxPRUH7ihdjdFzztAiKNOQN4wPuC8A1oW5VxLtwnvzOOXIHMSXZ1cvRM+J5GA9taxkmZxtUmKg9lRhppJc0h8vg7wp29mAEio/Kr4eFf3oWFmYLqe418hbyDgCtv0AYS2GRGSwIxsCwftu/tehDNhGkRChh2xkjKYjfB4dMMJUM7MI+beMFv2WIbDsTzKuFOWQCachovltnGZdzJYPZtigB6znHsFBYrrESzByHPteIIrF98Irbo+wbLuFsuc8+wzo75srAGn22cbwIjX2S5i7u5/MljjK8RPwozKMvokE/GHNuZA0RdyCWKlbNj4Xxh4vg12q4DfNcLEoh7UdSiQpcfFR2fF5ZzSMEjHpr/t1j2qL9lVPoVJOQMdAVVCnCElqE9SqR/qmm7gffaRiNVOxWrJobpdjmmKIbb6K51iTbBRj4NeS4N2DVjgnb85hWNpywysCgK/H9JqlzzXGgrZpHcJRrXgGBBjQsqTIdN52gjGdgZbSU7IZ7YDrvgwCmF12YWnfoYV5r/Ktg9BjOORy7T28E9bYYI0pJcyzvY56o4zFyrOpneXgIBqW5me2FBvSgqVo0PElkXTgGylim0roa6aPaDXM6GcK8A3RdWNn3l5xYV4njMTBOjvhy0TGvLmk+yBhOXP5A2GtrOBBzvip6ftQVLcRKowd+WXfHmPjwpyHoMRD4VkkfK88Y6BpSPVuVk79RNXXV/xpol0cLf2cgn5PXziUugDLY2eClVFqFVOERBIxVuXgduyK4dcyfn+EPUzN7CILEoATZxJvK7b5VtQ/O20d1fJzBn6qnMvBXT/lmMt0ErQEDxsBlrESaOU5+V6COXRzNjwW/JmLnO1USCmFn++Q0kv/5hD8x4+TfRt2D8stn/HHKOnZx8Gfl7HQcq/8sCH8sFOIelDyswipcV6tEbrSmrONjA6X+D8Jc3H/AKa/UAAAAAElFTkSuQmCC;" parent="1" vertex="1">
          <mxGeometry x="-15.629999999999995" y="640" width="129" height="53" as="geometry" />
        </mxCell>
        <mxCell id="ZIW-Bqu-6-VOcXZnvLO4-37" value="&lt;u&gt;Cloud Transformation Architecture&lt;/u&gt;" style="text;strokeColor=none;fillColor=none;html=1;fontSize=24;fontStyle=1;verticalAlign=middle;align=center;" parent="1" vertex="1">
          <mxGeometry x="134" y="120" width="326" height="30" as="geometry" />
        </mxCell>
        <mxCell id="ikbKVhi1X6ugl7hC7fln-3" value="" style="endArrow=classic;html=1;rounded=0;entryX=0.5;entryY=1;entryDx=0;entryDy=0;entryPerimeter=0;" parent="1" source="13cGQfRiNaTf8cITRQYB-53" target="13cGQfRiNaTf8cITRQYB-71" edge="1">
          <mxGeometry width="50" height="50" relative="1" as="geometry">
            <mxPoint x="410" y="709" as="sourcePoint" />
            <mxPoint x="549" y="570" as="targetPoint" />
            <Array as="points">
              <mxPoint x="549" y="709" />
            </Array>
          </mxGeometry>
        </mxCell>
        <UserObject label="Amazon CloudFront" placeholders="1" name="Variable" id="13cGQfRiNaTf8cITRQYB-71">
          <mxCell style="text;html=1;strokeColor=none;fillColor=none;align=center;verticalAlign=middle;whiteSpace=wrap;overflow=hidden;" parent="1" vertex="1">
            <mxGeometry x="493" y="585" width="112" height="19" as="geometry" />
          </mxCell>
        </UserObject>
        <mxCell id="ikbKVhi1X6ugl7hC7fln-4" value="" style="shape=image;verticalLabelPosition=bottom;labelBackgroundColor=default;verticalAlign=top;aspect=fixed;imageAspect=0;image=data:image/png,iVBORw0KGgoAAAANSUhEUgAAAe8AAAEGCAYAAABMwh2HAAAAAXNSR0IArs4c6QAAAARnQU1BAACxjwv8YQUAAAAJcEhZcwAAGdYAABnWARjRyu0AAKZESURBVHhe7Z0HYB1Hmfi/fU+9We69xY6d3itphHRSCTlC6Bx3wMFxdP5wwNHbHXBw9N5LSCEJpEMISUjvTrfj2I57V+9v/99vdj9p9fQkPcnSs6TMz1693dnZmdnZmfnmmxosXrw4FI/H4/F4POOGVPzr8Xg8Ho9nnOCFt8fj8Xg84wwvvD0ej8fjGWd44e3xeDwezzjDC2+Px+PxeMYZXnh7PB6PxzPO8MLb4/F4PJ5xhhfeHo/H4/GMM7zw9ng8Ho9nnOGFt8fj8Xg84wwvvD0ej8fjGWd44e3xeDwezzjDC2+Px+PxeMYZXnh7PB6PxzPO8MLb4/F4PJ5xhhfeHo/H4/GMM7zw9ng8gxBER5B1mLk7PB5PIQkWL14cxucej+elSpCWdGmVpCtnSLpskp7XSKpEr0urJSgu19vFEqSKtbpfpL9pkUyXhJlOCbs69FePjhbpaquXTHtj9NtSJx1NW921Wog98Xg8I4UX3h7PSwSEb6qkUtIVU6WoYpoUT5orxdVz9XqKpMunSlrvmXAOUilxBUOofzm6CZ15pGsnNO5YG8ckzGQko4Jd9OhCmDfvlK6WHdJRt0E6GjZKV9N2d93V3uTseDyeoeOFt8czQQkQxEVlUlQ9WyrmHC1lsw6S4toFklLh7DI92nMBtWKnsQcplfGBet0hHbvXSsvmx6Vl/QPSqVp62NnmtHmPxzM4Xnh7PBOIoKhUSqculfK5R0vptGVOww7SpapRp1CaldzZPVChqn/ji+gnVI077GpXIU/TuAp5FfRh2MUNHoiEsagwxu1UiSrtxXptD0c/+rBzJyeu31xRt8OuVulo3CZt25+Vlg0PSPvO512TvMfjyY0X3h7PuCZwzd6lU/eV8jmHS+n0/aWofIqToU5oZgtOJ6TVTLXuTGerhO1N0tXWIF3tDZLR30xrvcrqZj1aVHiqJtzVqU6gDcduOfc41APXVB4J/SBIayUh0vRTxRyVknL95tWSLtPD9Z2rmVYuxAl9Apil9VMhUPdoDehq3iGtW5+U1k2PSduOldLVsiu25PF4wAtvj2ccEqRLpKR2oVQvO1uF9hFO40bQ9gWBGLjmaAR0x+510l63XjrrN6qwrlNz1aQRxk4LRhCPNJHmTW84mnq6rFaKauZK8aR5eixw/ew07/fXfM9AOSoTzesfkMaVN0tH/XqvkXs8ihfeHs84oqhyhlQvPV3K5x2tgnCyE4jJZmkENdpwRrXmzoYt0rb9Of3dJF2qUdM0HXYlhfVewoVXhXlatXXV1E2gl05dIsVVM13FxPXHR7Yj0PC1AtLZvF2aX7xPGlf/TbXz7fFNj+elhxfeHs8YB2FG/3XVPqdK2axDJVVcHmvMMQhiFYgI6I461ax3r1XNeoObshW1cO9FQZ0HhM5p3iqgmaZWXKNa+eSFUlIzX1KlVd3vZ1BhybQ3ScvGR1SI3ybtO1drfHht3PPSwgtvj2eMEgnt5VJ7yGuldMoSVUbb4zsxyLSuTunYtUaaNz6kgnu9GjGVa2wL68HRIglhHaSlRIV42ewjpHTyAmEaW1KIQ7qoRFq2PiN1Ky6Xth2rvBD3vGTwwtvjGWPQ9F0+/2Uy6YALpahqphqkeoSW06JD6dj9otM80bQznW3OTG9iY4LBe6XcQLeSyYukfPbhbn56FB2JOAm7pKNhs9Q9eZW0rH+w557HM0HxwtvjGSOgaZfPPlSql71SSqYuVfnTkzUZhc2AM/qw27Y86VYvUzWTO5GFlwIaH0xLS1fOkvJZB2scLZF0SZUa9wx2IzZatz0j9c/d4OLJa+KeiYoX3h7P3kY1RxZSmXLk26R8xoF9mscZbd2y8WFp3fBQdA9N/KWOCmympFXMO8aNA2DgW5KUVoSaNc52PfJL6Wzcoia+mPNMLLzw9nj2Ioy0pk+7fO5RbrqXadtO026tl6a1d0n7zlVx07gnFykV3CXTlkvVwhMlVVLRo4lrpSjsaJWmF++RuhVXSKa9ITL3eCYAXnh7PHsB5jZXLjpJJh3wKrfIilvBzN0IpLN5l7RuelRat6wQFkpRw+ieZwBCp32XzzpMymYf4ipFUbcCcZ122jf94U3r7uk293jGM154ezwFJZCiyuky9ei3S+mM/VWO9Ez5YiGV1k2Pq7Z9hxtFjiD3DBH6xYtKpHLxqVI+8wCNQ1Zzi0CIM8hv58M/dZuleDzjGS+8PZ5CocK4et+zVdu+SILiCidonHEqJa2bn5BG1QozrSwD6oX2HqNxS4sGrRtl0/frqSTRlN7WKLuf+INb6MXjGa944e3xFAC07dpDLpOKeUerXImzXJCSzqZt0rz2LjdH2TMaBFI6fblULjzBrfneMzI9lOZ1d8vuFVdIV4vXwj3jDy+8PZ5RRYXHjP1l2nHvdht1mLaN8GjZ/Jg0PX+7ay73TeSjCE3p6RKpWnq6lM04IDZUNM4zzbtk+73fcpufeDzjCS+8PZ5RgkFpNftfKDXLzxVJsV2mChG07ead0vDsn6Wjcasz8xQIFdbF1bOlZr8LJFVSpQbEfeAGBdY/+UepX3mjGvnBbJ7xQXry5Mmfjs89Hs8IkS6fLJOPeItULz3LCQ2jdesT0vDcDb6pdi+RaauXtu0rJV1a6boyXIUqlZbyWYe4b9bOEqtuhL/HM7bxmrfHM8IUqRCYfsp/SnHNnO6BUmFXuzSs+ou0bX2qlzD37C1CKZ99mFQtfnm0ZrqCEG/buVq23fkVFfKNzszjGat44e3xjCAMjpp+wgckKKrQK5rJmbe9U+qf+ZN0sqSpH0k+piiuniXV+58vRaWTooGE+r26WutUgP+32/vc4xmr+GZzj2eEqFxwgkw99p0quMtjE3GjyBtUcHf5KWBjElZda9++StLlU/SodWas2Mayq52NW6WzYaMz83jGGl54ezx7SpCSigXHy9Sj3yFBmoFpEa2bHpH6Z2+IRpN7wT1GiQastW17SorKaqWocoaaRaPTmdbXXr/Or43uGZN44e3x7CHVy86RqUe+Nb5ClqelcdUt0vTifSoavNAeHwTSvuN5yWQ6pHTKPiqroyb0qvnHSlfrbmnftSa25/GMDbzw9nj2gJoDXiW1B/1TfKVlPtOOnvmztG59OjbxjCc66zdKZ8suKZm8WGU3u7cFbmBb2Nmuwt3PBfeMHfzegh7PMAiCtGrcZ0vtgRfHJiq4VWure/YGadvxXGziGY+0bX1SGlberB+U7g4IpPbQ17r10uki8XjGAj4lejzDoGrpGTL50DdEI5Qdodt2snPXaj33TeXjm0Datz8jdU9d0/Mp9TNPOfKtbplVj2cs4JvNPZ4hUrXkdBXcr4uvRDIdLVL35B+ko2GTXnnBPVGgr7uzfoOUTlmqCnc0F5wtR7uatktH3Yvu2uPZW3jN2+PJm8CtjT35sNfraZR1aCpnxbSOOi+4Jx6qge9aK/Urb4pnDCiptNPAS6Yuja49nr2EF94eT56UTFksM07+f1qmR3tE0+9d//R10sFIZL9q2sREv2sHc/Wfu1FSKrgd6RJNBx+V4uo50bXHsxfwwtvjyQMK6qnHvosZwJGBamJ1T1/jphD5GcATG75v2/bnpF4FuKrgziwoKpVpL3tvvD66x1N4vPD2eAYhSBXLlGPfKcVVM2ODQJrWPyBt256Jrj0vCVo2Py4tGx+NWlnC0K1dP/mof+nuD/d4CokX3h7PALDgytRj/01KJy92I8uZ+9uy8WFpfvFubsa2PC8NAml84XZp3fKkpoPApYfyGQfK5MPf7NOCp+D4FOfxDABzeyvmHRtNCdMCu61uvTStuTNqSx0J1N2Qptj4iM59Q/wekStOR+6DSdPqv0lHA0umIsAzUrnPKVIx//jotsdTIPyuYh5PP5ROWy4zX/6fWlxH/dxdbQ2y66GfqjywxTv2DDYwoem1qHyKBMVlKhe6JNPWrP7Uu/2+w85myXR1RELI+to9OYhaRBhIliqukHTZZI3Tmmhnt1Rawo4W6WzZ4VZPy3SOzF7d+DPlyLd0b0KDEN9622ekfdcL7trjGW288PZ4+mH22V+RoqrZ0YUWzrufuHLk5veqdlh7+Oul2LmfFMyWHVV7VEHT2bRNWrc9Je3bnlPB06pWfWNZhMaTxmFKhWfpjP2ldPp+UlQ5zW0o0hOfvSs87buel7oVVzqBPhKwhOqkA1+lZ/jDtLLVsuWvn3L3PJ7Rxi/S4vFkwQCkqUe9XYXCgfF1Whpf+Ju0bX1GL0ZGA06XVbvVuphulpvAhYNtKkunLpWyWYeolh5VJDKqmatKPmJhGVcgsItLNU6WS+Wik6RqySukdNoyjU/VtF1c9h8nqZIKad2yQuthGncjQFfLLvUzkOLahXoVSrpiiir/1dK69QkXTo9nNPHC2+PJonzukW4ta2uu7qxfL42rbtPzESqQtWBnv+iS2kWxgRp1NLrpZ/iBQHCCmSMWAghyNMsy1TI5EN4I8ZFqwh8PIHzLZh8qNfudL+WzDnYVm16Vn7gyE4YqnDMd9HO43yBd6syZNZBpb3bN52Z3j1A3Ohs2Ow08VVKlBqFWKpa4WQi0mHg8o4lvNvd4EqTLamXWGZ+TVOkkd53paJKdD/xEhaQKgxECQTzlqH/RAr/SXbO86uZbPuaayWnSTZfWSOn0ZVIx9xjXHBwUlUTaYpY2F3a2Ssumx6R5/T0SdiHER0AgjTW0ApUqLpOKBS+TspkHdQviblSAEp/EIXtyN794v7TvfN6NG6CCkyqtktlnf9UsS1frTtn10M81KqmYjQShE9ysumZhY7zC5r98UitXDe7a4xkNvObt8SSYfMSbpWzacj2LBGXDqltVi9rqzkeKooqpUrngeCeYGGjVvPZOaV53r162uy1F0agZ+NS09h/StOYOad+xSgVRxmneKden26ONl9QuUAF/gF6kVWhsV3sjLcTVL+cdf6KDf0Hi2uG8HEF/aR4vKpPyece43dtKJ+/j3tFA4w47GqTlxQek7qmrpe6x30nj6tukY/daJzTDLo1LrXBlOpqlpGauFE+ar0+Fki6ulNYtT0QVpRFBY6JL/dGKVOmUJc4krZUytPzWzY+7a49nNPCat8cTUzJtmcw85WOxkAhc82f9M39CUkQWRgBcKp11iNQsO0uFSzSVaUueo5RpFahedo5ULDxRtfPq2DSCSkBn625p1MpGx+51eWqWJnhTGq6Ue88gXaxHiasYsIpYoAKUI6VaJWa0DNgcZ5WATuPPIChVeHG40dxagXDCMx4p33uq1uBxiWAumbLI7dyWKtH37H4Xng1Ve66Xphf+Jo3P/0XP66JbA1A6fX+ZccpH9UzfT9+17sk/Sht7c4/gdyWMkw66xDWhR5edsvX2z0v7TnaZ83hGHi+8PR4lpcJwzjn/o4KKpmyyRCg7H/hx1Pw6gtAfW7P8lVI24yB3TTPuxuvfzw13PTgqZosrpHz+MVKrwqJIBXomawAWI+Lrn71eNdDGhIDCfT3HrgphmpOLKme4QXAs8Uk3QREVAkZiuxHtKujcc+jY+qy70D/JYDozNbDb0ZVCpUTPVIB1qhacUWHb0bhNOhs3uL7gTHuTvnineqPas3sifloFYErfZ9J+50lRdTzKP4Z1xTuad8ruxy+X1k0PqUbdqqaRb4NBpWPOef8X90uLtGx8SBqev80J8pGEFpXJR7wlutB479J33Xzrx12Tvscz0njh7fEo1SpQJx/yeidcEQoNz90krVuf1HMTSyMHK3LRBI7bjEzedsdXohtDBE28YtGJUrPv2e68W9tGM1bh1rz+ftcnniouV2E4001Lw990+WQJiitVw2ZZT95PiwBXCoxGUaDuJyoQaONhR7N0tux23RGdDZtUqG9xzdjlcw6X8rlHabjoO47CgoDvbNou9c/dIM3r7h5mP3Igs07/jBTHAwQ76jdqJeB37nxkCfUdjpSqfU51V1R/djz0Y2l64e/u2uMZSbzw9rzkKaqaKTNP/5zrYwX25d716K9U5iRGMo8Q+DHl6H+Nm6ZTqiHfILsf+218d3igNdceeplUzjvWadXdgk/Dz4A751e6OBLu/QpphKz7r/bi+64yoOcZmr6jSk1PE7ZiGjq/aOzOgUibdU3rnPT8ySL2T+3T7I4mTiWjp7lfb4Yd0rjmH1L3xB/2ePDXlGPeIVULT3Lu07S/64EfRv6OMLw32ne6fIq7ppUB7ZtBbB7PSOKFt+clD2uXVy44wRXsDMWqW3H5yC3GkkVx9WyZdMhlrpCnOXenChHWy95jVAjSBD7tuPfo7/xY2A6ACtsUwh1NuKtNulQLbq/fIJ11G6WzeZtbkSyj2jHCxzVtO4FuvzFOo3YS2PlPc36RavXp8qlaIZquxxzVdudJUcV0N2I+xVQtN41r4LARL207V8qOe76tYdmhfiYqDMOkevl5MvnQ17m+aL7z7kd/PWrTuRhcV3PQxS6uqJww6HHXI7+I73o8I4MX3p6XNPT7zjrzC1FTrcqg1s1PSsPKG/UOgmnkYUGRSQdcpEKky2nDW/72OWnb+lR8d89Be63c5xUyaf8LY002XjoUDbe90TVVs40pg9o6GjarRrhDulpVSLN62yBCdVhoBYGpXjTVo42ytSoj5IsnL3JN+KniKiecEahUaLram6X+yatU477DDYAbKcrnHCHTT/qQG2BHi8SuJ66QjlFcyrRG45/FdYBugk1o31REPJ4Rwgtvz0sW+lOnnfhhKZ95kBMeaJC7Hvypap2j18TJAjDVS06LhLf6v/HGD7l+35EGDX/K0W93c8nbd66Slg2PuBHWCOqxAgKdykzZrCPc4iZdrbtk5/3fj7TtEaZYKwyzz/yy07yJdwb0sTvYaFFcPUtqD3tDt/bdvP4+2X7vd0akFcHjAS+8PS9ZSqYskVmnfaZbcLdtelzqV90S3x0FtCCvXHSiVC54mfOTecibbvrIqGlkzDXmvZi2NdZxa5K7OBmdFeOKqmbIrLO+4rRujsbVf1WB+qCLn9GiZvm5bt11vjvvtumWj41KRc3z0mRk50p4POMFLbQn7X9+JLgVdp5qHOVRwVE/twrUGJpwR3N5UyoH40FwQ7SoyijGhcZ1r26BVJH7HqNJ09o7RZjrDlphoCtDT6Jrj2cP8cLb85KkZPISKZt9pDunEG/b/pyW7SPXx9ovvcpuNDLf8FUYsuN69IUoi8m07VwdVxJCqVh4ghTXstKbx7PneOHteUlSve/p3ZoXWlnzi/fp2egW6AweS2qXUROuz4IFgbhOJeI67HLfY7RpXnuXZOJvzreuXHSKO/d49hRfcnhecrDSVtnMQ6Mmc5XX7Jfd1VaAgVzqV9jZTikeXbrlR1mr3DPauDXhU3Fca/Rn2HFsdOtqDgbfte+IlkhlkGLFvKM1GBXu2uPZE7zw9rzEoK/7wu61wdF+W9wGEoXICkyFaozP9Spd7CoSntEnXT5J45sFbCCQsJ0lSwsgvVXbbt38mBvhDkXlU6Rq6VnccNcez3DxwtvzkoI1zKuWnB5r3YF01G+SrsaR3TVsIKI9uG3gVOhWd/OMPkXVc/Rv1ExON0lXAbfr7KhbLx0ujWmlQdMdUwWZg+/x7AleeHteUpRMXeo0XkcYuhHBg65GNoJ0tezu6fdW/4ur50bnnlHFbQka93G7rULbBt+NbKQIQ8ZU3MuZu2a/9miLUo9n+Hjh7XnpoJp29T6namEaTQ9jvWz2fy5kEyarnKF9OzQcJZOjzTI8o0ngVnVzW7AqXS27CrzTV+BWc7MV41iCt2rp6c7c4xkuXnh7XjIU18yVspkHu3NG/rZRoMaCvFCg5bOLVnSumrdqYH7E+SiTSktx1Sw9iTTfjoaNBf/umY42tyQtFUjCUTH3aLdwjMczXHyp4XnJEG03GTWZ0+/cuukxPSus9oOgbldtn4Fy4JYInXmgO/eMDmw1GsQDA4n/jl1r9LfAWq9617zhIRJedFlU0l2R9HiGgxfenpcM5bMOdUIb3F7STZEGXFiCaLBULDsQJmxiwU5anpGHylrN/hcR0bGBxCP+Cyy8lY6GDa7JHhj3QKXC4xkuXnh7XhKky2p7BglpQc6KalKARTqyQUhX0e8eVyLYbjNdVM4Nd+0ZYTS+kyO76feu3veM7qlbBUXTWxtzvqlIaNJj1zFmP3g8w8GXGJ6XBKxslSoqc+fWdF1wgamFd82yc9z+1g4txBnItOWOL7u1vT0jD2vWb73tM9JZtyESmkpR1SypWnKa3izcLAMH6U6/t41xYI5/5fzj3bnHM1S88PZMeGg6rVhwvNNygTWnC7+3cuh2mCqZtsydQ6Z1t+y4/wdu1Ltn9OhqrdN4/p7Gt43yD6VsxkFuO1L7FoWCwYpdbfFCPRqO8nnHaCm8F1oBPOMeL7w9Ex6azEtr57nCkoFKLIfKXN9CQhgmLT83vkIJS8v2e74jHfWqEXpGHVpadjz4Y0kVxXP8NR3U7HeBpAu8wl3Y1SptO1c5/xnxXjp5kaSLK+O7Hk/+eOHtmfAwRcz0KwrMtm3P6FkhByyF0R7ecbMtBXfdU3+Uth0ro2tPQWjb8rjUPX29i3+HVqDKXbN1YbXvtq2a/rQiCexj7qeMeYaDF96eCU/ZnMNV046bqjtapLNxmzsvFMW1C6V0xoFxgR1Ix87VUvfElXpd4D7XlzgMEtz9+G+ls35jbBBK+exDtXI3L7ouCIF0NW3pHuNAha587hHu3OMZCl54eyY0jO4unbZcz1RwqsIV9XUXUGiqpl+14ETnNzBYafeKK6ILT+HR77F7xeU9o81VeFbMP1ZrdYVLEwjuXv3vMw9xrQAez1DwwtszoUlXTneji8Et0NGwSc8KlexDKaqercdMV0gjKBrX3O763D17j5ZNj0rzunvd9+C7MIUwXcUMgKh1ZrRhZb2Oxo0uPQLdOkVlk925x5MvXnh7JjSlU/aJ9nJWkJ8ddevceUHQwrly8SndWhXKd8OzN2pACrs0pycLjf/6lTd2a9/MRqhapN/J+sILQPvONfo3qiykikqluHaBO/d48sULb8+EpmTKkm5hycYQHQ2F2/4zXT7FjSam1oCW1bp5hR9dPkZo37naDVx0y6Tq9yGdpEtq4rujD+urZzrjfm9Nn8W1foMaz9DwwtszoXEjzWPhTX932NHszkefjNt+1PwOuzpcX6ueuWvPXka/y+7Hfq8/PX3d0Q5vhfk+yd3lWPWtZFIhB815JgJeeHsmNEUV0+Iz1Xaat2vRXCjhmZLSqcu0ZI78Q9Nyq7p5xgxtO5+XTk0TESyiU7gNYqjUdTbvjK9Y9W1mfObx5IcX3p4JS1BUKqmyuCk0CKSrcVvUTFoA0hVTtUCOlkGNmswfd+eeMUTYJa1bn3LfB4oZXFhemIFj+NlFxSFOj6QXG5vh8eSDF96eCUtJ7UIJ0qXu3BWWrdGOToWgpHaRpOJtP9G9Wzaz/ahnrNGy4cHutpggXSRFBZzzzQ5jQVwEp4rK1e+57tzjyQcvvD0TFhZH6R5R7IQ3fYyjr3kHKg5Kaufr30gs0NfOHtKesUfb9pWSaa1z5zRlI0D5fqNP4CqTQSoqghnxXuz7vT1DwAtvz4SlZNICSmR33tXZJmFXmzsfbTLqZ7piSrff7CSV6Wx1556xRdjZ0jN9UL9XceU0yWQ6o+tRJtPe3D3iXD0v8EpvnvGOF96eiUkQSPHkBbH2q7qUCs9CbbvJvF2aQYE+9vYdq9y5Z2zStovtYaMWmVRJtaTirpbRhspkpiuq1LFwS6R5F2ZMhmf844W3Z0LChg/p0skoNK48ZGoO07UKQVBU5vyPLljVLV5L2zMm6WzY5LpVgEGOfL9CkKE1qAPhrQmU1pqyyZpciqKbHs8geOHtmZBQAKeKKYSjpuvOJtY0j85Hl6gQRmiD62tvKdxAOc/Q6WrZ2S00+U2VVutZYdJKZ/e+8qEEJRWu79vjyQcvvD0TkiBV7Jqvja62aFDSqKNlfjox3SgMuyRUDcszdsmwcE+8mI6mHLcyXqHItDXgpSONxu83KPHkiRfengkJGkyyCdKNKC6EMqWkS2s0AFGJzAjmMFOY5nrP8KDvuXvxHv1sqZLKwqQV9SPT1hhfqNdFJZpsvPD25IcX3p4JCcI7uZpapqMpPhttwl4aP32ZYYFGL3uGhxsLkRDWQTzYsBB0tavm3e23Fsde8/bkiRfenglJr0FHKkAz7a1OqyoI6axBR+q/Zwzjvk/PN+re63u0YZya61Lp8dtmKXg8g+GFt2dCkmLgj5WJ9GcWsuk644X1uCLu4jBsM5lC0LtLJRBWefN48sELb8/EJKAQ7Jbe8VEYwjCrmTweee4Zo7jvkxDg2d9vFGFAY3fa1CD4Pm9PvvhSxTMhyS4Eo37nQrSbB+pXzzaTcYkcn3vGIm6Od/IT9fp+o4lq2tlafrxcqsczGD6leCYm2f2WmQI2hXa29ChTKrj9whtjG6YV6leKLvS7FXIpW/by7oGKnte8PfnhhbdnYpLUdgs8YCzTzsh2k94pJxw8YxemaPWkl1BCvl9SEx9VNJ30Sp8F89gzzvHC2zMxoTnSykQK5kI1Xas3kfCOcJq3H4Q0pomWsu1JH12J7zfq9Eqb2YLc4+kfL7w9ExP6LZPyuoB9iV1tbD0aFcL8TRVXuHPP2MQtymL93Co8M8y9LpAG3GdshhvA5vEMjhfenglJ9nSfqJAshFYTRJtNdAuDjKTKJkXnnjFJurRWU0Zc2WLqVoF2nyM9hlktQn0GsHk8/eCFt2dCEu3dbQWjJvMCDhpzy23GwjvMsLf3VHfuGZukK6f2fC8V3JmCCW9NoalEk73WHwq1ba1n/OOFt2dC4lauMtmt2k2Kfs1CKN4KBXAY79OMpyU1c+Nzz1ikqGpWfCZuk5Kwq0DzvDU9phgs101Y0IqDZ3zjhbdnQhJpMJH0doPGillvvEDSW73tYsOJuEm0uGae+/WMTYqrY+Gt36urtV5/ClcspljGt7vpPNR06zex8eSHF96eCUm0KEvcj6lHqoR+ZyskRxuEwG79G/mXrpwhKXYa84w52P7T7b+u8L26WnclhOnoE+0dHuNmSPgBa5788MLbMyFxfZcdPftopyumFE52q0edDZu6hUC6tFK1uznu3DO2KK5doBW7eDYAmnfDFk6i69FGvUmV1VodUzLtzXGl0+MZHC+8PRMS+rzdSmdxQWzaVaHoUOHds3pWICVTlsTnnrFE6fT94jMU3y7pbNoWXxWGdLkKb0cQ97f7ZnNPfnjh7ZmQOM07MWgtXVatilXhlp7satouGTffW8MSZqRs+r7u3DOGUE27bOq+3dMK6ero1KNQsGxumjnmqN6aTjMdLV7z9uSNF96eCQmFIE3Xrt85DN1CKdFKWoWB+cId9Rvii1CKJy3UAtqvWz2WCNKlUlw9230faN/1gkrQwglP9py3fedJp7TWaMJx1x7PYHjh7ZmwtO1YpaVipHrTr0lhXTCClHTsXqveR1mMud4lk/yo87FEyeTFEpRUufMgFajwXtOdXgoBI83TxeXRhfpLevF48sULb8+Epb1uXXeTKKRK4ybKgqDCwDRvBSFevfzc+Mqz11FhOWm/8/UnEtZhV0a6Grdyw12PPqGbgWCpkXTaUbc+vvJ4BscLb8+EpbNeC0MbAJTJSLrAy5RmWuuko3GzngWucC6fe6SGwQYoefYmRZXTpWzWIfpdQifA2zWtdHUUcEMSJV0+WWxQIwMsOxs3unOPJx+88PZMWDpVk2IQELB2dVHFNFQcd10IGL3ctO5eztx1Kl0qJVP9wLWxQNmMA532DVSsml+8x1XwCoamQ5ce47SRaWuUzuad7tzjyQcvvD0Tmq7m7dEJhWXVDCfECwYa3c7nJYw1OoREzfJXSpDyA9f2KqkiqVp6hqtcgWsh2bW2W5gXBNJj5VT3C51NtNB4PPnjhbdnQtPRuKW7UE6VT1XtNxrdWzDCLmndvlKDEGW1UtW8y+Yc4c49e4fKBSdIyaQF7pzv0rrtGc7cdaFIFZdLqjTuQtH02VHvm8w9Q8MLb8+Epn3n6m5NN11WI+nyQm/PGUjrhgdVy4s2nHDa97JzuisUngKjaaFm+TnuO0Cms1VaNz1W8O+RqpgSD6DU81SRtO9a7c49nnzxwtszoWHurg0KYmBS8aT57ryQsPBHc0JAsNpaxbzj3LmnsFQtPlWKbKla/R7N6x+QrraG6LqAlNYu0mpdlB4ymS4/0twzZLzw9kxoOupelExcONO9WFw9l7Hf7rpwqPa96VEtpW3TiZRMOfzNUuT3+S4oxTVzZPKhr4uv6NFol9YtTxRc68a7Iq1E2viLjFbuOhp8n7dnaHjh7ZnQsF50246V0UWYcds/xmOECkpX8y5pXH17fBVKUFIhkw66REtynwULQpCWSQdfqiVeUWwg0rjq1u6KXUEJiqS4anpUm1RJ3qIViLDT9n/3ePLjJVRyUGL3V2oXtubtKSwtmx7RMjJK6qmSShWc8apWhUQLabTvziZ2rYqoXHiSVC89Pb7yjCaT9r9AKuKBgjRXt+9eJ61bn3LfpdC4dfbjZVGhdeND8ZnHkz/pyZMnfzo+32NCrQsE7FtcobXKGYeIzDpKZO7xIjM103DULhWpmt0jK6l5jtD+tf1nwR6BzVlkT//qBefRoX+jG46w92XeBD0eeMYSmUwkJJ2mk5Kult2xEC38x+ps3CJl05ZrMNAAQzf6vG3nqp4pbZ4Rp2zWoTL5sDfo544GLoYdLdLw7J+71wAoLKGUzThYSqYsji+7pG7FH1wLkcczFILFixf3SLfhkC6VsGahyD5nSWbSUknNP0GCyimk0ah5Muk6ZSWCUZWgsKVRwm1PSrBthQRrbhbZ+axIO/Nh9yw4Hk82aNuzz/m6m55DAkSA7nr013q+F9KaZoqy2Ye4Eec2z1jCTtl86yd7NjLxjBgMDpx1+me745oWmN1PXSPt25/jwpkVEvyvPfyN0QIt6j8LCW2+9eO+2dwzZIaveZdPlfCYD4oc+yEJjni7yLyTJZi6XKRIC8hsoZ0Ecwb/pkskqJmn2rlq5Msu0OPVIrOPlWD3apGWwu6p65nYhF2dUjxpjhvhSwJMl1RJ69Yn3ZKUBYcCu2m7BEUlbgBVZJaSinlHS9vWp922lJ6RoXTacpl+4gfiVg5F47557b3SupmR/5FRoUlXTHHzzIEpjM1r75SWjQ+7a49nKAxZeIdVc0VO1EdO+qzInGNViE/XVLiHWy0GmrlKqkUmL3GCPJx5kATNO0QavCbiGRm6WnZJ5eKT9SzQQjPlFsXoatJK4l7QvqhAsIMU2leaVbaUQCu95bMPdeadpH3P8NFvWjbzUJl2/LslRbnizFLSuuVJaVz91+h6bxCGUjp9uVYqtJyjWTLTJTsf+blb4c3jGSr5C+90qWSWnCfBGd9QDflo2iLjGyOMuhvU7qtC/CJKNNesXsg9dj0TE4R31aJT3L7eFJzM+W5jZa29IrwhlPYdK6Woapaky6OVtmjWr9IKRmfjJrcXedTv5BkKaNlV+5wm01/2Ho1QG1mu33r7s9L43A3x9d4i49JgmnFBCt+57smr3LnHM1TyE95Tlkt49vckOOiNTJaMDfuBPu10fDDAt0VrlZ3NWnq2iZSWReb5lJc8POcYCfY9J9LAaU73ePaA4kkLpHQyTefUEaulddtTEtquY3sF1cB3rZZ02RQpruzZpKJ8zlFSVDM7WvlrhAZ0vhSg8jPtZe+VatYtj1dQo5LWuvUJaVp1a88Yg71EqqzWtf7Q783RuOZOaWOeucczDAYesKYJP1z+apFjPiBSMcvKlr4gpLvaRTY/IvLinRJu0d+WHZLqamF5Kc1IaDpqJ10mYarUjUYPZhwsMu0ACRe8XIStGgfY0CcI2yTz0Hcl9dB39GoAix7PALAF5PSTPqLpOOOazhtW/XWM9DcGUrXkVCmffZg7j4xS0tW4RXarZtbC8qrkL09OmHZVueBlMunAi1VAalliLRb6nVlBrWntndiKzPYiFRrGqoUnuIoF6W/LbZ9zLQIez3DoX3iniqRz9vGSPvf7aqv/ebFB+w7JrP6LBC/cLME6W4RiCNTuI+GBqtEvOj2aRtbv1PMuCR76nsgjKsDR4j2eIUKT6qyzvuL2cqYs72rYIjsf/RV3Igt7kVA17IpZh7rdrlyrU0yQLnargO16+BeumXVva49jiSBVLCW186X2iLdJ6dTFbmCiQXzWP/NnaUc4xlPE9iaBhmHKkW9x2jd0NGyUzbd8XAPqv6dnePQrvMPD3inBse9TZTtH3zZlS2udhI/+WFLP/F7Pd7la7rChsCquknDeiSLHfliCyQv7SdPqx3NXi/z9ExLEGz14PENh0n7nuZW2aA1CEO586KeSaauP7w4Bpz0VuYpAumKqm47GXF1GkmdadkVziFW70sQd2c+TtBbu1fudKyU1cxOCWt0IO1VLW6kC6bpoSc+XMDQ5l887WqqXvVJKXDdITxwzgrtt5wvSsPIG/a7RVqxjgeLKmVJ7OEuzpjS0gex46CfS9MIwlB2PJyaH8A4ks+9FEpzyOS1JKmKzBFqIyHPXqhb8jdEZDa6JPDxAE/nBb3UCPRsq0eGTl0tw53+pLN+b/ZWe8UhR9WyZc/Z/O+FNX07b5iekfuVN8d080ecq5h7pVuxKlVbrdY+mjLuZ9ibpVK2eZVnbd66KF+DIV4iHrlJQNvtwqZx3jFtGVR2NbuGPVhrYgap53b0qxFe8dOaG67sjqMtmHSaV84+VIq3cEFc9caPlVluDNK27x/VxszDPWGLSfudLybTleqbh7eqQjTd9yA2i9HiGS9aAtUDCqQdI6twfawWxNDbrgb5nWfFLCe5Swdk+SmsCdzRJsPFeCepfFJl/goYwKxzkVaaSUWhtfyoy83jyBI24bOaBTlum4C+qmiltKgSH0qdcNvNgqd73TM0jxZEBAsQOhabudPlkKZu2TEpnHar13RbpYvqXCZoBQcsOpVPTd8vmFa5yUFQ+RY2pIETP43b5nMOkap9TpWzGQc48096oPyqw9qQFbCyhtfRUcZmkK6dL5aKTZMqRb5NJB1wkZdP3l1QJlXqLSy2zMp1u7nb9U1fHo/TjW2MEvl/1vmfoGWN/UhrWFdLotO4xFlDPuKKX5h3WLJLgkqslLI43iU8QSIeEN/yrBOv/oRYL008TzjhU5OwfiFTM6JPOg64GCW/+dwleZDCKx5M/JZP3kZmv0AooAlE1tqbVt0vz+vuj68HIdEnt4W9wu5NZonT7haPpFRWpUajZg/zRO8EivOmD7WxmAaIhNKVr+JhaVKZafvnsQySVLlFhlRDQep9lecNMh3S110v79lVuzW6a1jtbdmq4xs80SwaeFU+a5ypHpVrxKaldGE3ti/djT1Z+GPCVaW+Rlo0PaSXncQnbm8amKNTKVOWik6ViwXFR+DX9bP7rf7nd7jyePaFHeKeKJHzF10WWnpdd7oi0aoGDoNz8QGxQQGoWSHj6N0RmHNY3XE0bJbjudSL162IDjyc/Zr7iU1IyZamehW5Vs12P/FKF7uDdMAyEctt5qsZu1D31R2ll8xOET9VsKZm+nwqgA1TjmpwQtGiIHdL0/G2uuXvIgkaFQFo1OFYNY6GPaNBd1IyehIFRvBPaKM2ync1bpaN+k3Q2bnb98V2tuyTT2uCa8jOdLU6YFIbAadJBcbn+Vkm6bJJrQSiqnCFF1TPdbm/pcsYOVLnKkOvWyG5F4H01Djsat7jV6Jgn7/bizqfStZcIikpdenHdKxoHbVufkK13fCW66fHsAd3COzPvFAnO/5meOPNugkAN/vYxkWeviE1yoNqAVM5yA86CkmoJtz8hwbYnRNxAoCEXU32pWSjhq9T/MubCJkCBWfErCf7xqeja48mTqn1eIVOO+hcn5KJpY39RLe6R+O4AqFBBi6pSbcrmEjMOZOdDP5fmF+/tbn5nznH1snOket9znFC3fIBgalpzpzStu5srZzYk0Oz1p6RmtptaVox2WlKpJrjF0Te/0VTLPd6T34xWUhikR1N7Z/MuFSgrpJ4FTBKa7UiR0nefdPib3Pz6tJYNCOeU68fPdAto90Y5/Y7fRytMVDhad6zSis/j0fKywxgMuDdgClulTQ9LF8m2f3xTWtbfF9/1eIZP1OfNOuNn/p8KR63N90IzzsPfk2CFCvUchQKExVpwnP1DCY55n8jis0Xmnyiyr2rvrFWuhUSggry/Z/OmrU617C0SLFX3s52aNF+CtX8Tad0ZG3g8g9PRsMmtJ+4EnwqOorLJ0ZzvYBCBoPfpV01XTOtZWEWFY/mcI1xfOhteIBSpFLCCG3OMaQouVmHrBJQexZpmeaZzOE2nNJPrgR9tKsxaNj2mwvcZp1FTMXDCMV0cC2yDTKMi0gnMSNNGI0T7pbZe9+TVo7avNfGQ0bDRP+/mYGvYGUXvKj4ciQxNmFNxEzktA25gnlaIml64w83Xbt/9gtaTWuN3G/uCm4GHNcvPicdGaLqpWy+7H/+dvnKhWjs8E5n05ClTPh0e+g4VuBfoZSJDcLrlEQnu/ES/86rDqjki5/5EZPYxmkAZWGbPawZkUMn8U0TmHauCd6sEbmR6tuTNHzYsCVW7D6YfwFVkCOzNXFIjwZq/6MXw3fe8xFChEmq6rph7lF6EEhSXqQCrU61uq14PJhiitclT5bVSxMC3GAbBVcw7xrnBnGzsIWxaNkTdTaXT93dmUKICvCtv/wYAgdzZ4ga4ub7uzY+7LUY7GzZHTcoZrUDzTwU6grMbPWd1r+3/+N9R346U5nsqRmVTlmocTYlNI6Lm/Z0uvG07nnN7r9Mq0bzuHq38POXCFrVmjLe8ze5xh7puDmPXwz/zfd2eESM9eebCT8srVQAjcJN07Jbgj5eItA8wB/agN0qw/OL+8xWFRdW8aNew0loJNj/oCpNhQbPTxntVu3+lSLzQgUP9Dqq1ErHyutEbAe+ZkCA0Khe/XAVbtJYBU5EYCYxAGQynWauwpCm0uJo96qO+ZjTaykUnqDDdLB3162PLXc4uqxCWzdDKZyxES6cukY5da6KR4ntK7Cb96jSJdzVulnbXzPyECsRHteKwXzT4C9Rui2qy2+/+X63DFGYrSt6xae0dTpgVVc2ITQMnzHY98msnqDt2r5NOFdZuap3TTnmnRIVjHMHyu5MOeJVGdcrFN5WQ3St+n1fa8njyIV178IWflmUXUu70Zt3fJXj2yvgiB9Tkj/+YSHnPwJ3+0QTMyPGFr1AtfLMEdS/E5kNEC7+MFrgp1jtPhjddKgHTaV64OTbweAYHjS7TvEPK5x/trmnmDNubI6EbC8MBoelbBQ7zuZl3nHaDkjRhakWzfO6RqlXvUOG0NrKrtO1c6QRo2fRlaocEHEhR9axoi8rREFLuHUIpn3Woa9KPUI1729Oy/d5vF16Q6DtTkSifeXDcZK9ZV3/Z09pthZpPnI8H9PtXLDjWjZZ36GvtfOhHrnLi8YwUKbe2eNYgNa0mijzMOuIDwAYl05hjmgVN7Mnutm40BU/dT+Ss70h48udFJi2OzYdGau2tErKGehYMlgvLepowPZ58aHrxHmnfFVcmVbiwcpfrm80TRDDaYt2jv46FsBHIlMNfr9r1vvG1ou7XPXGFtGx4SC8iQVVUOVMqFp7ozkcDRjkzT9oIO5pk54M/cs35ewM0cPyPNGsI3Jx5BrZNFNw8fK0wWQWNMQkt6/nmHs/IkQoWqvDOZtP9IjsGWQBFa8m9B8WAZsjbPyryzFV6L6kax7i0XCJywOskvPB3kjnoLU5rHhJsdPLstVErZYKgapoEs9jYweMZGg3P3uAGe0G6pMqNDo4Sa74EWk5npGHlLW7EOgPKnGlRhUw/+SMqoHtmSaDt715xuT5hNeZQKucf16cveCQgFDRTW3M5+bX+2eulk33M9yLtu9dKw/N/6S4/0L4ZNR8Ju3GORjozGZgS5y5TgTQ8d70793hGklRQMys+jQhSoQRsNKKF0XAImjdL8PePuwVUwtbtubVw8mj5DAlO+ISEp39LpHpeZJ4nqZ3PSJjpndGpyIfzejQMjydfGMnMzl2AEC6btp+bUx0l1KHRtObv0rbjeSSlXtEHXia1h74+uhnDvOsdD/8ivoqoWXau6z8fSdy7zDhQfyMtlxH2Dc/d6M73NnUrrnBjDoDR52UzD9LYGu/CmxX7Zkfrrcdad9Oau9xKeR7PSJPKzi9hW7PI2lvjq+GghVamXYIXbpQUA96e+I0q5C3OuC8q2RefLuFFf5DwqP8QKZscmw/C5odEdq6ML3oIEwtneDx5o8Jt95N/1CQaJ9JUkUza/6LugWxDAUFU/+yfpLMxXklNC/GKuUdL1eJkC1cozSrkWffctHQWKnE7io2gACuqmtWj9adS0vzifYXv5+4HWiDcvPpY+y6umSdF5X1XdhxPMLe/Zvm53e/EbAYW8KEP3OMZaVLdXU9AObL1cVVFRqhZrX6dBHd+UsI/vkaERVtyFUwYVcyS4Oj3idCUPvNIDUdOSd+DBjrz9OXxRQ/B5OW0e8ZXHk/+dOxe45q9I2GqGpQKvZ5+y6HB1pSNz//FpVN3rYV3zf7na2UgXgtdcTuaPfgT6bKR5uoPWjIC3Jrw9wzc20/dirT5QCvKTMMaS9DiES22guArc8vWjlv0+5XPOcqtqgd0CTSsvFErcVvctccz0vRp1O58eoCV1IZJaseTElz7Wgkf/5Hrs84FldOwdpkEF/xK5Ih/14cGbkJMNTAiOL4wKmcN+pzH0x+7V/zONS0DArdi4QmSrhzeIEimQDVveLBHs66cKTUHXOzODXYEQ4CzqIoDATDrMKlefl4vQT8cWCaVfmTeg4yCEBlrc4yZj97VtMOdE85oe8/xCS0nFfOOiuObd1st9U9d6849ntGgt/DWcibVvDm+GGE6myV1z5dFrnm1yIvsqJNU+ROkyiQ86j0iyy6KDfqhSWu02Xt6p8tEapfEFx7P0KBJeffjv3dCFBCg1TRlD9IQlBPVvNB0M53RAkdO+973LLcyWxIWL9nxwA81LVt+CKV02r5Se+jrpHSKaqJxS8CQUL+Yb54qrYkNRFq3P+OaqscSjHhHgEcXYTTOII778QRjFar3PVtPTHEI3aBEP6fbM5r0Ft5koIEWZRkBgh1PS3DDP4vc+WmReubA5sqsRRIe82EJS3oKn2yClm0SZFriqxjKuamsYuXxDA+EaeMLt2la0sSk+aG4Zr5UzD8+vjs0WI+78YW/x1fqpFYGKucfE1/FqKBtXH17tGymFfbqb5EK+UkHXiK1B75aSiYt0GdLurX4KM8kD4hWUSuqmC4Vi06U2sPe1Gv6lVskZgzStr1n7AprnqeKxl+3V8WCE4QNVty30G/U8NwNGt9PRjc9nlGit/CmSbtzBFZ7yoPgqd9KcPWrRDbeQ7nTh6BymgTTWAq1HzpbJAhzrNZWxVaNHs/wqX/qGsm0N7mCmAK5SoVh8aS5Q1fA9XmWK7UV1NiIo2rpWW5gU29CaVh1q2y966uRdhwLaUaJ0/Q96eDXyNRj3i41+lu5+BQ3Mpsd0ZgGVj7ncHXzdNXUL5OpR79dJh/+Rq0gHC/pUva8jgnCeBnWsQfh6p5ap5prEE9rGw8QalpHogpZJLhZSY2tXz2e0aZPn7fb6acgqD9tuyW4/q0SPvoTyV6dVdKBhANlZJoZe422iwjdJgAez/Dpaq2TbXf+t4QdcZN3JiPVS8+WwK2gNlRCt+a4zWkuqpruBG5fQqcdb7r5o9K05o6oyTV+BoJ0qVsPnbXTa5a9UjXyi2XS/hdK1ZIzpHz24VJcM8dNSzPBD25rzY5Wt054Rx17C4w9Mm5ltfg9NbzR/OhClUF7RqqsVuP/dJc+gD3Ft/3j61HFz+MZZXoLb5fx+8jz0QG/SmslPOZDEhzwmr5d4F2hBB1ZzeJJGJiWvVILZPeDezzDoH3naml4ntHnsdAtn6wC/Ew9G6pgQftmvfQogSOUKxf0v6IamtvOB34kW2//grBjWNgVD/Akv+B1yM5gPQfX0RHbgUyHdKlGW/f0dbL51o/Ljvu+1639jzUYE9Bd3dDws9f3eIBR8tXLX9k9roCKEhp3x26/8YinMPSW1Az4KhmOdjF0wiUXilx2q8ih/yJS3NfPTOM2yTBtrR/ConLVsnP0jzVsjE88nj2j/smrpdlNrwpUNoZSMmWxVO5zanRzCHS27HQ7ZjlUyJbO2F/dGnhaVPvO52X7P74mG2/4oGy/5/+kae0/okVNuqKuIjedTCuvtJSFKgA7Gzc7jX3Hfd+RjTd9RDbd8p9St+Jy6RypaZ+jhVZqktWhVPEQV1zcS1Tuc7oWW3P0zNWapGndP9zUMI+nUASLvpxoJ1dRnvnjZZLenMdm8eXTRN58vxYe8bWjS4I/vVGE3b/6IayYKXLMByRY+koJ05WxaRaBahL3/68ED39XL3p50MOMQ9ziLm651SRXnifBYEu7ejx5UlQ5XWad9lkJ6EMmsat2yHKq7NbV3dybByWT5rkR5JEGztStzbLlts8MSSNmQJrbr7u4Qr0uigR3pl3daI7cQQMfZ7Aj2+xz/keDrmHXuG1adatWmB7VO936+NhC47h87lFSteQV3emhq2mb+5Z0t3g8haJ36YOcnG67D40wJTUSHnCZhK++VmS/f+pfcGeaJXj+Rgke/6le9CO4lUz5DM04WYK7s1WCer9zj2fkYB3wrXd8WULrwtECu2rpmdFa3AOkz2za6zdI2/ZVrrDnueLqWVK93/l6nf+CLKFq3eyNzfxw1gfvqFvn9sFmC9DxKLh7SArqMSq0HbS+LJGqxafoafTtM20Nsu2ur3vB7Sk4qV55RdNjaqkWKCPN9INFLr5SgpM/J0GFCt1cZZ6GI2jdKcF1bxL56/vdaPIBmR1t49iLlhxzvz2ePQRBuevx30VN1Qq/NSp4UyVUQPMU4Cpc65+7vrsSgNY8ab9z3UjxlzJhH2Gdf4WosETz0Gv2O48E4Exo/dj1yC979m33eApIKrvlL5iyLGoSHwHCiukSHv1+Cc/7hYS1S7XAyt3MGHQ1uJ3IwuteJ7LlYRXAgyxuoIEO5vfdhCTc+Zyw57fHM9I0vXC7W6falhul6XryYW+UdL7r8auQom+6Ud0xAUVTce3B/zSCS6KOfwo322Vo0H1Se8hrxda7ZyDjrsd+69aL93j2BioFszJLSZmEC18RXwwDMl+61O3wFVz4exFWSyuptfIqi4zItsclvP5fJbj9wxLsigf1DMaMw0WoZCRBc2/0g9U8o4Sm6/qnr5Pm9fdTcmPg+p9r9r9A0k4Dzw9Gnje/+EDshv6kSmTKEW9Vdy6UoCh7/vfEJ1vvHoukS6qjlhatsAHz0pvW3iWNK2/Sq7FZ2fBMfFLh7t5NPmFGs9OyC4c9Xzqcsp9kTvumyLk/lbBmsZPPuQhat4n8/RMSXHupBOwfPgTCuS/TGnBvLd61IKy+JbrweEYBFlDZce+33Xxs21CDlbVqDny1O88LTajN6/4RbRMZC3Cmj0064FUy45SPOQ3vpcRYF320tEw65DWSLo/WuKeFpHnDQ7LjwR+57+bx7C1S4Ya+I8ODmUcMvLoZhMwzzc56aZETPi7BPsyH7acZMNDn1two8ue3SvCMauZd0UIYeaPaSbD4tD7rs4SNO0V2xeskezyjBAU286Zbtz7tNDDEDwJ88uFvUg0tvznKzM9uWnWLtKyP9hAH8lLplMUy68wvyeQj/llKasfvJh1DIVvzHkvN5umySTL5sDfoL1uVhu57t2x6VHY99FNVSvouEOXxFJL05MlTPi37nhdfxrDAftlkCZ6/PjboC0s3BgtPFWEAWpLsTnRDc2lQt1rkwW9J6t4vizQPb7nGzKKzRA59K3mpN2v/IsFzV8UXHs/owYYarVuelPI5R0rKLUMaul+WUO3Y9YLT0POhXe1mOlpUUM9XwUBfugoI1ezckpuLT3Yjm5l+6TQ8N5pcE/1Awk2Fi5tOVlzu+uJxt3z+sVKz7Bxp3fZU3uEqJKmy6mjxG95Lw9++43npZNOhvdygni6rkZoDXtXTEqJh69i9Trbf/Q03wtzj2dsEi5cfGoaX3abCekpsFNPZ5LbxlO39L7CfOegtkjr5v/powX0IOiW875uSeurXIm3Dn1IRlkwSuVQrFBUsjpCgfacEl79y2BUCj2c4sBzpzNM+IyU1c7o1RqYM7X70V5JxW9/mJ4DoS6VPtcRt4ZnMTNR4VSCrGUK+vW69E2ydTTskbG/QfNehwpr1wCslXV7rRkPTCsBe5CkGVmlF2gUr0y4bb/iQhm1X5OwYgmVdZ5/NPG99b33XhmdvlNat7P2/t4R3NJYBjZtfQONmxb0tt39hTFaAPC9N0pNrKj6d0QQZLDpZ020iw5D5px0kwcrrNPPn2ABECVRYhoz6jvuDcrL9UQlu+4i6c42bhz1smA/7ctXYZx0VG8Sg6K+6UYJVGs4+6rjHM4qoRtyy+THVlJdKUQV5QAv+onIpm3GgdNZviuZfa8E/GKHmr7btz7g52wgMtL5oWVbSM0ekURerFlgyebGUTd9fymYf5tZIL5t9uJSrf6VTl6ognK3P67Nu5HrCX9XaG1bd4loMxhrp0ppo21XTvHeu0soJlfC9ILw1nthTvPag12g8RoMQ+Q50key49ztDWlDH4xlt0pMnT/50avcqCeafIuK2teshqGIhFC1EGFDmmu2y0Nq/PH+zCtRDVXOvRYVwGVBLCdWwt0nwyA9Fbv+YBPVr1PKeCdZw34tEjny3nmVl6tadInd8wm0R6vEUmrCjWVo3PeZ2+qKPlHTOdKLS6fupENoeLWmahwBHeHW17JCWLU9Ix+617ploJTUVxORBl680DzlV2g6Iz7vvqT3nX8LPsS6896XZXMsXDXf79r0kvDXu+GaT9jtf2AvdoeFhy1Kayrv2oMXQ4xkNnPBmbnRYv0FkuQpIKxMcWuOfc6SErXUSbGXJwr4Enc0SPHetyNO/V01cBfa2FRI8+C0J7vsfkQ13uya/PSWsXSJy1rc0tFm7jFGePfxDSa3uv2/e4xltEIpNa++U0mn7upXTEAQI3TIVBpxHi3jkI4w0v6nAyGiluH3HKmnd+IhrQnbN5KxprvfYXQy30Qixa4dzPtMZrcBW96ILE4LRoWEYN8J7x3P6vlTECyu8KxedGC15Gq94Rxy3bHjQrS8/FuPN4wkWL14ci2vNLC//goT7vVYzUmTSTWeDBDf9mxPGBadSC8MLfythzaI+4QqaNotcdYFIy/bYxNMfQZiSkDXjPaNGqrhSJh3yWqlecprKongaEc2umx93i7NEQmAYQikWbG6BGBUuNKFH56qRuzwRDWpDwLudxvTXrb9tm6jovY03fihqBRhjFNfMkznn/LdkujS+9B0bnvmztG57Wu8UQniHrnUDoV06fX+9jAoYBHf9s9dL3VNXuy1VPZ6xCB1rMaFqsd8Xac0hCIuqJXP2jyVcoIVBAffLDmccJuEl10lYnUNwdzVI+Pf/9II7LwqrxbxUyXQ0ye5HfiF1z2iaNeGtwrR81iEy+WDmCue7GlsWCGn9hgzqYsAU+0UzMA4tm0FoXa31atYcaefxwK9eZF+PJbKCVsipYumKaW7VtNLpB+CxM2P8we4VV+hxuRfcnjFNQnhrPmJTj2terym47wA1RtYGr/yBhMd9NDYZZZa9SuS8n4iU5ViqVUOd+ctHJHjx77GBJz+8EB9tENp1j18uOx/4AReRmf6mK2fIlCPfKqXTlnebjy5JIch3H7vfvre4LoDw1vhnjMKUI9/iRuj3fKcu2XHPt6T+6WuiSpDHM4bpJbwh2L1K5OZ3a+Ltu3hKGBaJHPxmkYsvF5myX2w6wlTPk8xZ35fw5C+KFPfVVFyX1KM/kdSam/WkcLX08Y0X2oUldGteb/37l6SLOctOc4aUsBlJzX4XSKq4LDYbJdhiM8Yp3mM2CfQO2OgGM5R0SYVbza5m37N6ig/9PuzUtvW2z7pFWDye8UA0YC0Lt5gKoysXnsJVZNiNXlfOFdnnNE37RRI0bRRpb4rvDRd1s7hSMgteLnLqlyWYfYwasWhFNprbVt8gwT1fGvrKbC9xAuI48JWdQtLVvEMa19zpFkspqpoVmwZ6Pl3Kph+g97dH08m6pcjIUVQ1Q0rdIi8ud0nDypu7dzQbSzBCP5oqppUNrWW0bXs67pvPLnf2DAb4lU5dIpMO/Ccpqp4Zm0a0rL9ftt31P+57eTzjhZzCG4LtK0R2rJJgXzJWNAKzF8VVEsw/QeSAyySTqpBANfWgcVN8cwjU7uMWe5HTvi7B/pfkbiYHVV6CR38swV2fEelsjg09+RIgILqF98gWjJ4ByHSqFn6/E9KV8450TejAdLJyppdVTJX2nc9rHqOZduS+S3HlTClRYWWMaeG95HR9f9JnIK1bnooXkxmpuGDkf7HUHHCRVCx4mRuMFsEAwLTsuO8HbmCabyb3jDcSo81zoRloznGSOeETEkxlNGZsnA2ClX20d62Urg2PSNCyVVKNG0TYopNVz8iMqlkzcjysWegEdlg5RwJGeE5dJlJSrZkndisHCJ7wbx+OFmKxgUBDhabL7uZLhUI0LkjHBbR9xtNYHEMMv4tD9wEpFEdOSHjyJZCSKfvIlCPe7JY9dSuKxeYs/tG0/j5p2/S4ftOufrNZ/oRuoZjqZefElxnZdOOHtM479gZ3Fk9aILPP+lJ3fNQ9ebW071qtZ3uWRt3TqSIpn32YVMw7RoJipplGMYvQbtv2jOx85BfSsfvFbnOPZzwxiPCOmbyva86WGYdoBTmHFp7AyUdyjpMtCBdO1AvX8aY3Uylnxw3utKM/VFOkCT+8538kWDPEHcOoKFTPk2DKvhKyycrMo0QmacUBAUgFgK6BrVpYblshsv2paJEXpp4VcLTrgJRN0QrOTFdpCtmkQitRMlkrOmwbqWEMmrRytP1pkS2PSLhLNTd9H1a8y7WKndO69WDDOK6C5Ep6noLCAiCTDrzETSeLZm5E6Q2BwvKnTatvl44GTYcD1WYHhQVH9pea5efG1yq8bxgfwrv+yaukbdcLejb8NBpoHi+qni1VS06VYv3trihRBnW2S8PKG6Xu6evcyH2PZ7ySn/CGdImE+71G5Oj3izDlZU/KlsGI8234wDcl9ej3hEVk8iWDRq9hDJae7rR9N8huwAoCeVqFOXNkNVNn7vmipFm1bS+RKVIN4fB3SbD8YgkmTdUChvAPXJAFqS53ZF58TDL3f01Sm+/vVfR1C+/oZX3X914ncEudTjvpQ1JcM7dHuCj0zbbvXuuauaPV2QauLOdGhfe0/aRmv3jDIa3sbbrxg2NTeNeq8D7zyxoHUYta3RNX6vuzIuPAaT4nYZcUVUyTqmVnS0nNPH3tnkKKNeDbdr4gO+76qnS27FYTnwk845v8hbehGm1mmQqWAy4VqZk/skKc/KoacMC+3M9coZqlasX5aMJa4IXTDhY57G0ii85U7bRkeOHCfwbCrb1N5PGfS7Dlwfz8HwFoJZD9LxMhXm2TmKF6TfgpBLc86la8k+f+qEaqpTuHMvpPBQHyuzCv5BkE1s+uXHSS1Ox/kVvTXCWYM3errHW2SduOVW6VL7dcKN/MtV7lA8J7udvsxK5ds7lbuWxswWYsbINqwnv3ij9IR906PcvzXeP8iaZdMe8o1yWRShXrG8eJXMuGrrZ6p9E3rbt7TPb7ezzDod8Ba/3S0SjB5gdUwN6k5yroysqjPmut2eZfuMRgnYPBbk2bRDbcI8FtH1Shc7VIM9sC5kG6VITKxDnfEZlygLqnAmpPhBOj3KfsK8G+54jsXC1Sv1bdG81mBmXW0RJc+GuRBSfr+2h87gn0SVTNkWDJGRLodwk3PxiNR6A4c/0Vbty5ZwzAoiosg9q89i5JV0yWoqqZkeChWySVluKqGVI26xBN4pPcgLdopzLS4uBfsKh8ilurG7DN8qiZjrE30JO9sqvcgLUoj7VtfcIJ28HfUeOI5nGNo8p9Xi7VS17hWjNc+ldowQi7WqV53T1uidO27c9GFVuPZ4IwdM27F5rByCyVMyU88PUSzj5WgmkHRgI1C5en7NB8GjY3SGb3akmzMMwDXxdp3KiGmrmGoOm61ZhO+aLIgaqtZqJMOyBmBS/y8SaVkeCRH0t4/9djATjyhMteLXLql/Qs19S4LCjPOPINPyq2qxB9QDItm/R1htME6ykIWvEtrp4jU45+u5RN21cyCJrENw5SKWmv2yhNL9zumtURXDyTm1BKpi6VSarRRzBg7SPxhh9ji2zNmwVu2usZRNbPu2meZzEVBv9VLTpFSmpma1z1dDvwXCqdluZtz8iu+38Qt1rkk1k8nvHFHgrv3oRorRf8xmmSvQhVY3jg2xI0aKZk0Yq2XXo0qADfpvIlmfHyJ1TNIjj5ixIuptbej+BGeDVtk5ANUlq3StC80/VtS1GZPl8rmdKpkpp3ggRUPvqNBb3x4u0iN79LgpGcW87As4PfKiE7pfWnbVN+EU/0Ydev0XfQ8/YGLcg1nlVT6yqqlNSsI0Wmsrxj9EgfcKNutWRu+TdJ71Dtwxn0V+h79jZ829KZB0nNsnPciPFoudD44yKsMxnpbNnpRktHc6J3x58z8U1Viy2bdWi04Ud8vfHGD47JeczFk+bJ7LO+okGkHAik/plr9b2ei961G31//U/rROn0A6Vs+nLNMrVqR/O9ZVy1T3dDy6bHpOG5m6R165PuvT2eicqICm+arMPzfhWNjE4QhM0S/v6V0fKrIwHC94zviCw81WXqvqhhk1YUHv6xBM9eqQJ7gDWKiysk3O8yCQ59vYQV8zSwOTRgyhH6j//+sSENnhuQg94scsqnXGNDH9S/oF0rGitvlPDuL8SVhtyfKUQDm3eiyLHvE6ldqiVctA9xLwh/0yYJrrpAKzDb1aVkwegZi6BZs1d3zX6vVO10sWYtmtN7hBGaeKajzU2rat36lHQ2bnZrcdPXm9L8UXPAxdEOZwproG++5WNjs9m8tEZmn/NVt/wyCbVDy4j6J69RucsSzSqQi8ukqGqOlM08wO1lHrjxLIl4cM3j7W6ufB2bmmxhnIwX2p6JT0GEN4InuP0jIs9eFV/vGeER75bguA8yuLQPQdgicsdnJHz+zxIMobBCCIbLL5Hg5Z/Ti74CPCjSYvHWD0tAf/weEtIyceFv9SxHMzZydcXPRR76jgRtKsDzbfIj/DMOETnvl26UfU5Zv/IqSd32IS+8xxMqnGhOrz30dW7OMok+e/MO14QuGelo3OZ2LiuqnO6EHmmHvvPdj//BabRjldpDL5OaZedpcDVDq/YctjdLJ61yRRVuNTpGaSQrLhBtg5qS5g0Pye7HfiudtOjlm1c8ngnA0AesDQTNWMsuduuT90YzGou8PHPlHvcdhzMOVY1VBWyQ1a+OPNq+QoLr/1lk/V3qT9/NVQbCjcre8bTImr+KzDjQjarvBZOk5x0jsnuNBLufjw2HAeMBzvmuSEXvJRod7btFWIzmsZ+4fdKHhoa/abMEz14dzQ+folp4dyd/zNT9oub6Df+IDTxjn9ANVmt+8W5pXv+Anjc44ZwurY7vQyS0UqWVbsUyBDagnbdueVp2PfoLtTK87qlC0LZjpdt5ze26RoUjXeyaxRmNHwnkWChr+cI7MWq+YeVNsuuRX0njypvdIjcez0uNAglvvVU+SaRRhcu2x2OTYaCCLzjzW+r+wtggBsG9+wWRG/5ZAkaHDxstOKjxv/AXkVlHuFHbvaBpr3aRCsirhlcYavyEh7xNZN8L9XkC3QPztOWGd0qwVisPe0JHkwhT7YorJJhzZHe5F6F+TlniBLxfYnb8kWmrc/3c7A3eWb9RhVyJCuwq/dUKYaKPmKZkmo5btz0lOx/44dgXbpku1/RfMmWR1i0na/i18kG65ZV4F6xoum5TO3VPXiW7H/6lO4/Whfd4XpoUqNk8IlDNMrzqouH3fe9/qWrdn9fKeFZzc8t2Ca68QKSZlalGhrBytshrb1KBndRwoEsy179N0uvviK+HADuxveZPfcPPVLkb3yGy/k69GJnPETLl6MLLJZhJU2tsCBSI6zTsN7zFnXrGM4HTUisXHC8Vi06WdMV0TUud0r7rBWl6/mZp3b5Sv/3IZe9RRwV12YyDpGrf06Vk0gISsWrZm6VpzR3SvP5erS9TYR5H7+PxjCIFFd5Ii2DnUxJe+0YJGHE+BEJWS0MYsdRpMsSZFpFb/kM11tv0YgQzNjX+RWdJeMY39JxlLGP0HcKtKyR1zatdQTkUMke9X4Kj3tM7mOpN8NjPRO7+XGwwglTNkfDVV4mU9W6iDzpVE7v8HBHWn/dMDDS9ulkImrjctKvx3P/r3oUKbhC/ix+A5vFkE7VJFQotT8IpB6hA/LpIeT+7h/XH9IMlNSPHlKjVt8ZNzcMrrEJ1N3PEuyVz+LtEmKNuUGC8cGPf/mH1Jph5sD53aGyQJ6W1Eux7ft9g1q0Vefg78cUwUAGdOewd0nXEeyRcdHpsGNO4ScLHf0OdqjfFFSL7nBVfeCYEml4Zdc3CL+NacIN7lw73Pl5wezy5KazwBoTfvFMkPPO7OfvG+yOcr89kdTO77jBWehsuKoDDV10lwdEflOCYD4mc92MRlqlM8rTezxJ+NDdnJi2KLvIknHGYBFN7P+O6KRkgN9y11NOlGo/fluDY/ycp1nM/S+N07onxTQglePZyCRt7L4sZ6mfPaKUle9Syx+PxeMYHhRfegMyYfZSEl/xJMoe+Q8Kq2ZH5AARTl8dnPWR2PCfBi3+Pr4ZCIOGS8yQ896cqQHumhYVlMyU85sPxVUSw9i8Srr87vopA5qUWnBJf5UeIVp+lRDAnd7jT51gLPbzkGq2AHBabqBnvwmptJTWxiYa/WQX34z/llXugAjX3BAnKp8YGHo/H4xlPFEh459DwMCqZJKkT/p/IxX+U8OTPS2bBK0RUQ2W5VSmr7TlKJ7n1xnuBMFLBKp1D32ggXHSGBKf9t7o7OTZJUB5vCmJ0tUm4SrV7VmszEH5T9olGn6P+53EE0w/s03IQdqrBbvYuHhrh5KUiF/5GZHJWhcbFaYV+1aymApZI1WAkCSqniVTPja88Ho/HM54Y/QFrCI0N90tYs0CCqlmRgMmFCmPXPK33w05U1IRFp+pmL5ySkeCOT0S7ZyXBEZrjmTLV0ncLxHDmkRJcfEXurrRMm8gV50qQJVAzs46W1Kt+p88kJaCGibnk+TY9s3dztgRlH/GrL1A3koHRiIiFalj/orjFKBKETAu65DqR2qzKDGD1ke9LcJ9WTBK4ed9vuafXam4EJfwri86MzMI5Ho/H4ykcWdJklOhqldR1rxVZ97dIwOTCCW090E6dtqpC2I4+ghtnVNBueyK+ipl7gsjrb5HwNTeIXHazhCd+KhKajkAyi88WOfu7uQW3eh48+iMJGECWRYrlVRNLMkboi6RKokVX8jn6qL56rNZwJgNTPk1CNOpL1fw1N6p2/Us3yt4IK2dJ8Ko/qMadW3AHxO+D34wNeggYyNTZe3Ec523t4ujC4/F4POOKwghvJAurf930DpE7PinSoAKyPyGeJwGSPluzPvrdKuBUIKXLVehNFjnojRIe+yEVilMlXHiqpE7/mkjZ9Nhygq4WCRjxze5muRZfYSvGnBJ/D0DYbnk4vohgxHsw9zjVrqskLFKhPeckt9xpOHmJhLVLRFRwu33L+yj7oQQv3CJy20dyb57Cpg/NOabmsYKVx+PxeMYdBRLeMRnVbp/6jQRXXiTCTlkplULDFOLZ8iujmnEmxeYGCcKUBIf9q4Sv/IXIWT/Uyxy7dyFEH/hGTo11tAmz+qbDdIW+SHwBvOSMwyU495cSnPNDkcp5fV+c+Nu9RuQv7xVp7WfXKPdM9oNKDiOPx+PxjH0KK7yN9joJ/vRmCX97hsh9/6PC57nITIW5ayknVAil5JENC6fQhx6TSqUk1dJ3v2KnME8/QO3neFXVsoNHVSiyEcgAhKwHnj0IDLLDONCRDYJz9jHReUyq8cWcdlntLZyUo4kbu+v/IcE1r3ID6/olXSxBVd8Wh6B1aAvleDwej2dsUJgBa+vulOCmf1UBk3tTEhXZUf9r9XwRRlLXLIymO9kIb35YVCSd0Kz1XnDXZ0Se+GVsoEpr1VyRV/5YguxR2LmgH5sNQB74WmzQP5nZx0vqwl9JmNw3nAFxTFPLZwMUwj9X4yR7M5LdL0jwhzP1ftRU73Y2O+mzEhxwWfTMgOj7r79L5K/vU417YCGcqZojqTff1XfA2i3vleD5P8UmHo/H4xkvjAnhnReX/VXCmoT2qfI+89iPJX3PF2ODiLBsqgRvuEm15an9C0AE/20fEcl3pPVxH5XwsLf3ci/Y+oDIHy+NrwYnPO1/4w1JYgOgL/pnh/baQcwJ8IuukNSsw/rvZndxqhr3Tf8ysMZtMCf93J/1co8WDvnVySIN6yMDj8fj8YwbEqrk2Caz9cn4LEaFYGqfc6KlPhOwB3Z4xWsk3LYiNsmCN37kRyKr8tzfmDXV5xzbW+hqxSHcPbTNVTIbH+oT20GxGkxeEl9FBKqFp7Sik3nqikjAZqN+BxvuleCv781PcCvsH55dEQjrNkjgt1L0eDyeccm4Ed7B7lVOcCUJauZKyPSvJKFq1XUviNzy7xLufLb3M10NIg9+S4L7vqLSNNGGPBD7v1aEPcQTMPU63HBPfJUfqbrnnWBOErJHOE3k2S/WskOCOz8p4ZO/632LboQ1t4rc+h95L6kaTj9E5KDXx1c9hJvul7Btd3zl8QwNW1qX3+y1CMAvvevxjC7jR3ivvlHlWO8CwWmTy1+tf/oWHqmGFyW49lIRth9NZSTINEjmmjdJ8MD/6t18CxZ1d/9L+ljnMrX5wegiT4LND0i4OWsvc3Uo3OccCWty7H+eaRe589MSPnOVsNc3R3j//4nc9M6ci8/kJEhJePBbohXqEuBW6vnr4yuPZ+gwQDSdTjvB7WZ66ME5Qjsp0PsT7h6PZ88YN8IbIZzZ9JCTp0mCOUdLeMAb4qveBO31Elxxnh4XiPzuHElvzxKeA6IF0WHvlDB7JTP1P7PyhqH3FaPpP88yq/F1TIBgPe6j8VVvgkyHpP6u935/jjtSD/8foYrvDk44aR8JFp2mfscGMWFLg4RbHouvPJ6hg1Du7IxarxDOCHMjW1gj2D0ez8gyfoR3V5sEj/9EAhZMSRBKkQTHvE9kXnI3rQQdjW4ZUmncqBdDEHzz1b2j3q1nWVHU2SSpx3+kFoZeIAVrb+2rNWuQgoWnSXjIP/ceTW/Q1L5rVXQMIfxuxP45PxApqY4NEjyr2vxwdzLzeBQT0PxyJDVuu0agmz2uPR7PyDF+hLfCKmKZVX/Wk9ggJiydLJlzfykhy6OOABlWMTvt/1SYZg2G09gK190lQX+D4Qajbo3Izf+ujmQtVZoqkeDkT0RN3NkvNwzCihnS9bJPRtPvssvMupUi935JT3xh6hk+yWZyzk3zNmENyXtJc4/Hs+eMK+GNwAnu/5pI44b4ugdXNLD86fyX29Uw0MJoyfmSuuCXffqJIWzYIKmHVKgPQ+vuZtN9bpevPhUQposf+yEJj1DhvgfQVC4X/FZSi17Rp7lcpEuCx34qwZ6E3+NREMYmvO0cQc11V1c0MNMEPL8ej2dkSU+ePPnT8fmeg2q67OJoVy8DIVW3ToJVf1LJ0nu09XAIWBylXY/Fp+pVVt2DTTyWnO36kUPWUnejqfPQMJlbzdrhR71HBeiHNVb6LqMaiGrLf/uoBAjfPYDCTHY+p+E/IwpvL/TevGMlmHm4qygEbXVaAuaxCAyVjspZIss17s/QygVbqvZ5bS1AH/m+pB77UXw9+lBom+bF4Kbi4mIpKipyv6aNJQt7cPGzB5gAsWNP3Rsq+JkdBtjTcIyWu3sK/nMQtvLyclm+fLnMmzdP5syZ4w4tX6Surs7dnwjwrqThifI+I4WlTzuHvZ02JzrjZ5GWLLoO/3dJHfN+Pesngai/wTNXS+eD35F0iwpyBoxReUDrpJJBWPXITN5XUoe/U4Jl50R1i5yx0SXh3z8pqWeyth/dA8K5L5Pggp9rcPrumAas/hpufFTC+78hsvkhSaGau3cgg+g7s1xrSguRsmkSHPBaCY54ixpX5G4USGlhv/4eCW54W+6NS/KAjJjMlJxboY0g5hcBzS/CuLS0VMrKylyBvnDhQlm2bJkrzGtqapz9hoYG2b59u6xevVqeeuopaWpqkubmZvdsdqbHL3M7FxYO7EyaNElqa2vd9bZt25ybFtZchYqdJ+/xLGHMfkez0x/cLykpkcrKym7/7Jn6+vpu9wzcTV4nwa7FK3aIR9w2+/y2trZKS0u0nz32B4qjQrBgwQL5/e9/L7Nm9SxbvGPHDjnvvPNk06ZN7n3GI8Q18UvcHnrooXL44YfLX//6V3nxxRfH/DtZOuIdLG9xZKdpznPlvWyS6dLOgfw+ZcoUl/e2bNniKmzmnvnhGVnGrfBGcIVHf0CCw9+uiaOfDEQ67Gxx067Cxm0iLXrotRRVOO00qJwiYYotO8s0VUaP9AE3nvyNBHd9Wu3sectBN1QgZh0p4TmqCRfXxIZZ4Ldq3gH7jLfskrBpq0hbvXt3YSW5mlkSFmnY6ZsfKPzsXnb96yVoR3BjMLxPnsz0JiQss/OLMEF4HnHEEXLkkUfKcccdJ/vtt58TPDyDHbNvGRp3eO65556TO+64Q+6880555JFHuu0ikLCLPXs2G3Pr5S9/uXzkIx8RTdNuJPTdd98tX/7yl+WFF14YVLBZQWT+8MszFEBWQA0Ez2D3xBNPlK985SvuHHiWwuz1r3+9tLW1db8D7uejwREujre+9a3ytre9rds+rReXX365fOc73+mOH377i6NCMH/+fPnNb37jNG9j8+bNctFFF7nffOJxLEK8At/0d7/7nRPe3//+9+X//u//xs078Q4WVvIGac/SC7/5ph1L5+QNIN1NmzZN3ve+98kFF1zg3OVbf/e735VrrrnG+bU30+REZnzmJkALvfcrEt77VU2NjZqqYvMk5Dm3PeikaM30OceLLHxFVLmYtFgFn5qzE1k/sizoVEF512ckuPvzamcEBTegIm96QIJb3yvSkHtDEhcuVcHdFqFV80VmHqnhP1Vk3kki0w6QsGSKhn8AwU1TORWPW98t0tHs1njhGC5kVMvsliE5B+697GUvk49//OPyta99Td7//vfL8ccf72ri1MoRNhxkeg4yOb9okwj8o48+Wj74wQ/K//zP/8i73/1uVyCYQMpHgOLPhz/8YVdZMO33zDPPdEIPdzgA93DLwm2/yffCLnb4TRZSA8F9nqWiMnfuXKeFciDIuAZzC3h/E/C5sHBYmGh+xi0EJMfs2bOdpsM9m7I1FgSJxaeRfT0eIY7h4IMPln333VcqKipcerU0Opax+Lc0z7uQDi3c/HLkk3Z4nsOe58A9WlYuueQSqaqqcq1tVJ7Jw6R/88cz8oxf4a2QcIJHvy9y9atF3ApseSSUPMqSgEVdGteIXHWxBE/8Qqvcw2tqzgs2N7nqIgm3PanyO4+WiXzCz9rtnXUS3PExCe78L5HGLSq0TXAMrzC1QoCMy7llSr4Bgug973mPfOtb33Ia5syZ0QYsVlgAv8lnOKzAMHPsUzh+6EMfko997GOuib2jo8O5PxAIwUWLFjkhaW4bxxxzTHd47V5SG+DXCjY0Y+7xDAUQ5jzHvaTgzYXZNXd5hiNJ8j0Js9nNhfnJkW3Xzq1SM5A7nj2H+CWu3/jGN7pKFCDIlyxZ0l1xGqsk0wfpj/fgl3Dze8IJJ8g+++zj8hkMlJbsHmnTzqurq+WAAw5wFXSD+3SVTZ8+vTvNe0aecS28jWDXSpErL1At+fOuNTqnFpsPPEsT9d9V4F35Kq0QrI7MR5mgbZcEV50v8ue3StC0XjNGfGOo6HNBWjPLil+KXH6uyNNXqCECZLgO9mCFAJkcgWLXZN7Pfe5z8m//9m/dfZ2WYS2DU1DQ90y/Nn2/u3btcn1iXJsAgmThQF8udhDcJuz6g+dwk+b3bHbu3Onu44cVOnaAhZWw//M//7P88Y9/lK9//euuQLPn+OXZgbD75q75BYSdc3PH3BwI7hM27FuFycxz+WVmnpGH9IswOvbYY7vTI61FdA2hhY9lSEMcpBXSEUKWd3nXu94l119/vXzpS1+SGTNmOLuW5gYCO2aPeCDPkffAnuU+5lYh8IwOE0J4A4u3BE/+QsLfnCpyz5dFtj0i0r5DSzYtOHlLE+p26LUzZyBY23a1/6jIP74g8ttXiDz1WzWr05uFwxXDTCG7UrXwv31EZO1tGoatWvKrQIrD2yf8ThnUDNOuwr/hBZFHfyzh788ToZnfLUqTBAfMkaGTFBgIIw6abb/4xS/KxRdf7JqLraAwQclgpQceeEB++tOfumb01772tXL22We7ZjY09P/8z/+Uq666yg1YSwpehPYVV1zR7Se/JuBzQaG0fv16ufHGG507VsDgP+5znu2WFTT8/tM//ZPrn/vkJz/p+ut5L6sscD/57EAk/bE4sHPuJeMGBnIveY/z5DVuGYQTN5Pv5BlZEN4nnXSSq+DxHYh/jrPOOssNwkx+j7GGpT1LJ29605vkyiuvdF1UBx54oOtusoGQvBt2BoI0ZumYikx7e7v85S9/kZUrV7p8iDtmZmNNPKPDuJsqNhhMrwq2PCTB03+QcMWvJNj2hASssNa6W0u69mgf7vr1IhvvFXnuWtVSfyGZOz4tqad/p889IgErsu1NGGC34ymNr+tEHvuZhBvujhaFad6mYWuO3qFpm8jmh9XO9apd/14yd31OUo/+UIL1d0rgVnDLFgp8BC1woovocg8g46Jx0FT+mte8plsbIeNyj8Lu0UcfdYOpqNnfdNNNblQ5o7/RthlpzqAWhDa1/9tuu80VLvQh0lSOEGbgk2X8wQoVE2z33ntvd+GxatUq+dGPfuQ0adyhwOEecG5N8bQIUKDRVE6fPHbQGG699VZ5/vnnndsWDns+G/OfMNKUev7557tr4Bne92c/+5m7xq69T3/uGdznILwMhLMuAMz4XbFihfzjH//obgIdqKA0P5N+m1v5MphdtFEqcvwajY2N8oc//MH9Dva83R9quEaSXP7SuvSWt7xFDjrooF73EeYMsFyzZk23Ob+FDv9gfll4+O5vf/vbndC29E9e+fOf/+xGzsNgYbc0xPPkE+zy7MaNG53Z1q1b3Uh8BqyRx82fwcCdocYb9i08+Tw3kP183BqOP/zmS64wQX9+5u/yOCSlWqtbkvTRH0hw2wckuPY1Elx5vgTXXarXH5IA83V/k7RbIWXs4bYH3aJC+qnfSHDHx0Wuf7NrXg/++KpoENqD33RCPt0+2O5gKjD4q2mAY08hMV144YXyhje8wSVOBIeZo/kiNBmwcvXVVzvBwuAxG6yGHQ4yNU14FIwIdZqqeYZnGcmbnVFyZRxL3JZBKIjMHZoFr7022vYVe+Y3dvmlsmDPW/iTcA+7PGf2DLNv5uYu5km7yfBmxxP2st3NJmnHfs3NbDfsGvjNvrZfwsFvrnfOxvwCnrEjaZ4P1oqRBDeSB2CPc8Jo4F+hyH5Hfkm/NI9Tccq2AwyKJNy50sRwMH857Nziw8zMPGk3eZ20a9fmBgLXzJJY+M1e0m3Ok9fYwb7lKX4R2Iw4J+/RGmfT6AZLZ7nCYv7YkXwP+02SDNtAWHj4tXcCnuMdLKxJ86TbPDeYH/aMnSd/k5gdg2v8T9rFP47+6P/ORIPR6ayL3qnaK78FaAUYURidzsA5tG+mu/E+wxx8NhwssZHA6DP713/9Vzey1BIrB1oswpcpNDavNzuRgj2DWxR8CHKu0cS//e1vuya4JOZ+MmEn/bVMxy9+ouUx+Mz8x64d+EdGheTzdt8wMwO3uMa+nZs5JO3mYrD7IwlhROhYOPlNhpnf7PfIhdmzeOUcs4GeMZLxZ/GdDfexxwH4kR3v+Fkoku9KGLimgsmsieTcdQsTdhjwNXXq1G77/A4WrwNh/psf/JJmzb2ku0m/LO7sOUjatXt2n3vJw/xMPpM0Iz3ZOW4ZXGNOHsbO7t273TXfnOcHw8INPGPuJQ+wcCXd5Dxpbnb7g/tmHz8tTiwMdo4dDjs3t83OYNjzViEwdww7zzYzf+yaZ5N2snnpCO+XOvmMxB8AK0DIpDQhMg0ELHGR0GgCR/iifQ/UXJadASxj8AwD1dDSAT+5Z/cNS+j8WrjMTfvlvj1vmQi4xhySbmJuz4IVJNjh1wqvpH8cnCfJvi409g68v72fhT8b3gV7A2Hvil3cy/XOuUgWRMmC37B4NHt2z57J15+RBn8tbBx0AZxyyinuHuaAuYWP0ef0fSfN9yTsybRq/pEvMDd3zW1+k2nYSMa9fV9+LS2DhZMDczsM+94c2LEw4E62WxYOfrFj8cev+Z8L7HCYHWuG5yDN2H0Ll7lp58n7ZmcgeNbctyPpth2WV+we15xjn/cbCOzY++CW/Sb9ArsHmHOdDIvFNc/1x4Tr8/bkQhOKfodUqImBy/7TQ7+QiDiWLl3qFkJhTieJzBIqg1M++tGPupGnloEHSnjJZ0m0yUxh9ziS7iR/OWhyR+shLPTBc80vzfScc9AagPu4hbvmBoUuBTP2WdyFfkDADn7ec889bsAbbuOe/eIm2hgFjWU63MZdzomfZJ830Of9i1/8orvgGQrmLnPoGe2c5LHHHnN9rkl37R2pADFVx8LOWALMbEAf2G9/4BZxRFzhDodN38v1Lgx+SvZ5Ez+McWDwIaP+LUyM5GdKIOMDmN5n4aSQxD4QNksfhYL3tXRoccN87je/+c1OeBEeumbo1yUdYAdzpkYy4JE4sfgfDjxrv8QF341xIMzrp7JM2mKlQuKMQZXEGd/C0jjxy7OWLi0O+S58N9yjmZ9pldzj4H0YK8L3MTt2cM370YoFJtRI/6QJy2OW9yx9cA64PRDJeCLMXOM2gwAtjfDOnGNma0aQhm3BI96PbzZYvFt4CR/fyQQyz9o56ZC4IV2yzC8tjHxbW0+BtEl8D5Yu7TsCz/EMeYJviPv2TqzbgNvEH2FCcbH3IDyDMX5XWBsq6RI9Sl0YXSWCpvO81g0fG6RSWhMrLpNUERlUa5odbdLVqfGZSCj9ozXKQIVMho+hwmCYK7WQoD7zmc/I6173OpfoScQkNhL1f/3Xf7mR3ZiZ+WCQaazAAX5xN5lwMUu6xz2uSeD0ub/iFa9w7nAfMw6DjE4/HELYwB7N/axWRsFMAbP//vt3zxEHMtITTzzhlm81N3nOwsJgOAagsXKa2cecsFE4/vCHP3TmBoN5COdghVk29k64z9x3BggmoUJA/6K5mwwrhc7nP//5bnPMnn76aWffujuIa9zmfi649453vKO70oA9nmUhHSoO2VA4/epXv3LCBvCDQUuvetWrXMFLHNB3fNhhh7lrg8J47dq18vjjjztBQsWJ2QOkDeK0v/CNNPhj8cGBAKML6OSTT+5Og4TvwQcf7PUtbNAj5mDpE/sDYXbMHte8LwKbfnZmPhxyyCFuzQGmc+GuQZwxoJLVCPkWHM8884yzYwdCg8otg9QQhHxvBt2ZMOIg7xDvNHcDYcEccAN3+abkBb4HaY057u985zud0Eliz2KPVjiWyk2GORfcJ85xiy4I0hrvjQBF2FpYgHyMksA7k0buv/9+10UGA/lDuBhdz7sTB7wTeZRn8Zu8cuqpp7rvjN9cJ92jC5DBoawASd8+aToZrmzsHm5TWaDlBrfxH6FNuWRQdvId+XaE68knn5Rnn322u8KEW5Y+spm4wruoXDIlkyRYcLIEk/eRcOoBItULos1AGFFet0aCXc9JuONZyay7Q9KdWuOnL3mMkCoqkeKyKpmy+HCZsuAAmTL/QKmavkBKq6dJprNDmna8KHUbn5P6zatlwxO3S3vDdulsa9YPnbvGFgYq9FR4k6wy/ae7fiEBkel/+9vfulqpJSgSF4mO6VYUFlxzDFboJhMldslUXNtzZB7O+U0mXu6RKbD/hS98wU0/Gwgyjo2kBdxiWhvN+wiTJNyzcA0UdgoPFpGxwhK7hJXnRlp44z4FbL7Cm2c4KCSuu+46J4AMCjyb1mdu89sffE9GDWe3JCDQGY2fTVJ4m7sU+r/85S+dGwiQZLxiJzue8ZPphTxD+KksFAoLj8UjQsoGPfJ9SXdMb+R78p7En9378Y9/7NY7sMpo9nv1h8UT9nH/3HPPdXnpqKOO6tZgB4PvT4H/97//3S2Zu27dOpc/CBd99XxDhJJhfsJg4bzrrrvk//2//+cqU6aFk8bJP9nCOwmVWyr0xMdAUAlhvXjSFC1gyUod9BeXVDYQpsxo4d3tW+QCN6hIWCWUlrBLL73UjbGhLGNlRoQrU+aS8ByHuU0+JD4++9nPOoFLHGdjaYdviWZNOUHeT8aVvZP9JqFyQqWEZZ2ZMpvLjtH/Gw+brMKASxWk+lruclQhQqbsJ+GJn5HwNTdI8PpbtPT+ooSHvl1k3okiNSq8y6fq70ItaU5Rc61QnPoVSb3xNgkvvVHC4z8umZpFsWN7h/LamXLAOe+WMz5ylVz4pb/Jyf/2XTnk/PfLvMPPlNq5+0lZzTSpnDJbZux7jCx7+RvkyEs/Ked+6s9y/udvk+Pf9k2Zus/hkkr37W8OQi2o9RNkfZ28oVBFY0IrsARlieqGG25wBYUxUIIzzD52yRx2ncyE5gZ2kpj7ZCYjaSf73OybORmLw+6Z39lhtvvZYJ8D+0l3BwJ79gzwngM9xz3sEM5k/AyGhSlXuPiGRq77uSCOs+3l85yFgQofC/iY4B7MLQQEXQQIQgpVrrGTjC/cGQ3MXfwh3rOn/KEl0U2BIHv44YeduYWNvEHrjX3j7PfKJvkunFPJ+tSnPuXeGy0QwZ10g3O7TqYFzBA6aHVow1TweNbSDQKG727Pc9h7JsOJm3YOZpfvj1v2HXiGa8t7mOVKmxYPhrnNL2Eydxgv8I1vfMOti47gNntGLjcAu1R0mJnCHHyrwCb9TT6bTPtUXqkgUcFFSJ5++ukuDpNhtHPcsPcjDlAGWEky+1vzy8E7Ado7laZXvvKVTnAnw27hSpqZn7SyUNEirSXv52JkhTfN0WzD2RNnaqZHrQpNmq1HkbBEE/vRH5Tg0htEDnqjatkqoFNoHfqKhCE7HrrNtPaEvSoN46Fvk+C1N4sc9T4RttgsIARl4dEXyNkfv1YOveiDMnnBgap902xETV7va/px35Lz+CBNhSqRU+kKKamcJguPOlfO+tiVctxbvya18/Z37maj1ocFmZX+tuymLNOUSLSWkGGghMe9pBucJ6+toObA3eQ1B5mfX7QAaqf011ETtwyaHY7kNRmOjEoTHBoKc3RpPuN+8qBfk6ZcDuzYwTVT26zwMgjjQFj88BznycIm1wHmR9Ive4/B6M9evs8Ph/7cpvDi3dF4mO9PlwTNg3Q/EM9J4WLfiv5HZjSw6h3fywpFSwvYG2ks/PzS3Iw2BnwP/KPJlHRGsykaGFg4qJzQJWDvMlh6SN7HLzR6Fi7i3L4/buMe3TPMwEBTpIkbTZN0yGqFBna5Rhslnskjls7IH6R1jmS/Kr/4xftwL5nWOcfMVii0NGjPkWcY38JhO9tlgz2D54D3Jky8F0KXCgtxZ/GBPe7RWsZaEbQm3H777e69afGwdAA8g7D7xCc+4TZBwj8rG8zv5DnwvtihBYpFmeiWAMJE8zhxTBM5XUzEAe+GP7hhfrN/ApUk69bhPr/mNu9Adx3jaDjH3N6fb0S6xw/8QoMnjg3imRYyhDfPWLzkYmSbzZXwZZ8UOeStehIbKEFG1f9fnSZBa08gRwx2F2PDjjP+NxK4UbrfM1SeB81bRW7692hHrn6aokeGwDWHv/y9v5Tq6XPVq4EzfT4wbjDsapPHrv2mPPvXn0qGvvE9hMTNHGoWZQESM4mLRMjcTjIbZtROSax2Pxd2j1+wgiZp3zICiZfMzDnwjB00LbKust3/93//9+5VsAD3KIA3bNjgrjHHDLdpQUCoUAFgAJ7tiARkWJrk0bIsTPwSRuyQsag0kNE4LPNCrmZzBBT9vrhrmRu3OLfncmHuYhftlb7LJLmazYH3pFCjyTfZ9ErBzvcbqLkzCfFKny+7gpnbQDhYQSsbaza3XcXsGeufZfEdFmyxtIKA5hsSZ3wnNlvhnXlffnkeQcRmN/ShAvFhdrifDNeeglu4T5r4l3/5F9dPaoPviAvMiEPim5UC//d//9f1aRosLIQwGuibAvdJR7wDFRP8sW9r7wdUMBFevDs75FFx4D59pggQmpnR0mn65Tuz4xljUnDX8iFpjMFadD/gFwILoWlxhzAhzFTALc4tDBwIadI6ZrgLDB5DWBIO0j9T6bLTyE9+8hP59Kc/3d2NQDj4tTAxGIzd9/j+9i3xj7zFok6sykj3FO7zLtynckRlDu2XeMc9Dp4j/KztQEXH8pi9C790w7DQkV1zAM/TtcNCUaw8R5M1YxiIKyoV5BcEvU0VND+pSHzgAx9wiyQRt/ZehJf+etIC2rf5AzSJ843whzIJd8grZ5xxhlt1Eo2bdyEtkM44h6QbSUZ2tLkSFlVJat9X6klsACpNgtU3iiAQRxBeXo7/mMhJnxIpru3tZy6IAzsGAneKKiVYdr6EqWIV4I9KEPbWtEYKtO2T3vk9qaidqe8zSMD0tvuO+YQ/KJJZ+71Maucukx1rHpeO5p5a+nCgcEDAMVIyCRoIGgkFHonXMnh/CQ4s8/D97New66RbJOKkHSBDk4GonVOBQJujHwvNBcx/+t5sMA5umjtkUAolBCuFAf1u5jcZkAyG29hBu+AXQcI5z2IHu5bBLIw0xRFPSfCX/lOaCDko+M855xwntPjlOtdBpsY+zYMUciZIDMYaJEeb2zsDBfZll13Wa3AMmgQjvwfrhzQokAgfgiLp9p/+9CenQWdDgZq9whoVFusP/tvf/uau+XaEASGIOxScDASjUkGByX2DQpSKCAU6giRZoCXDNFLgPnFGwUxYAH/Qdn/+85+7MHBN3DDAigKa744Z78R7IHQHCpulFX75xiwdjJ+YAc8iuBC0+Immhn/EC/HBfdIhggbBjpZIaxD9v6YpAu7xHJUn7JN+aSJGuFj4+AakCfIQ98krCFBL86R1C5dBHJjmSB6hInzaaaqcJd6Z8KMxk/aT5oSHitB73/tel64t7ggz7lJppj/dVmcjXnDD8jtjLahwkJ8Y3c6zuEFFkLxMi07SP7tP5ZkKA9dmBqRJKhkIW7pDCAfCmF/en/KNyiaDW+nasPByjqaO8CZ8VrYQn8QxB2E3v9CuGbfCwlWUlXxH7hO/tCpQGSYvUK4wboFfC2t/RF95BAm2ryDVxFdGiVbXXhafjxCMHH/5VyQ49J/V054Cqhe8XbsKrZbN0XKoT/9BS7yfiDxzpcjmByVo3SJuO9F+YiFku9AjVft++ZfVTn7L/OVLoIljwVHnyjFv+oKUVEzuG2UKGnRXZ6u0N+2QXetWyNr7rpNnVJNe9fdfy8YntCDcvV46WuucvdwCPZB5h58lJ//b96SksvdAkKFA4kMYJAtlS1QkbBIgiZ1Mye9ACc7ATcsI/IIlVg4rrOwemLt2n1/8S2aeXOAOds1PsHDya2b8Jv2wX9zGPzD7yfdMumtmScio9OOi8XCgAXAkz7MPBAPaKAfn1NDNj/ECcUFB++tfa3rVgpd4NPNk/HMgDBDwLGdLAWjwzlQY0YAoVHlmNOOBQhMND8Gd/JZodhTA+M170KSMUE2GhWcQKpB8Nht7hhHk//Ef/9FrUCHPUSmjtQHBQMXM0ra5ab9UFhAECDT6ja2JGyy9goWZe3Yf7Jz7HPYtkudmh18z55w8Bbhrz/SH3bPniSf6gg3MKUPQjqk08/3Nf+5ZusFP4gPtlQoH5/ae5DHGKCQHS4KF294D+1xz0KrB4DMqXEk7ds5BGKiE0GKUtEOYeA/KRcxx1w4qM3wbswt8Uwa4JuMLu1wTdioutJSxnHSuClMuRl54q3Yd7nwmvuohPPgtKgxHqN9bBWnmmA+L7P8afcl+XqGjXoJHfiSZ350p8ssTJPjT6yT4+0cluOcLEtz+EbdUavjz4yRz5YUiK34tQReaaY4IC/UDLD1fMof8q75clIhGgrmHniEn/dv/SVo1/D7wzcNm2fj4bfLXr71Orv7wsXLzly6Ue372Pnnkis/Lg7/7L7njO2+Taz92slz3idPk4T98QdobaYbp2zpAi3/tvAPk1P/4hRu9PhxISBScDPQwLHGhZSC0SYiWuQaDRM3zJGLg3AS1HdjBLX5x2+xxGGaOO5YRjKQ93DG/wOybP4ZlKrB7VkCYZsS5uZX0P+lONtwzd81fsN9cmHvmB3btGKsk4yD5zpxbnFscc2Bu9vj+aDpoQQjK5HMUhHQbMEgJNzAfDew70hJDM6n5RWGKJokGC5iRLmjKNoFp78DIYmvS7Q/u8Txat7VqcA0U4t/85jedNkZ4APuk7aSbnBM+zEmbCDzc4bD79j72nKUlwNzeD3scdj/php2bXX4Jq+U17HBu9nLBPQ5zj6ZvhF7yHi0bTEG0eEiGlQpVMmy8K9NS0VS5Nmh2pgXN3jdJ9rtR6fne977nmrJJX2DxZXZ4L56jNeO+++5z6ZN75j6tLghqvjv27HnTmpPvQJpASNt3TJZ32OOaZ2jCx8y+yUAMfHc4dLVJ8NjPaLXtRVA9Q2TJufHVnhEe9GZJHda7X92hcR5kWiRgV63fq9C+78uSbt2qxn0/JhBZ6boXJPjHpyX8zRki939V3czVPK4J/LgPSKhCfCSYtuRIOe7N/y1d7X0TfBB0yboHrpXrP32e3PmDd8nONY9qmHoSQTYdTTvl2b/+RP70yXPlHz96j7Q317l4SMLjkxceJIe9+mN4EJvmD/FkCc+wBEzBZhkOs6Sd/qAQpJ+cJiuai6jZ0iyavOaX66997WsugxiEBSyB80tmwV8LB3bMHr/Yww5YhjA7ZByzaxnQMD+4z/Nc2zP2XPJ6MOx5MPuYDXTYO0IybGMRCydY+O2c9+YbUfBawWVxaHaAZlua2RFi3Dd30E5pheAbZz8zUhA2BmXalCKLbwQpmpO9A+HiHpqxDaLiHuaEEY3avm8usMtB1wjwHrjHM3SDcJDfwOzmem9LGxZP3Dd/7Z49A4TdngWzAzxndrP94tx+OXiO/MCvnSfdzYWFi9Y7+sft/ew507jB/OEZ3CfcybCTfmj1oKvMwmXw7cxtsGdwx8A+5rQK4a7dszjgl/u8l2nQdEvQLA9mn5kUdNOhvOAOYJcmf6tMmRmVClqQsGtu446FnzjnmnPMCIPFWX+MSmkQbrxXwtbm+CrCDcQ67sOSKespiIdDWDVf5PC3q3s9H6ybhnUi171BNWmtPNC/rpGQFyrdgpZtqql/X+T6f5agdVt8o4cw1I/zMhV+s6OMPVz4MIdd/CHVgnPM4Qy75IHfflru/sn7pWHrmiENNOtoqZf1j9wsN33hPNm17omoKT1JGMiSEy+V/c/419ggfyyBWWI0MCfR8WtYhkuaZcM9at70QbHiEAOd6CvmnF/M7ZfarRX2SSyR82uZKRfY4bAwcSQzRfKdku6Y20nsPuZ2mL1su0mouTPP1A7mytOvRfNffwd2kr/0L44niA+Lc4sb4p1vacKBg/tg5xS8NGM+99xz7nl7FmjOxo3kM0MlGSZ+7bB7LNjDKGEzI6w06VsfP+YWLkZlI0RMsGBGvz2DyJLC1+6Zm7wDBTnp3u5xUKllwB8FO9cG/iUx++Ze0m7yHMz97HODa8KTNLc4Muy5pJnZsXvZ7uYCf4hbWvHAnqWPnRHWSaEL5qcd2dAfTT892H0GsII9kx2u5LWd27PmH792WNzYeIAkhJdWD+A57CLsmUZoGrTdw5x+frpVzC7uGsnzfOm/1NsDgob1breuPlTOkuCET6qvw+w/5rnjPypSPj026CHsaJbg1veJbHmEq8hwyOiH23CXZK65TMKm7P2wFfU3c/g7hx9+/UDzDztLpi4+Qj9gbBaTSqvg/t2nZNUdv4lNhkfzzg1y2zfeKC/cf11fAa6fe+kpr5V08dAXvqAQ4zCsQCEBJ2udQMLMB7PHcxyW2I3hJOixCE2rLHTB9BEyMAOUODjHLNfBgCl+zQ4tExMdvj/pCq2F/khLH/ZLhc7S2nAxt/DL3DJBRIWSgUZUMAAzWpYYGJadpkmb2GNUcBLcvOSSS7qnx+FG8pcD4YyGmJwJAAgH0/Dxz+yT7yy/jWd4b0bGW3zzbkCTuQlGMxsI7OAGz/F9zAw3qRDxXcyd7O82VCycVKyohCdBcJtmDvxy0BpDs75p2cAvg95oSWS5XUbsc9/ucSTjxb63PZ+LUUsR4V2fFWnvWZbSoeEIlp4j4b4XxgZDg+eCxac7d5Kwh3Xq2n8S2fpobLJnpOpWS3DLuzS1RbW6bgj/3GMlnHVkbDA0Js3eV45/21f14/Qe7ZvpbJU7f/BeeeHuP8Qme0ZHc508euUXZdeLT2uAY8OYqqmL5OjXsWzm4JnEIDGRSegnAktQmNMPSWYhk1jCs3sDYQmU33yfGQ/kymzEDyNjKdBp/k2e93ck73Oe1OQmKskCC+2FXw7TbIkLWmIsrQ2HZHrLbrqk4Ed4JwUnFS/64PmG2QUq1za1yNwEWpDQsHDf4D7PcfAcmnf2ADxGbpsdw+zvqRAaaZJhzAd7L4QWJOOLOewIx+S3GAjzm9YQG4dgzyFMGa9grTv5uDcQPMuBoE1+TyBdWpowsIs5gzRvueWWXn4TFrplWHWNqXSMPrf0jD2rpGEvnzQ+asI7aFXB/fSVfXwIRWu1J39OwuWXxCZ5UlTu+rrd1K0EQdgm4d1fENmhgmoECbauEPnHF/WsR9t0pMskc5gK9r5q7aDMO+xsKSrpPWgMZ9Y+cJ28+NANkunK1d8+PFrrtsqd33un6xNPQnqYe9jpUj6pb+vFQNAHSfMWJBMkc3OpgSYTMYluoIRH4kZjYaUiRskyQIc55PRxW7/XRMIyJxAv+RRS3EvGKef5ZOjxir2XvSN9jEkwQ4DajIdk3AwV/ADiOOkv0/IYlGnfBcFACwBaodk1+0AYGLDJVDcr2LGHAGEaFJVdc8ueMzfIN1TIkmmDqUq4Y9d2L2lnPGJh5zc5L97ihG+dHT8DYfdpyk62BgJ+mEKBPctrwyH5nJ1nm+Ff9j1+6U9n9TZGkFs6sIPykuZ91g1ghD3rTNBFSJh5H3OXsPPbH8PPAYPBKKnHfiyy+4XYIEFKa5wnf0Yy+16k53k2QdcukdSMg9Td+Dom8+LdEqyK1h8eWTQCn7lcKwVZfY3qf2rhSRJO2ic2yI+iknKZf8QZ+mFig5jW+m3y+HXfiK9Glqad62XtQ7dIKqulsaSiUqYvPTq+GhwSEPM+k30+llCZM5os8Mx8oMKVQgvhjcBGcLPYBQs2MEjNmpLGK/1lNiuAqbhQQJNRgfjKdSQzMfD8YJl5PMO7Jd8PwZl8f4s7E3jcGw48Z2kzGZe4zfQl7ttBemcgldnHjGeSz/EtmfeeTLfYZ7lUtEz77uYv53xbmuiz3bJKQtKMZ+zZsUQyjPlCXNgc6iQ0R3MP8nUXe8R58jn7PlTwLN73BHsed83tbDDPhvfjYB44q78x/57FYwgTh7lHixqaOIN3aWa/8MILnRllg9kb6B1GNUUELTskuOXfo7nWWWEIU1rgn/oVyZz8JQlLei8+kYtw8VmuPpAErTV49qr4anQInvxdHyWbVwln9iz0nw/TlhwlUxf1XrIUd9c9eL207N4cm4ww+vGfve0n0trQu/uCwXdzDz8jvsoPtG5GUVrCAxIWhZQtjJJMbGYnF9n3eIbCk9+Bnhvv8H5kSjJnUlPLdRAfVgBxGHsaP0m3xhJWsAFhzJVGuG+a1nDjgedMeHBuflFwko7NjMM2icBPq0xZGOwXrYoBdlRuecZAs8bNXOFN2ktCmrB4MAGAGb+YjVcsTsHiA7LjgXfELBlXubDncsUjZrR8GEm/hwvPc5hbFr5sd5PpyuzSOoDwRstmRUQGOZp7BnapzLFaIovUsOCMuTHQd88SS6PAjqclvOFtWr3aHhskCIol2O/VIpdcK+GR7xGZsiy+0Zdwcu+VvSDcuSr3wLiRZKWGbeP9Gtb4WqESEcw9Pr7Kj5rZ+m595qSH8vxdV8Tno0PD5uflmb/8XBNLbACa9mYsOVZKq6K5lvmAMGFkLc3nSWgGs9G5lmCzE3V/kNjNvj2/N8gV3nzfIR/sHbMz4mB+cN8ysNkd6BmLP+zksmfuJc8Hcq8/Rus7WVj4tf5gMP8QZGinVtEbLtlxgF9vectb3FgEK4CBwWMMkmOBHBb/4NcO22ObgylD2bMB0P5YvpR+er6fVcaM7O4hwmErhhEGqyxkx0EuctnZk/gZDQgPh3W9JaHlbiiVd3OLZ5LfC3g+OYhtT7HwJMOWHUbzJ2lu9u2XGQts0UsTOfPLWS4YLG9zUOmgwscCPTYPPvv9koy+8FZSWx4SUQ1WMtGAp17wvtULJDj2/RK++hoJj1BNvWaBhMVVrp872oe7WFLT94vsGxpf4drbNEfnXhQ/YP/rHLtr5SKl7mM/J7i//l49yfpgtfPxJL7KDauo4S7H9H0Ok0xW93lXR5c0bFsTX40eO154pE9Qq6bNlJKKwVs8DLRF5rvaQgVJrLnREpol2P7gnh2WcDn2tFAeDhaO/uCd7P5A9gbC/LB3s/PB3LP7+cYJ9sxdezbbD+5TYCTvcyQLCXODX75JUlsCzEeaZLj4RSCChRMzmkmTXTfDgffkffCPAyFK6xEDyLi29wb6rVmn/kc/+pH7TR4/+MEP3ME91n/HDcPCzApcNItak7qZ4z6aerYWyjtberMwANd8h/5Iust58jA4T7qZDffsGA0sLAjvZLgge9T9YGGwdMJ8+qSWzXPcs332s/3ZUyxcybzSH9jl+2LXniNstNLQXciiQwjx7MoM9hk0iaaene+yGTwUI0Tw4DdEbv+oSNuu2KQ3bEhGX7gcrUL8NTeKvO5mkctulPBVKtDP/bWEFdEoxR4ykqpfG5/3pmb2cjnuzV+Vk/7tRzLrwFPUpP/EMPewM+WU9/zU2Z+yMNphJhvmrWu2iK8iQvYGr8oOUwRzuJee9Do5+rIvyLFv+h952dv+T2buf4ImptgCaJDqN6+STEeOCs0IU7/lBU0U8UVMRsPClLV8IZOgedPsk4QEefjhh7s5uJbYBss0JGYrjCwj8mvnhSDpTy4/CSPmHHZumXCsYuGEZAGTfD/scCQLFX75dnwT7PIduI+ZmYO5k3RvpMBNwoFfHElhCoSHwWHW8jMSYcANDlY6s7nHwDtjjnbNwKKBDuaFM7KchYSIN8sDwEhiVv2yeE3GN/nIBjLZu9CCZf2dZtdIupsNdnkGiCcO3Ex+Y8P8SpIMw2hh4aEfOPtdaN1gLEN2WPsDe7hBxSi56iNmtM6wmIr5gV38LST2LRiYxnnyW5DOMGOaGwN22Z3MBuzZ+/McApxBbNa9losCvpUGbuW1ItdeJrLxbo3V3k2IPegLpPWDlM1Wga0Ccppq3HOO1pD2HWUu256Ir3qomb1UTv/wL2Xx8RfKnINPkVPf8wNZdPyr47u9WXz8JXLyO78ts1SwYv+Uf/+RlE+aEd/tIeikdtQ7cQdltSIVfUdsl1ZPlVM/8Cs55o2fl6WnXCr7vOwiWXj0Oarl9l5bnO/ECPMwuyN/FMh0tPZJBHhbPWNhfDU4JC4O1p5OFqAkOJoImceM5oCWgZklxFzwnGUuErUdAz0z0iT9ssxNuAxrtiWcdj8fkm4UGvObcKNR2vexd02ObrZCJQlphHsIG+7bb9Ld0cLctvCxVSO/yXTBBhx7mlZ4FxOmfFuWJ0VrNjc5uG92B/PH7mMXN8xt4Jwdt9j72e6bHzTJZ2uhaOqMlE6+n4XBrnNhbtu5PWPnwH2L22xIF5ArTfRHvvYAPy1uWN87Gwa9IrCMwdy2dyON0NUAXOM+a84z2DH5DQcSgCMN/lkFzCpnvLu9k+UxzGjeZzU9ZtxQbpodoFWBytwYEd4Rwa7nJPjTG0Se+LUK4Kx51LngfXJ9S5YxzbFL2aKjL1BBOd01USOgwrBElqhg1hiLbfSw7ylsb1nk7GG/rHq6ClwNWxZBZ2tkIYl+ICnuu7UiO3nNWHKIs548siE021+INvQfbTKdHdK6a3vkqaFxWlzRM21jMEhwHGzryCIEltD4xfyggw5y+y9TE6ZQTCbEbEi4HDxHIieBYn+gZ0aD5DsA4eGcsFkhykEY+c0H3NibWJxmrzzFr41k5dze0+5zzrMcVmHh4BmzZ3ZHA4s3wk7cI/Sy45Imxz0Niz3HL+6znCnas7nJQdcQu1MhYOkqYs45c7D7O1j3HDvJRUMM3gMNMek+ggX72bM3qDAmt9ZMvn92XCThWe7za9fEk2Hm2Zg9m36XdGMk4ZsC7rNynvX34xcHo/KpuJigGuhdAfcQ2mzsw6+5w8H3wh1LJ7hlgrwQ4B/5h1/yGr+E194p2bJCuDhnOiLhNruEO7mmQX8UXHgbwd1fkPD354us/pN+jfY+a6EPRpy83d8kuTRZIiN3BYAPHp8r7jRpMAyKSklM8cVAEPQ99Gto9P3UA2eR3lgionBiy77sjEaz+hvf+Ea3elA+mQX3OMhkVtBYwi0UloFM0BmY0RRKuLBjmXE8YAUWNXm+kYWbXwoENE27trjm157jG/D+aA1oNqyIZfeM5PlIYWHhWyDAkuuDc4/mVoSpfZPhhoHnzC8GW9Ldk5zqCGxxy8p29EtysPMXe8UPdGCHZxi4ZoIDiHP8MO3W4pKm0oceeqj7XTiwwzauaKIION7f7pEG+yP7Pv7bNffwkwNzKiZ2zT2EiQlOs5MPPJsvZhe3qbCwC5q10Fk42DWOFj2uB4O0eeSRR3ZXugzcsR3CLO5goLgbTaySQjjsXa0sIS4sjLQUMMff7AL3Lc30x14T3pLRj1e/ToJb3yty+dkit/2nBJvuEKl/Qe+pYCBkA6SPUIpFKvs2ca976CbpaGG+pF7o4Tb6UDOeyOa523+vVjpieyItuzfKc7f9Ir7bQ1hUpuHpLZDCTk0QHb1r2bDl2bulYduGyP8BIM1NX3pMfDW6pIqKpXzylN5RoOFrH8Ie38lMbRuHWKIEfhl48s53vtMt7Wm1eRJsdobk2p4lMXPN9AgEZrIPq1CwDrEJCsJEgUat3loRuN5bBcBQIOwW17wPK1eBmSEQ2Wvc3jX5HcwO8K709/It6XcDs2skzwcCe/kIBPOfrVNZXjRZcFEIfv/733cLX4CFfziYP7wjI8XZJ90grFRO2XAEDXHDhg2u0sC2t/0dNNNij8KXjTIYVZysNAE7jdGCYYU1kKauueYaJ4iSoIXSD8q3srDyXH9xaN+F/GbN82Zm960yzTvbdE+7TzxTubBma+6NJrwLA7VMUBMOwsVysWzUYuHqD55htD/CnnEGZp/4efDBB13lydy1dxnMzZEG/4hXWnUIF9e8YzIcyTRM2uB7g4Wbyg3dKgOFfe8J7wRB/RqRp38vct1bRK68QIIr9COyTvmzV0u4/SmRHc/o2/YuPEP28J7ed4BZ3cZn5MbPnS/rH71Zdq5+WG758iXy/F2Xx3d7s+a+P8rfvvWvsmvtCtn4xO3yt2+8RdqyViSDTLqCWI2vIoJWtdcUjWpM0rhtndz2tdfL1ufuk6bt69x147Y10tnae4oV6WrBkeeqs6P/CVJa+UgX927aoCxo2JJjAZ1+sAxBYkQ7Sk53SEK/9zve8Q63chBTZSgUKKiABEmiJSFz4CZNhWiDjMAkQ5pdy3j5YAneEjrn/T2PHbPHLy0GaHSEzcCcJiumbUCyGQ6ShbD5m/w18/7gHu4lM/BAmF+QdJdzu076zTnxi2Zn10AhwTuhtXDfwsBzFhbsIgTYW/ucc85xBb89b3bM36R/HHYNdo5Qufjii50GCvhrv0m/8YdwsfYz2j6Ym1RCGGthacb8Gw5WmBIXFK4IgGS4GUhGUzjp0N6d3/4OS6+ck5ao2FolA3B78eLFblcpCzPvSzhomv/Nb37T/V72buedd57bHpNlVs1+Mq7A7OM/8YY7aP88b+5kQxpnqVdrNTN7aPrshQ24b98IuMZOMr1ybea4kYtkGJJ2OEfAUkGy53Gb/MZUKgYB4rb5Zc/yy0Ez+dve9jZXCTUz3OHdWFCHufkG7tp9C0vS7cGwZ+08+QtJt+3c7lMZ+e53v+u2uKWywXfinvnPuR2Uf8cdd1y3OeGmjGXUPOf9kZ48efKn4/MxQaAaubTuEtn5rARrbpHg6d9J8NRvJdjvVSKliUFfGlGZnc9IasPdsUEPHS0Nsu7BG+T5u6+IFkDRCOmPxm1r5fl/XO6WKG1r7Cu4HYvPFpl/sp4kMgTrnz/2Uz3p6zbbcq657xpZddfvZdUdv5ZVf/+11M7dT2rn7BvbiKDP+elbfyghLQ2jyKQ5y2Tpia9xffsGdYbH//RNaWvIMf8+ByRMEpdlCBIW2ga1djRuzCyhY4ea5JlnnumWnESrphBnEQzOEQ4UaOybTEZkjV/6BSkA8cPc4Ret5uabb3aJ2cyzwZzjDW94g/Mj+fzPfvazXs3imFlYLaNQw7U9nDEzczIV5zxP2KiI0NSKVnraaac5jd0G7+EeYWeUtBWEgDnPs1sUBYz5bfcGAj8pSLFHYcBhYIaQoRA0O2aOH4QF/xDAaAHmL9+BAVpomBzco4WBShfvT6H4pS99yY1hwL59D4sT+POf/+zWlSZ8YMIHNxDUySUwKbTQbk844QQXVwgOnsMOYcFPCuy3v/3t8sEPfrB77WtLazTz/vd//3e3RgX2rsMBNzjwh9WvbD4tZrjLyn+sS00Y8Z8jmSaz4TnsWtjQbJMLvgDPUllgrWviygpyVhajYsKGFSzqgj3zhxYP8g7P8QwVAyq6XJPfiDe+I031aOqkSd6FZmPCYOE2OMdf1monTdjCSviHu7R68X3IC1xz8H1wlylz5HVbRxxwn3fAXcLBTmrJOKLiyGAsi0drjbA4Xbt2rUsThBlz3GKsA+UJrREcuM3zhJvwUkZ8+MMfdi0z5peFA7+YtpfMj0n4JsSpmRMedvZjBkN/4DbgPvHB92BkPOAO34+yiQqDhcPehY2HyEMMOqM84N3Ij7yPxS/fkPdl7nd2uUXLD+9DPJh5NoEWov1LtjFE5qzvS7DozPgqIqxfK6krz1Np3Xfi/4hRVCHh+b8UmZGYVkVcPneNBLd9ILrOg+Wn/4scdel/SnL5cgTozV+4UHauWxGbjA4Hnf8+Oejc/9AIiw0UKjU3ff6V0taU/7xZEiWJNFmYUdiz65VpCWCJOPucxEsBYAVRNtgF7OMH12yhiRaSa365gV2EEELFBgcB9tGuKHgsHBx23+CdKKC++tWvuoLCwC6ZHG2Mg0IUQYdmiMaGpsNuX+Y295l2RKYDwoXbNL1SuNH8iz3MgfPBMHdth7Hke1AxYf1kczcbCvmPfvSjrh8Vku+Nm7ScEDd8F+zS92nNtbjH1EB++bZWkHGNoKXbBLBrBRcaBhogBX7SL7DwMdqYuKQQQ4BTgNF8bfctbnCTygUjcVmZijAC9rLdHgo8yzdGgDE/29zCXQTbZz/7Wbniiitcekr6ZeHLBnMO4pN3orDFjde97nUundtzVOAoxGlmB4sz7lO5+dSnPuUqMdnvxn3igW/B3HAEBgKcygcaM/fNHdIBG16QJghLLvD3rW99q0sX2LE0CqR1/KE7gHOENxVYBA/fnLEASf94lvPXv/71rqUm6Sd7svNOVHjNPr/mFyBQsYM/3DNwl3AgwGweNO9LJYF0CrhncU7LGRUxBn1lv7f5TeWZyoKlL8ohWvpo/eD+QOAGLUe0DpK/Lc4Q/CgetLbY+3GPSkIyH5j7fEcqoaQzzKiw0W9vYbY44J35hlQik/GVTf93xhjBzqj/LkmqdqGEC0+Lr0aHcMm5EszuPR+abxG+eFd8lR91G57RB3tnTNjnxH+Kz0aHyukLZdnL36ABjg1Aw79l5b3S2ph7zn1/kJBIYJbpgaYqVgSixk8BawkQOE8eFGZkvqTgTt4HEjUFB3M1EYL0ddqqWv1h4TE3kvSXMZN2OUcYsW+2vZdlRgp6tGnmXVLzpjJAEx+grVgBTUGCffOPc4svDuAe7uOm+TMQyXfiHZPugGVsu7ZfwC6FBIKP0dC4lbxPGKiE0IJAXyMFm/W78SxCHY3XRsFmu801blrcc50saLCDuTUhc82BMMA/CkFaEqxPPRsKRgpLCt1kpcd+h4u9BwU3cG1mtCaxRzSC2+D97H4uLEwcdn7DDTc4Icu5xRVpnvcGSxdAumEva4QY2irX5h4HbiKsGTxI6xBukAaz58HzyzdF26Nly8JiWDjIW/S1M2sEO8k0yrvyffg2VG4Yf0BrCvfwj7CBPWPuZ/sDuE3e4Br72OHX3OD+9ddf7yrM5PUk2CVtUtm59NJL5bWvfa17Z8oO84vngVH7NLcTd4TfSIaNMJh9rrPd6A97Fuw9wH4N7nEQ/1TeyFPJ7hj84eA7UlGjRZI45luZW9jFP74PCsvVV1/dx59sBr47llirtb6s8ts1Ay95ZXQxWiy7IFpAJgGfJNjdtzIxENtXPyy7Xuz9DOGfe8hpOeeWjwyBLD7u1VJWE61WZaSCjGxf9WB3Is4XE1D8WkahoLv77rudFkpGZBQt7iYzOtfml7mRzDiWcDkotBHYb3rTm9yGJQgR/DL3coFb5j4kz5Nuc26H3bOMRU0c/yjYwMKXDGcS3KPWTAGFHcLIkW3fwkI8WFjIoBYv/cE9ewZwl2sO84NzMHcNzjkIG9OX0A4YSGVu4b+5kR1e4pmmeMYt0Kpg4bRngXMLD/bNb8wowIB7CEK+I837yfAZuGNhT7pJQcwobyoeFIbmt8WvhWk48O40ZaLlgoWBA38RJLhtfnEMhMUBz/Mc709c09rCNfe5Rz6hwOabYN/c55dnGGz1rne9y63ehuA37PlcB8/jBwfvxfeiwkUe5DnMuIddri3uuI+mzHfmnrlhYC/pD/doleEcCD/umNvJ5+2X98J/w855V3OHyv5vf/tbN1qfwX5JN5LxbuExuE8YqGzTGkXcUTkyO/wmnwfCayT9sfNc2P3sd0y6bfctvvnOVChsD3h7jvvYS4YxCXb47pRBHDZYjaM/xlyfd294QQKvv211InNeJlI1293pZtI8kfpNIrueSfZI7zm0aR/wepEDVWtNDipTT8L1d0vq8R/xBWLDwcl0dUhReY3MPkDfIfFYSUW1lFTWyobHbo1NRg4WrDn6dZ+RFIveJOhobZCHLv+sdLbm391gCTA7QWFGIqVJiEKaPiCa3WguQ2Mig3KfwxIv5iRUtDIKEpoSaZKj4CLh0n9Fvx3P4D4ZNZnps7EwMUIcdymAcZeKQHJRmWS47Rk7gGfRggg/zbn4y8E7kJk4LMz0xdNfSR+ptTgQXrQetAbsWDh4F8LBfTA/ecb87g+LXzQixgsk343mQgYgWbwk44dncJvnsUt/KxUhmkB5Jwoaws3BO+Eu349magYjEge4x0ArBgmZv2jzfCvu803MH35p/kRjoyAlfj75yU86zZ15rPQLonkk/eUg3dCyQhzRQoD/tLjQbEo4LX4sHQwWX4OBn/TL0wxr72QH3RDEkb0PAigfsEv47HtyTZcAWivaPG7jF+9KtwGCHXgmCU3rfAO2xiXN4j95hTjjsHzDPeIMN0mDNPOzoQU7UxF+EyKEJZnGkr+kZbYy5XvS32ppAj+oyOIH6YJxHbhJcy+VMcLEYe/ML60ndH3Ye5LeEGCmDRMGe1fsg11zjzgifdKNQ7gtz3FYGUJ4CSvpivTHLoS0+hE+cyv5fslz/GBAGBA+++5UdqwJOxeE1e7xHqwkSZq350mz5H/CBISDg3uEkfgiDnmG75Z8J4tj4oq8RCsE3S20AHLP3mkgRrTPO9T3jFqGNcE4kxi9wb2I6CS6Vntq3x3uil8t4J0jZoJdLfz1OlhyvgSn/a+a9l5tjSVXw+vfourt45HryQ1AnFuRO+aPEWggMkmDBJkpyyW4+Er9atEKPt1kVBP405sltfn+2CB/qmfuI+d88joVpr0Xdwkz7fLAb/9L1tx7tQr5kRm8VqwVhdM+9HuZPJdBV7GhQlpcfc/Vct8vPhSb5I9lQsu4XJt5MrNYgcPgDpqWydwMTKHwBgopEi2JnsKMwU9gbpKBLZPzS+IfqODGHHumpVl4+MVPfs1tMwczt0xqdshgXLPAhm15SsFrwps+W8JMmAirucvBe5P5yOwWZtwlHFwD15zzOxA8m4wHy9Sc84sf1mzPkf1eYHaT70XlggPhQvgpbBCyNnuA+Db4ljxr78K5zSAw/4B79AvS1Im7CGK6UnjOnidu8Betl4oIfhOfJhwQapjZO5ofuM3zvC/YO0EyDPnCO+EGB24b+I2fmOMXv7hv8ZcLu29YOC0PGOYm34tfey+DcwuPxRn2aCUgH9EMy7VVIhF4tKogSPDf0qHFHYeFCzct/Oav2SWcVM4YOMWYBdK6+cE4EypdHDxD3NizSTfxywZWmRnvyWH+2LtxzvuBmfOLPeKLe4SDNEJF2LrYLCxo6Ag9wsJzScxvc8/gnPCBhQMz3M52Ixuzy5FMN/Yc70jcY4YdzM0Pfslz3Ocb0nrBd+Sa9+Sd6NenAkb5Qr4Ce9bO+2NEhTeCMOVc048bC0zQV4rPCIh+QL2l0aGn7m9kMw5jSiPASfbE8qnOjl4HTA87/9cSzuoZdWuETZskuPa1kmp4kVXPY1OcNXfiyHB/Qc/UH7zKJqyYqf78QqQ2a5cz7G55xPnDPPUhox9in+NfI8e+6Qv6oXsnmnRRKLd/+x2qgUcDgfYENkQ5+rLPy5JTXtunyb+tcZtc/6kz3Yj40YbEbImaIwmJ0o7BMtDewgpRwzJSMuzjEfsmwK+9y55+B9yyOMMthE023Ev6n4xLDk8PxFHyAIujkYwz3E5+EzB3LU2MhD/5kis8QFhG6p0LTa5y0N5luPluxJrNXZCIUz00SE6rDV0kxwIyPhDOaTVQWeVELPc61V5GX0DFs7Okr9P9ANWAQNL6nNb66CTe8pgE+57jRoEnCUqrJVhwiqS2Py3SuNE9iV+45cKj/2j+JkwcGcJGhQBzg/vzTxI585squHtP63K0bBG587/c4jLDpW7TSpl9wAlSMbl383+oNZ95h5wqHa1NsnPN47Hp0KmasUhO+JdvyPwjNI761Ewy8uT135Ytz/SdXjcaWMK0gjx5mPlYzogWxuzDMt14Jfldku+0p5i79n1z0Z/fI+H/RMPiJTu+RjrO+vODYyT9yZf+wrM3wjJSDPROw2XEhLcLApGLwNCDf91ykVMV1lx2G8VaN9q6E6h6B4087TTSyCYae6S160vyi7utO1WbbJNgkQrZ7P2xyyaLLD8/EloI8LasFcTU2LmMn+4yqhpAWDFDwoPfLMGpXxQpnebMkgQp1bRv+6gEL94emwyPMNMlO9c97RZoSRf3LMYPqXSJzD3k5VIzY6E0bn9ROlrqnf18YG/u2Qe9XF7+nl/IpFlL1CR6rx5Cee5vP5cV1/1vfO3xeDye8coYnOfdW+hEQjaJmqSKJDz1ayLLVFD3tK73wAMdKrgf/ZkEj/1QVfvce347SqrdHuLBQa+RsKhanc+hMeDeE7+S4B+f1fv5CdPBWHzcxXLi278quXYEdZWLsFXWP3qH3PPz90umvbVPE5LBXuHzjzhXDr/kw1JRyxzdrPEACuPtWOnt5i9dJO1DmNft8Xg8nrHJuFmkpQ8lNRIe9xGR/S/Vi/5Gheqrte2WcMdTqoXvEmnWo0s1aDTe8loJi2skmHZQpLH3Gwt6Y+U1ErAX+XD6ufsBrXv+ka+Uo177aSkqjRYeyAYh3tnWLLs3PSOtuzdLW3OzW488lU5LxaTJkioul0mzl0nl1IVqWR/I8Q64wSIwd/3g3dK0I1r83uPxeDzjm/ErvBWnjR7zQZHD/kW18b4rdvUBAWdCLp+3zjSLPPAtkcd/Gi3bOgrMO/QMOeZNX5TSSpZTjA37AUFsTf45Nk/LQZesffDP8sgfPi+tDf0vA+jxeDye8cW4Ft4OVm5h3fFzvi1hUJ6fUB4MhGRnnch1bxXZ9ni+knLY1MxaIqd98DdusZY8u7gHJZXOyKNXfU2e+cuP3Rxzj8fj8Uwcxr/wBkaJT1okcsDrRPbXo0S18OHIW7q721tEnvm9yNN/kGDnc2pQmOgpq5ku8w47Sw48551SMWWO83YwTTwb+ra7Ojtkw6O3yuq7r5BNT/49vuPxeDyeicTEEN4JMuXTJWDU+NKzRCqmS5iu1reM25qzcU3oKuU7693I9HDlDRI+8gNJtY/+HOj+oB976UmXyqJjL5JJs+bq9SRJMUCPm1nvEL2W/utskc72ehXWD8rTf/mR2+LU4/F4PBOXCSe8uymukLB8mgSTFko46yiR+aeKTN9fb6SjgWfbnxDZ9IAE6/8h4a6VErQ3iHQ06/2xER0MaGOVtJqZ+8ikOfvKXNXKpy85Kp5elpH6zS/IjjWPyMYVf3P7cjMYrZNR6aO8vajH4/F49j4TV3h7PB6PxzNByTGp2ePxeDwez1jGC2+Px+PxeMYZXnh7PB6PxzOuEPn/3+0ikZkJTnkAAAAASUVORK5CYII=;" parent="1" vertex="1">
          <mxGeometry x="-20.000000000000057" y="423.25" width="117.14" height="62" as="geometry" />
        </mxCell>
        <mxCell id="ikbKVhi1X6ugl7hC7fln-5" value="" style="endArrow=classic;startArrow=classic;html=1;rounded=0;entryX=0.5;entryY=1;entryDx=0;entryDy=0;" parent="1" target="ikbKVhi1X6ugl7hC7fln-4" edge="1">
          <mxGeometry width="50" height="50" relative="1" as="geometry">
            <mxPoint x="40" y="510" as="sourcePoint" />
            <mxPoint x="90" y="460" as="targetPoint" />
          </mxGeometry>
        </mxCell>
        <mxCell id="ikbKVhi1X6ugl7hC7fln-6" value="" style="endArrow=classic;html=1;rounded=0;exitX=1;exitY=0.75;exitDx=0;exitDy=0;entryX=-0.022;entryY=0.592;entryDx=0;entryDy=0;entryPerimeter=0;" parent="1" source="ikbKVhi1X6ugl7hC7fln-4" target="ZIW-Bqu-6-VOcXZnvLO4-5" edge="1">
          <mxGeometry width="50" height="50" relative="1" as="geometry">
            <mxPoint x="310" y="450" as="sourcePoint" />
            <mxPoint x="360" y="400" as="targetPoint" />
            <Array as="points">
              <mxPoint x="140" y="470" />
              <mxPoint x="140" y="543" />
            </Array>
          </mxGeometry>
        </mxCell>
        <mxCell id="ikbKVhi1X6ugl7hC7fln-7" value="" style="endArrow=classic;html=1;rounded=0;exitX=0.957;exitY=0.301;exitDx=0;exitDy=0;entryX=-0.021;entryY=0.908;entryDx=0;entryDy=0;entryPerimeter=0;exitPerimeter=0;" parent="1" source="ikbKVhi1X6ugl7hC7fln-4" target="13cGQfRiNaTf8cITRQYB-22" edge="1">
          <mxGeometry width="50" height="50" relative="1" as="geometry">
            <mxPoint x="310" y="450" as="sourcePoint" />
            <mxPoint x="360" y="400" as="targetPoint" />
            <Array as="points">
              <mxPoint x="170" y="442" />
              <mxPoint x="170" y="298" />
            </Array>
          </mxGeometry>
        </mxCell>
        <UserObject label="&lt;div&gt;&lt;div&gt;&lt;b&gt;&lt;font style=&quot;font-size: 14px;&quot;&gt;On-Premesis&lt;/font&gt;&lt;/b&gt;&lt;/div&gt;&lt;/div&gt;" placeholders="1" name="Variable" id="ikbKVhi1X6ugl7hC7fln-9">
          <mxCell style="text;html=1;strokeColor=none;fillColor=none;align=center;verticalAlign=middle;whiteSpace=wrap;overflow=hidden;" parent="1" vertex="1">
            <mxGeometry x="7.140000000000001" y="790" width="90" height="20" as="geometry" />
          </mxCell>
        </UserObject>
        <mxCell id="DjLHUHuEkZMfq8ZDPpnp-2" value="Corporate data center" style="points=[[0,0],[0.25,0],[0.5,0],[0.75,0],[1,0],[1,0.25],[1,0.5],[1,0.75],[1,1],[0.75,1],[0.5,1],[0.25,1],[0,1],[0,0.75],[0,0.5],[0,0.25]];outlineConnect=0;gradientColor=none;html=1;whiteSpace=wrap;fontSize=12;fontStyle=0;container=1;pointerEvents=0;collapsible=0;recursiveResize=0;shape=mxgraph.aws4.group;grIcon=mxgraph.aws4.group_corporate_data_center;strokeColor=#7D8998;fillColor=none;verticalAlign=top;align=left;spacingLeft=30;fontColor=#5A6C86;dashed=0;" parent="1" vertex="1">
          <mxGeometry x="-40" y="208.11" width="160" height="121.89" as="geometry" />
        </mxCell>
        <mxCell id="DjLHUHuEkZMfq8ZDPpnp-3" value="Corporate data center" style="points=[[0,0],[0.25,0],[0.5,0],[0.75,0],[1,0],[1,0.25],[1,0.5],[1,0.75],[1,1],[0.75,1],[0.5,1],[0.25,1],[0,1],[0,0.75],[0,0.5],[0,0.25]];outlineConnect=0;gradientColor=none;html=1;whiteSpace=wrap;fontSize=12;fontStyle=0;container=1;pointerEvents=0;collapsible=0;recursiveResize=0;shape=mxgraph.aws4.group;grIcon=mxgraph.aws4.group_corporate_data_center;strokeColor=#7D8998;fillColor=none;verticalAlign=top;align=left;spacingLeft=30;fontColor=#5A6C86;dashed=0;" parent="1" vertex="1">
          <mxGeometry x="-40" y="601.5" width="200" height="208.5" as="geometry" />
        </mxCell>
        <mxCell id="RwZsPWD8Ckw33EGUMVUq-11" value="Invoke Process" style="edgeLabel;resizable=0;html=1;;align=center;verticalAlign=middle;" parent="1" connectable="0" vertex="1">
          <mxGeometry x="484.009910595297" y="260.0028956269698" as="geometry">
            <mxPoint x="2" y="13" as="offset" />
          </mxGeometry>
        </mxCell>
        <mxCell id="ZIW-Bqu-6-VOcXZnvLO4-10" value="Push Terraform State" style="edgeLabel;resizable=0;html=1;;align=center;verticalAlign=middle;" parent="1" connectable="0" vertex="1">
          <mxGeometry x="239.99991059529702" y="290.0028956269698" as="geometry">
            <mxPoint x="2" y="13" as="offset" />
          </mxGeometry>
        </mxCell>
        <mxCell id="RwZsPWD8Ckw33EGUMVUq-12" value="Push Terraform Lock" style="edgeLabel;resizable=0;html=1;;align=center;verticalAlign=middle;" parent="1" connectable="0" vertex="1">
          <mxGeometry x="229.99991059529702" y="527.5028956269698" as="geometry">
            <mxPoint x="2" y="13" as="offset" />
          </mxGeometry>
        </mxCell>
      </root>
    </mxGraphModel>
  </diagram>
</mxfile>
